<?xml version="1.0" encoding="UTF-8"?>
<svg
  xmlns="http://www.w3.org/2000/svg"
  viewBox="0 0 24 24"
  fill="none"
  stroke="currentColor"
  stroke-width="2"
  stroke-linecap="round"
  stroke-linejoin="round">
<path d="M0,0 L26,0 L53,2 L77,7 L88,10 L106,16 L126,25 L138,31 L151,39 L164,48 L175,56 L175,58 L179,60 L187,67 L194,73 L201,81 L212,93 L222,107 L229,117 L235,126 L243,142 L247,151 L252,162 L260,186 L264,202 L267,220 L269,242 L269,263 L266,295 L262,314 L256,335 L250,351 L244,364 L236,379 L231,388 L224,398 L216,409 L207,420 L193,435 L186,442 L184,442 L184,444 L170,455 L159,463 L144,473 L121,485 L101,493 L82,499 L71,502 L46,506 L32,507 L1,507 L-22,505 L-42,501 L-64,495 L-78,490 L-91,484 L-108,476 L-125,465 L-139,455 L-150,446 L-153,444 L-153,442 L-156,441 L-156,439 L-160,437 L-174,423 L-183,412 L-192,400 L-202,385 L-213,365 L-219,351 L-225,335 L-231,313 L-234,301 L-237,276 L-237,232 L-234,207 L-232,201 L-229,187 L-219,157 L-208,134 L-197,115 L-187,101 L-176,87 L-174,87 L-172,83 L-165,75 L-157,68 L-145,57 L-132,47 L-115,36 L-100,27 L-75,16 L-64,12 L-42,6 L-23,2 Z M-2,35 L-26,38 L-40,41 L-55,46 L-64,49 L-80,56 L-93,63 L-108,72 L-108,74 L-113,76 L-124,85 L-139,98 L-139,100 L-143,102 L-150,110 L-159,121 L-170,137 L-179,153 L-182,158 L-186,168 L-193,186 L-197,201 L-200,215 L-203,244 L-203,267 L-200,293 L-195,315 L-188,336 L-183,347 L-177,359 L-166,377 L-159,386 L-149,399 L-147,399 L-145,403 L-130,418 L-119,427 L-111,433 L-103,439 L-92,445 L-78,453 L-70,456 L-61,460 L-39,467 L-19,471 L0,473 L32,473 L50,471 L76,465 L94,459 L103,455 L112,451 L127,443 L138,436 L150,427 L164,415 L172,408 L179,400 L188,389 L194,381 L205,364 L211,354 L218,339 L224,322 L229,306 L232,291 L234,274 L234,236 L232,218 L228,200 L222,180 L216,165 L208,149 L198,132 L189,120 L179,107 L175,103 L173,103 L171,99 L169,99 L167,95 L157,86 L140,73 L126,64 L116,58 L93,48 L84,45 L68,40 L54,37 L35,35 Z " fill="#030303" transform="translate(549,196)"/>
<path d="M0,0 L15,0 L18,3 L18,24 L17,28 L30,31 L42,36 L53,43 L60,49 L70,62 L78,78 L80,84 L79,89 L70,93 L43,104 L40,106 L35,105 L30,95 L24,83 L17,76 L11,73 L6,72 L-4,72 L-13,75 L-20,81 L-23,87 L-24,98 L-21,107 L-17,112 L-10,117 L10,125 L25,130 L41,136 L54,143 L65,151 L72,158 L79,168 L85,183 L87,195 L87,217 L83,233 L79,243 L70,256 L63,263 L55,269 L39,277 L26,281 L18,282 L18,314 L16,317 L-16,317 L-17,316 L-17,282 L-32,279 L-44,275 L-58,267 L-68,258 L-76,248 L-81,239 L-87,224 L-89,213 L-86,210 L-72,207 L-49,201 L-47,200 L-40,200 L-32,220 L-24,230 L-10,237 L13,237 L22,232 L29,224 L30,220 L30,206 L27,199 L18,191 L-3,182 L-12,179 L-32,172 L-49,163 L-58,156 L-66,148 L-73,137 L-77,126 L-80,112 L-80,92 L-76,74 L-69,60 L-62,51 L-55,44 L-44,37 L-36,33 L-27,30 L-18,28 L-17,2 L-16,1 Z " fill="#020202" transform="translate(628,288)"/>
<path d="M0,0 L18,0 L23,4 L24,6 L24,49 L65,49 L70,51 L73,55 L73,73 L68,78 L66,79 L25,80 L24,121 L20,126 L18,127 L0,127 L-5,123 L-6,120 L-6,79 L-49,79 L-54,74 L-55,72 L-55,56 L-52,51 L-47,49 L-6,49 L-6,8 L-4,3 Z " fill="#030303" transform="translate(449,423)"/>
<path d="M0,0 L35,0 L60,3 L66,5 L66,7 L71,7 L71,8 L61,7 L48,5 L38,4 L1,4 L-23,7 L-37,10 L-52,15 L-61,18 L-77,25 L-90,32 L-103,40 L-105,40 L-105,42 L-111,46 L-121,54 L-135,66 L-142,74 L-153,86 L-164,102 L-170,112 L-178,126 L-182,136 L-185,142 L-187,141 L-185,136 L-180,124 L-172,109 L-162,94 L-160,91 L-158,91 L-156,86 L-148,76 L-141,68 L-139,68 L-138,65 L-136,65 L-134,61 L-124,52 L-119,50 L-119,48 L-104,37 L-95,31 L-91,31 L-91,29 L-81,23 L-74,22 L-74,20 L-70,20 L-70,18 L-57,13 L-52,11 L-40,8 L-26,4 L-3,1 Z " fill="#A5A4A4" transform="translate(546,228)"/>
<path d="M0,0 L1,0 L1,21 L-3,37 L-7,47 L-16,60 L-23,67 L-31,73 L-47,81 L-60,85 L-68,86 L-68,118 L-70,121 L-102,121 L-103,120 L-103,86 L-118,83 L-130,79 L-139,74 L-135,73 L-125,78 L-116,81 L-101,84 L-101,119 L-71,119 L-71,84 L-53,80 L-41,75 L-29,68 L-26,67 L-26,65 L-20,60 L-19,58 L-17,58 L-15,53 L-13,50 L-11,50 L-10,46 L-6,38 L-4,33 L-2,24 L-1,1 Z " fill="#B4B3B4" transform="translate(714,484)"/>
<path d="M0,0 L2,0 L-1,9 L-9,25 L-16,37 L-23,47 L-31,58 L-40,69 L-54,84 L-61,91 L-63,91 L-63,93 L-77,104 L-88,112 L-103,122 L-126,134 L-146,142 L-165,148 L-176,151 L-183,151 L-179,149 L-164,145 L-149,140 L-139,136 L-129,132 L-117,127 L-106,120 L-87,108 L-74,98 L-68,93 L-66,93 L-65,90 L-57,83 L-47,73 L-40,65 L-30,52 L-19,36 L-14,27 L-5,11 Z " fill="#959596" transform="translate(796,547)"/>
<path d="M0,0 L26,0 L53,2 L77,7 L88,10 L106,16 L126,25 L132,28 L133,30 L129,29 L116,24 L113,22 L106,20 L102,18 L96,17 L96,14 L87,13 L72,8 L48,5 L33,4 L-11,4 L-37,8 L-43,8 L-43,10 L-57,13 L-67,17 L-77,20 L-82,20 L-80,18 L-64,12 L-42,6 L-23,2 Z " fill="#A1A1A1" transform="translate(549,196)"/>
<path d="M0,0 L2,0 L1,6 L-4,21 L-8,40 L-11,69 L-11,92 L-8,118 L-3,140 L4,161 L9,172 L15,184 L15,187 L12,185 L9,180 L8,176 L6,175 L5,167 L3,167 L3,163 L1,163 L-2,156 L-3,148 L-5,146 L-8,130 L-8,126 L-10,126 L-13,110 L-14,101 L-14,60 L-13,46 L-6,16 Z " fill="#A8A8A6" transform="translate(358,371)"/>
<path d="M0,0 L2,1 L-6,12 L-10,18 L-12,18 L-14,22 L-18,29 L-20,29 L-20,33 L-22,33 L-23,37 L-25,37 L-26,43 L-28,43 L-30,49 L-34,58 L-42,74 L-47,89 L-50,98 L-53,112 L-55,126 L-57,126 L-58,151 L-58,186 L-56,213 L-58,213 L-61,189 L-61,145 L-58,120 L-56,114 L-53,100 L-43,70 L-32,47 L-21,28 L-11,14 Z " fill="#CBC2C5" transform="translate(373,283)"/>
<path d="M0,0 L6,1 L15,5 L39,13 L59,17 L78,19 L110,19 L128,17 L154,11 L158,12 L152,15 L139,18 L130,18 L130,20 L112,22 L110,23 L77,23 L65,21 L57,20 L51,18 L32,14 L25,11 L9,7 L9,5 L6,5 L6,3 L0,1 Z " fill="#666666" transform="translate(471,649)"/>
<path d="M0,0 L7,0 L15,20 L23,30 L37,37 L60,37 L70,32 L69,35 L64,37 L64,39 L56,41 L44,41 L33,39 L30,38 L30,36 L25,35 L16,26 L15,22 L12,21 L7,8 L5,2 L-24,9 L-34,12 L-38,13 L-37,22 L-35,30 L-29,43 L-29,45 L-27,45 L-23,52 L-17,59 L-14,61 L-15,64 L-23,56 L-29,48 L-34,39 L-40,24 L-42,13 L-39,10 L-25,7 L-2,1 Z " fill="#BDBDC0" transform="translate(581,488)"/>
<path d="M0,0 L2,0 L6,10 L9,19 L13,31 L18,56 L20,68 L20,113 L17,134 L9,160 L7,165 L5,165 L8,155 L12,141 L15,126 L17,109 L17,71 L15,53 L11,35 L5,15 L0,2 Z " fill="#9D9D9D" transform="translate(765,361)"/>
<path d="M0,0 L9,2 L20,6 L20,8 L30,10 L49,14 L51,15 L63,17 L70,19 L138,19 L153,18 L149,20 L135,22 L121,23 L90,23 L67,21 L47,17 L25,11 L11,6 L0,1 Z " fill="#777777" transform="translate(460,680)"/>
<path d="M0,0 L16,0 L26,6 L34,13 L39,23 L44,33 L44,35 L52,31 L60,30 L57,32 L47,37 L42,36 L37,26 L31,14 L24,7 L18,4 L13,3 L3,3 L-6,6 L-13,12 L-16,18 L-17,29 L-14,38 L-10,43 L-3,48 L12,54 L13,56 L4,54 L-4,51 L-8,48 L-8,46 L-12,45 L-18,37 L-19,35 L-19,20 L-16,11 L-9,4 Z " fill="#B6B6B6" transform="translate(621,357)"/>
<path d="M0,0 L35,0 L60,3 L66,5 L66,7 L71,7 L71,8 L61,7 L48,5 L38,4 L1,4 L-23,7 L-37,10 L-52,15 L-54,14 L-52,11 L-40,8 L-26,4 L-3,1 Z " fill="#A5A5A4" transform="translate(546,228)"/>
<path d="M0,0 L15,0 L18,3 L18,24 L17,28 L26,30 L26,32 L15,31 L15,3 L-15,3 L-15,31 L-26,32 L-40,38 L-55,47 L-58,47 L-49,40 L-36,33 L-27,30 L-18,28 L-17,2 L-16,1 Z " fill="#B5B5B5" transform="translate(628,288)"/>
<path d="M0,0 L5,5 L11,13 L18,23 L24,32 L32,48 L36,57 L41,68 L49,92 L53,108 L56,126 L56,138 L54,135 L51,112 L48,104 L44,85 L41,76 L36,65 L32,55 L24,39 L20,33 L20,29 L17,28 L14,21 L8,13 L0,2 Z " fill="#C1C0BF" transform="translate(760,290)"/>
<path d="M0,0 L5,1 L8,5 L8,23 L3,28 L1,29 L-40,30 L-41,71 L-45,76 L-47,77 L-65,77 L-70,73 L-70,70 L-68,70 L-67,74 L-47,74 L-44,71 L-43,27 L2,26 L5,23 L5,5 L4,2 Z " fill="#9D9D9D" transform="translate(514,473)"/>
<path d="M0,0 L2,0 L2,43 L-43,44 L-46,45 L-45,68 L-48,65 L-49,63 L-49,47 L-46,42 L-41,40 L0,40 Z " fill="#A4A4A5" transform="translate(443,432)"/>
<path d="M0,0 L18,0 L23,4 L24,6 L24,49 L64,49 L64,51 L22,51 L21,4 L18,3 L1,3 L-2,4 L-4,8 L-5,4 Z " fill="#B2B1B2" transform="translate(449,423)"/>
<path d="M0,0 L6,2 L8,3 L8,5 L12,6 L12,8 L18,10 L23,16 L31,21 L31,23 L34,24 L38,29 L43,34 L48,39 L55,48 L65,61 L73,74 L76,78 L76,82 L78,82 L80,87 L80,90 L82,90 L83,97 L80,93 L73,79 L62,61 L54,51 L46,41 L46,39 L43,38 L38,32 L33,27 L29,24 L29,22 L25,20 L10,8 L0,1 Z " fill="#989796" transform="translate(682,264)"/>
<path d="M0,0 L2,1 L8,24 L11,33 L17,49 L19,55 L21,58 L21,62 L23,62 L27,72 L33,82 L35,84 L37,89 L45,100 L45,102 L42,101 L35,90 L22,68 L16,55 L8,34 L2,12 L0,4 Z " fill="#878686" transform="translate(316,497)"/>
<path d="M0,0 L15,0 L39,5 L50,8 L68,14 L88,23 L94,26 L95,28 L91,27 L78,22 L75,20 L68,18 L64,16 L58,15 L58,12 L49,11 L34,6 L10,3 L0,1 Z " fill="#9F9F9D" transform="translate(587,198)"/>
<path d="M0,0 L2,1 L-7,7 L-14,10 L-19,13 L-27,16 L-33,20 L-35,20 L-37,24 L-44,27 L-57,37 L-71,49 L-79,58 L-87,65 L-90,67 L-88,63 L-81,55 L-73,48 L-61,37 L-48,27 L-31,16 L-16,7 Z " fill="#7C737D" transform="translate(465,216)"/>
<path d="M0,0 L1,0 L2,31 L5,46 L9,54 L14,62 L24,73 L27,76 L22,74 L12,64 L5,53 L1,42 L-2,28 L-2,8 Z " fill="#979396" transform="translate(550,372)"/>
<path d="M0,0 L5,2 L17,9 L30,18 L41,26 L41,28 L45,30 L53,37 L60,43 L67,51 L76,61 L75,63 L61,48 L51,38 L40,29 L22,16 L19,13 L13,10 L13,8 L7,6 L0,2 Z " fill="#BDBDBC" transform="translate(683,226)"/>
<path d="M0,0 L6,1 L14,5 L23,8 L38,11 L38,46 L64,46 L64,47 L36,47 L36,13 L21,10 L9,6 L0,1 Z " fill="#919191" transform="translate(575,557)"/>
<path d="M0,0 L46,0 L46,42 L44,42 L44,2 L1,2 Z " fill="#B8B8B8" transform="translate(399,500)"/>
<path d="M0,0 L1,0 L2,9 L2,30 L-1,62 L-5,81 L-7,84 L-7,75 L-4,60 L-1,34 L-1,1 Z " fill="#C0BFBF" transform="translate(816,429)"/>
<path d="M0,0 L6,1 L15,5 L39,13 L59,17 L77,19 L77,21 L65,21 L57,20 L51,18 L32,14 L25,11 L9,7 L9,5 L6,5 L6,3 L0,1 Z " fill="#A3A0A0" transform="translate(471,649)"/>
<path d="M0,0 L6,0 L2,2 L-12,4 L-26,5 L-57,5 L-57,4 L-66,3 L-66,2 L-9,1 Z " fill="#6D6D6D" transform="translate(607,698)"/>
<path d="M0,0 L2,0 L-1,9 L-9,25 L-16,37 L-23,47 L-31,58 L-35,60 L-33,56 L-21,39 L-15,30 L-7,14 Z " fill="#7D7C7C" transform="translate(796,547)"/>
<path d="M0,0 L35,0 L60,3 L66,5 L66,7 L71,7 L71,8 L61,7 L48,5 L38,4 L11,3 L11,2 L0,1 Z " fill="#737373" transform="translate(546,228)"/>
<path d="M0,0 L4,1 L-12,9 L-31,17 L-49,23 L-64,27 L-71,27 L-67,25 L-52,21 L-37,16 L-27,12 L-17,8 L-5,3 Z " fill="#959393" transform="translate(684,671)"/>
<path d="M0,0 L11,0 L14,3 L14,24 L13,28 L22,30 L22,32 L11,31 L11,3 L-19,3 L-19,2 L0,2 Z " fill="#8A8A8B" transform="translate(632,288)"/>
<path d="M0,0 L1,0 L1,21 L-3,37 L-7,47 L-16,60 L-23,67 L-25,66 L-19,58 L-17,58 L-15,53 L-13,50 L-11,50 L-10,46 L-6,38 L-4,33 L-2,24 L-1,1 Z " fill="#C6C4C5" transform="translate(714,484)"/>
<path d="M0,0 L28,0 L28,1 L2,2 L1,43 L-3,48 L-5,49 L-23,49 L-28,45 L-28,42 L-26,42 L-25,46 L-5,46 L-1,42 Z " fill="#D0D1D1" transform="translate(472,501)"/>
<path d="M0,0 L3,1 L10,9 L20,19 L31,28 L39,34 L47,40 L52,43 L48,44 L44,42 L39,37 L28,29 L26,27 L22,26 L17,21 L16,18 L8,11 L1,3 Z " fill="#A9A8A9" transform="translate(399,594)"/>
<path d="M0,0 L7,0 L4,2 L-5,4 L-4,13 L-2,21 L4,34 L4,36 L6,36 L10,43 L16,50 L19,52 L18,55 L10,47 L4,39 L-1,30 L-7,15 L-9,4 L-6,1 Z " fill="#AFAFB0" transform="translate(548,497)"/>
<path d="M0,0 L2,1 L-6,12 L-10,18 L-12,18 L-14,22 L-18,29 L-20,29 L-20,33 L-22,33 L-23,37 L-25,37 L-26,43 L-28,43 L-30,49 L-34,58 L-37,61 L-36,55 L-26,36 L-14,18 L-3,4 Z " fill="#BFBBBE" transform="translate(373,283)"/>
<path d="M0,0 L26,0 L38,1 L38,3 L46,3 L46,4 L-7,3 L-7,2 L0,2 Z " fill="#908F8F" transform="translate(549,196)"/>
<path d="M0,0 L2,0 L10,16 L12,22 L11,27 L2,31 L-12,37 L-15,36 L-2,29 L7,26 L10,26 L8,17 L6,17 L3,10 L0,4 Z " fill="#CFCDCD" transform="translate(696,350)"/>
<path d="M0,0 L3,1 L-2,4 L-22,13 L-35,20 L-40,23 L-46,24 L-43,21 L-40,19 L-36,19 L-36,17 L-26,11 L-19,10 L-19,8 L-15,8 L-15,6 L-2,1 Z " fill="#A4989F" transform="translate(491,240)"/>
<path d="M0,0 L18,0 L23,4 L24,8 L23,51 L22,51 L21,4 L18,3 L1,3 L-2,4 L-4,8 L-5,4 Z " fill="#8C8B8C" transform="translate(449,423)"/>
<path d="M0,0 L2,1 L-1,10 L0,21 L4,28 L13,35 L28,41 L29,43 L20,41 L12,38 L8,35 L8,33 L4,32 L-2,24 L-3,22 L-3,7 Z " fill="#B0AFAA" transform="translate(605,370)"/>
<path d="M0,0 L4,1 L8,4 L10,12 L10,23 L7,33 L4,36 L-1,37 L5,29 L6,25 L6,11 L3,4 Z " fill="#979599" transform="translate(652,483)"/>
<path d="M0,0 L2,1 L-3,7 L-18,15 L-34,20 L-42,21 L-43,23 L-43,20 L-40,20 L-40,18 L-27,15 L-15,10 L-3,3 L0,2 Z " fill="#9F989E" transform="translate(688,549)"/>
<path d="M0,0 L2,0 L6,10 L9,19 L13,31 L17,51 L17,62 L16,62 L14,49 L11,35 L5,15 L0,2 Z " fill="#ACA5AA" transform="translate(765,361)"/>
<path d="M0,0 L4,2 L10,10 L23,25 L31,33 L34,34 L39,40 L43,43 L43,45 L39,43 L35,40 L35,38 L32,37 L32,35 L28,33 L14,19 L5,8 L0,1 Z " fill="#ADABAA" transform="translate(361,600)"/>
<path d="M0,0 L3,0 L7,6 L17,20 L24,31 L25,36 L27,36 L29,41 L29,44 L31,44 L32,51 L29,47 L22,33 L11,15 L3,5 Z " fill="#B0B0AB" transform="translate(733,310)"/>
<path d="M0,0 L3,1 L-8,9 L-19,18 L-31,29 L-35,34 L-43,41 L-46,43 L-44,39 L-37,31 L-29,24 L-17,13 L-4,3 Z " fill="#CDCACD" transform="translate(421,240)"/>
<path d="M0,0 L2,1 L-4,5 L-6,5 L-6,7 L-12,11 L-22,19 L-33,28 L-34,25 L-26,18 L-22,15 L-20,15 L-20,13 L-5,2 Z " fill="#A7A7A7" transform="translate(447,263)"/>
<path d="M0,0 L1,0 L1,43 L3,70 L1,70 L-2,45 L-1,7 Z " fill="#887F82" transform="translate(314,426)"/>
<path d="M0,0 L1,0 L3,12 L3,57 L2,57 L0,15 Z " fill="#747173" transform="translate(782,417)"/>
<path d="M0,0 L2,0 L1,6 L-4,21 L-9,47 L-10,47 L-10,38 L-8,25 L-5,13 Z " fill="#A8A7A8" transform="translate(358,371)"/>
<path d="M0,0 L2,1 L-3,6 L-11,12 L-26,22 L-30,24 L-34,23 L-21,15 L-10,8 Z " fill="#818183" transform="translate(719,647)"/>
<path d="M0,0 L0,3 L-5,5 L-5,7 L-13,9 L-25,9 L-36,7 L-36,6 L-9,5 Z " fill="#A09D9F" transform="translate(650,520)"/>
<path d="M0,0 L2,3 L6,14 L10,20 L13,25 L23,36 L26,39 L21,37 L11,27 L4,16 L0,5 Z " fill="#A49FA2" transform="translate(551,409)"/>
<path d="M0,0 L4,1 L-2,4 L-15,7 L-32,9 L-43,9 L-43,8 L-22,5 Z " fill="#9F9F9F" transform="translate(625,660)"/>
<path d="M0,0 L10,3 L22,8 L34,14 L42,20 L40,21 L30,15 L20,10 L11,6 L1,2 Z " fill="#ADADAD" transform="translate(648,417)"/>
<path d="M0,0 L5,2 L17,9 L30,18 L34,21 L33,24 L21,15 L13,10 L13,8 L7,6 L0,2 Z " fill="#939193" transform="translate(683,226)"/>
<path d="M0,0 L7,0 L28,9 L36,13 L37,15 L33,14 L20,9 L17,7 L10,5 L6,3 L0,2 Z " fill="#898989" transform="translate(645,211)"/>
<path d="M0,0 L3,1 L12,18 L15,21 L17,26 L25,37 L25,39 L22,38 L15,27 L2,5 Z " fill="#BFBDBC" transform="translate(336,560)"/>
<path d="M0,0 L0,3 L-6,11 L-14,27 L-17,36 L-18,36 L-17,26 L-10,12 L-3,3 Z " fill="#9B9A9F" transform="translate(569,336)"/>
<path d="M0,0 L10,2 L15,5 L20,7 L32,13 L32,15 L36,17 L34,18 L24,12 L1,2 Z " fill="#8F8F8F" transform="translate(641,243)"/>
<path d="M0,0 L8,1 L12,4 L25,8 L33,12 L41,14 L41,16 L31,14 L19,9 L6,4 L0,1 Z " fill="#8D8D8D" transform="translate(586,454)"/>
<path d="M0,0 L0,3 L-4,13 L-7,18 L-11,28 L-14,34 L-16,33 L-14,28 L-9,16 L-1,1 Z " fill="#898688" transform="translate(375,336)"/>
<path d="M0,0 L2,0 L0,4 L-20,24 L-25,27 L-23,23 L-14,14 L-9,9 Z " fill="#282929" transform="translate(398,260)"/>
<path d="M0,0 L2,1 L-1,6 L-12,15 L-15,19 L-18,20 L-22,25 L-26,24 L-16,15 L-8,8 L-4,4 L-2,4 Z " fill="#9E9E9E" transform="translate(723,600)"/>
<path d="M0,0 L1,2 L-6,13 L-15,25 L-19,27 L-17,23 L-5,6 Z " fill="#868686" transform="translate(780,580)"/>
<path d="M0,0 L1,0 L0,9 L-7,29 L-10,33 L-9,26 L-5,13 L-3,13 L-2,4 Z " fill="#8D8D8A" transform="translate(808,513)"/>
<path d="M0,0 L11,0 L14,3 L14,8 L11,11 L11,3 L-19,3 L-19,2 L0,2 Z " fill="#8B8B8B" transform="translate(632,288)"/>
<path d="M0,0 L2,3 L9,14 L17,20 L26,24 L26,25 L19,25 L19,23 L14,22 L5,13 L4,9 L1,8 L-1,1 Z " fill="#B0B0AC" transform="translate(592,501)"/>
<path d="M0,0 L9,2 L20,6 L20,8 L30,10 L39,13 L35,14 L11,6 L0,1 Z " fill="#939293" transform="translate(460,680)"/>
<path d="M0,0 L6,2 L8,3 L8,5 L12,6 L12,8 L18,10 L23,16 L29,21 L26,21 L14,11 L0,1 Z " fill="#A9A9A9" transform="translate(682,264)"/>
<path d="M0,0 L2,0 L3,4 L23,4 L27,1 L26,5 L23,7 L5,7 L0,3 Z " fill="#8D9090" transform="translate(444,543)"/>
<path d="M0,0 L30,0 L30,1 L4,3 L-6,3 L-6,1 Z " fill="#D4D5D4" transform="translate(543,229)"/>
<path d="M0,0 L18,4 L34,10 L31,11 L17,7 L0,2 Z " fill="#C3C3C1" transform="translate(617,201)"/>
<path d="M0,0 L4,4 L10,12 L18,22 L17,24 L10,17 L5,11 L0,4 Z " fill="#999B9A" transform="translate(381,570)"/>
<path d="M0,0 L3,4 L4,8 L6,8 L10,15 L16,22 L19,24 L18,27 L10,19 L4,11 L0,5 Z " fill="#9C9C9C" transform="translate(548,525)"/>
<path d="M0,0 L4,4 L10,19 L11,24 L11,31 L10,31 L8,20 L6,18 L5,10 L3,10 Z " fill="#B7B7B7" transform="translate(703,452)"/>
<path d="M0,0 L1,3 L-2,11 L-6,19 L-8,19 L-10,25 L-13,27 L-11,21 L-6,12 Z " fill="#9A9AA1" transform="translate(766,535)"/>
<path d="M0,0 L7,0 L7,2 L12,3 L20,7 L20,9 L24,11 L23,13 L14,7 L1,2 Z " fill="#B1B1B1" transform="translate(628,470)"/>
<path d="M0,0 L2,1 L8,24 L8,29 L6,27 L2,12 L0,4 Z " fill="#A7A4A5" transform="translate(316,497)"/>
<path d="M0,0 L3,1 L10,9 L20,19 L17,19 L8,11 L1,3 Z " fill="#A0A0A0" transform="translate(399,594)"/>
<path d="M0,0 L4,2 L13,9 L21,19 L21,21 L19,21 L13,13 L2,3 L0,2 Z " fill="#C6C6C6" transform="translate(675,328)"/>
<path d="M0,0 L2,1 L-7,7 L-12,10 L-14,10 L-16,14 L-20,15 L-20,12 Z " fill="#BDBEC1" transform="translate(444,226)"/>
<path d="M0,0 L4,1 L8,4 L10,12 L10,23 L9,23 L8,11 L6,11 L3,4 Z " fill="#898989" transform="translate(652,483)"/>
<path d="M0,0 L1,0 L1,24 L-1,30 L-2,30 L-2,21 Z " fill="#AAA6A9" transform="translate(783,457)"/>
<path d="M0,0 L1,2 L4,3 L4,5 L12,1 L20,0 L17,2 L7,7 L2,6 L0,3 Z " fill="#C7C7C7" transform="translate(661,387)"/>
<path d="M0,0 L1,4 L-1,4 L-3,9 L-8,17 L-13,21 L-11,17 L-1,1 Z " fill="#A9AAB1" transform="translate(752,562)"/>
<path d="M0,0 L7,0 L19,4 L23,7 L16,6 L0,1 Z " fill="#9C9B9C" transform="translate(617,236)"/>
<path d="M0,0 L12,0 L21,1 L21,3 L9,3 L1,2 Z " fill="#878787" transform="translate(527,667)"/>
<path d="M0,0 L5,2 L19,10 L23,14 L17,12 L2,3 Z " fill="#A5A5A5" transform="translate(423,659)"/>
<path d="M0,0 L2,1 L-5,8 L-10,13 L-17,20 L-17,17 L-9,8 L-1,1 Z " fill="#B9B4BA" transform="translate(393,263)"/>
<path d="M0,0 L4,1 L-12,9 L-19,11 L-15,7 L-5,3 Z " fill="#ADACAE" transform="translate(684,671)"/>
<path d="M0,0 L6,2 L20,10 L17,11 L10,8 L10,6 L5,5 L0,2 Z " fill="#9D9D9D" transform="translate(451,638)"/>
<path d="M0,0 L2,1 L8,19 L7,22 L2,9 L0,5 Z " fill="#BFBEBD" transform="translate(799,357)"/>
<path d="M0,0 L2,0 L8,12 L7,17 L5,13 L0,4 Z " fill="#A8A8A8" transform="translate(696,350)"/>
<path d="M0,0 L1,2 L-1,2 L-3,8 L-7,17 L-10,20 L-9,14 L-2,1 Z " fill="#AEADAD" transform="translate(346,324)"/>
<path d="M0,0 L3,3 L3,7 L5,7 L7,12 L7,15 L9,15 L10,22 L7,18 L0,4 Z " fill="#919191" transform="translate(755,339)"/>
<path d="M0,0 L2,1 L-6,12 L-10,18 L-12,15 Z " fill="#B2B1B2" transform="translate(373,283)"/>
<path d="M0,0 L4,1 L-6,6 L-8,6 L-8,8 L-16,8 L-13,6 L-2,1 Z " fill="#A1A1A1" transform="translate(654,649)"/>
<path d="M0,0 L6,1 L14,5 L18,7 L14,8 L0,1 Z " fill="#8A8A8A" transform="translate(575,557)"/>
<path d="M0,0 L5,0 L1,3 L-12,7 L-14,6 L-12,3 Z " fill="#C4C3C1" transform="translate(506,236)"/>
<path d="M0,0 L0,3 L-7,13 L-13,17 L-11,13 L-2,2 Z " fill="#A1A3A2" transform="translate(738,583)"/>
<path d="M0,0 L2,0 L-2,24 L-3,24 L-2,5 Z " fill="#7F7D7E" transform="translate(320,385)"/>
<path d="M0,0 L3,3 L5,9 L4,14 L1,16 L-2,16 L-2,14 L3,13 L0,4 Z " fill="#D5D5D5" transform="translate(703,363)"/>
<path d="M0,0 L0,3 L-6,13 L-10,17 L-7,8 L-2,1 Z " fill="#B0B0B0" transform="translate(384,324)"/>
<path d="M0,0 L3,1 L-2,4 L-8,7 L-15,7 L-13,5 L-2,1 Z " fill="#8E8E8E" transform="translate(491,240)"/>
<path d="M0,0 L9,2 L20,8 L18,9 L10,6 L10,4 L5,3 L0,1 Z " fill="#B9B9B9" transform="translate(655,319)"/>
<path d="M0,0 L1,4 L-4,18 L-5,18 L-4,8 Z " fill="#B3AAAA" transform="translate(556,354)"/>
<path d="M0,0 L1,0 L0,12 L-2,18 L-4,14 L-2,4 L0,4 Z " fill="#747474" transform="translate(782,483)"/>
<path d="M0,0 L4,2 L13,12 L12,14 L8,11 L7,8 L5,7 L5,5 L1,3 Z " fill="#B1ADB1" transform="translate(690,438)"/>
<path d="M0,0 L2,1 L-3,6 L-9,11 L-9,8 L-2,1 Z " fill="#868685" transform="translate(614,360)"/>
<path d="M0,0 L2,2 L2,5 L11,7 L11,9 L0,8 Z " fill="#A2A3A3" transform="translate(643,311)"/>
<path d="M0,0 L4,1 L-6,7 L-10,6 Z " fill="#969697" transform="translate(695,664)"/>
<path d="M0,0 L1,0 L0,9 L-3,18 L-4,18 L-3,9 Z " fill="#B9AEB8" transform="translate(808,513)"/>
<path d="M0,0 L1,0 L1,17 L-3,21 L-7,22 L-2,17 L-1,16 Z " fill="#A4A59B" transform="translate(520,480)"/>
<path d="M0,0 L3,1 L1,1 L0,4 L-2,4 L-2,22 L-3,22 L-3,2 Z " fill="#6F6F70" transform="translate(399,473)"/>
<path d="M0,0 L1,0 L1,13 L-5,13 L-5,11 L-2,10 Z " fill="#9A9595" transform="translate(612,306)"/>
<path d="M0,0 L2,1 L-8,5 L-17,6 L-15,4 L-10,2 Z " fill="#8A8A8A" transform="translate(484,210)"/>
<path d="M0,0 L2,1 L-1,6 L-9,12 L-8,8 L-4,4 L-2,4 Z " fill="#85858A" transform="translate(723,600)"/>
<path d="M0,0 L3,1 L4,5 L4,17 L3,17 L0,4 Z " fill="#868585" transform="translate(805,377)"/>
<path d="M0,0 L5,5 L11,12 L10,14 L3,7 L0,2 Z " fill="#BFBFBF" transform="translate(388,580)"/>
<path d="M0,0 L2,0 L-1,9 L-4,15 L-5,11 Z " fill="#A1A19E" transform="translate(796,547)"/>
<path d="M0,0 L2,0 L3,4 L6,5 L19,6 L19,7 L5,7 L0,3 Z " fill="#B9B8BA" transform="translate(444,543)"/>
<path d="M0,0 L6,1 L19,5 L19,7 L9,5 L0,1 Z " fill="#ACACAC" transform="translate(608,463)"/>
<path d="M0,0 L6,1 L11,3 L11,5 L14,6 L12,7 L0,1 Z " fill="#868686" transform="translate(446,673)"/>
<path d="M0,0 L2,0 L7,6 L11,9 L11,11 L7,9 L3,6 L3,4 L0,3 Z " fill="#949392" transform="translate(393,634)"/>
<path d="M0,0 L2,1 L-3,7 L-8,10 L-10,9 L-6,5 L-2,2 L0,2 Z " fill="#9E9E9E" transform="translate(688,549)"/>
<path d="M0,0 L2,1 L-9,10 L-10,7 L-4,2 Z " fill="#BABAB0" transform="translate(423,281)"/>
<path d="M0,0 L5,2 L15,8 L13,9 L0,2 Z " fill="#B8B8B6" transform="translate(683,226)"/>
<path d="M0,0 L2,1 L6,8 L6,12 L8,12 L7,14 L4,11 L0,2 Z " fill="#969696" transform="translate(331,547)"/>
<path d="M0,0 L0,3 L-7,10 L-9,9 L-3,1 Z " fill="#BABABA" transform="translate(698,541)"/>
<path d="M0,0 L1,4 L3,4 L3,16 L1,13 Z " fill="#959595" transform="translate(813,412)"/>
<path d="M0,0 L4,5 L6,10 L5,13 L5,11 L3,11 L0,4 Z " fill="#959595" transform="translate(657,376)"/>
<path d="M0,0 L1,3 L-4,13 L-6,12 L-4,7 L-2,1 Z " fill="#A0A0A0" transform="translate(365,357)"/>
<path d="M0,0 L2,1 L-1,4 L-10,10 L-12,9 L-3,2 Z " fill="#BEBEC1" transform="translate(582,326)"/>
<path d="M0,0 L10,2 L13,5 L6,4 L0,1 Z " fill="#797979" transform="translate(641,243)"/>
<path d="M0,0 L7,0 L7,2 L12,3 L8,5 L0,1 Z " fill="#7F7F7F" transform="translate(628,470)"/>
<path d="M0,0 L2,1 L-7,11 L-7,8 L-4,3 Z " fill="#353535" transform="translate(574,333)"/>
<path d="M0,0 L1,3 L-4,8 L-7,11 L-7,7 L-5,7 L-4,4 L-2,4 Z " fill="#888687" transform="translate(412,289)"/>
<path d="M0,0 L1,2 L-5,11 L-6,7 Z " fill="#A8ABA9" transform="translate(780,580)"/>
<path d="M0,0 L1,3 L-2,11 L-5,12 L-3,6 Z " fill="#999595" transform="translate(766,535)"/>
<path d="M0,0 L3,1 L-1,5 L-8,6 L-5,3 Z " fill="#A2A2A2" transform="translate(666,643)"/>
<path d="M0,0 L6,2 L8,4 L8,7 L5,7 L0,2 Z " fill="#7B7B7B" transform="translate(416,613)"/>
<path d="M0,0 L3,1 L-3,6 L-9,8 L-4,3 L-2,3 L-2,1 Z " fill="#9E9D9E" transform="translate(429,275)"/>
<path d="M0,0 L1,4 L1,14 L-2,18 L-1,2 Z " fill="#777776" transform="translate(348,405)"/>
<path d="M0,0 L16,0 L18,2 L13,3 L12,2 L0,1 Z " fill="#686868" transform="translate(621,357)"/>
<path d="M0,0 L4,2 L6,8 L4,10 L0,2 Z " fill="#747474" transform="translate(794,349)"/>
<path d="M0,0 L2,0 L3,7 L0,10 Z " fill="#B0AFB0" transform="translate(643,289)"/>
<path d="M0,0 L3,1 L-5,8 L-7,7 L-2,2 Z " fill="#A3A3A4" transform="translate(727,641)"/>
<path d="M0,0 L3,1 L10,9 L7,9 L2,4 Z " fill="#CBCBCB" transform="translate(399,594)"/>
<path d="M0,0 L2,1 L-2,5 L-8,7 L-7,4 Z " fill="#8D8D8D" transform="translate(678,556)"/>
<path d="M0,0 L4,2 L10,7 L9,9 L0,2 Z " fill="#B6B6B6" transform="translate(675,328)"/>
<path d="M0,0 L2,1 L-4,5 L-10,6 L-7,3 Z " fill="#A2A2B1" transform="translate(465,216)"/>
<path d="M0,0 L4,5 L7,9 L7,11 L4,10 L0,4 Z " fill="#9E9E9D" transform="translate(354,588)"/>
<path d="M0,0 L4,4 L7,9 L6,11 L2,6 L0,3 Z " fill="#BDBDBD" transform="translate(374,559)"/>
<path d="M0,0 L3,1 L8,10 L5,9 L5,7 L2,6 Z " fill="#B5B5B5" transform="translate(775,312)"/>
<path d="M0,0 L2,0 L8,9 L4,8 L0,2 Z " fill="#7E7E7D" transform="translate(727,301)"/>
<path d="M0,0 L2,0 L2,2 L10,2 L10,3 L-3,3 L-4,1 Z " fill="#393939" transform="translate(585,197)"/>
<path d="M0,0 L3,1 L1,1 L1,3 L-8,4 L-6,2 Z " fill="#7D7D7D" transform="translate(640,689)"/>
<path d="M0,0 L2,1 L-3,6 L-6,8 L-5,4 Z " fill="#8C8C8C" transform="translate(719,647)"/>
<path d="M0,0 L2,2 L4,10 L1,9 L-1,3 Z " fill="#6C6C6C" transform="translate(329,538)"/>
<path d="M0,0 L2,0 L1,5 L-4,8 L-2,3 Z " fill="#8C8C8C" transform="translate(701,534)"/>
<path d="M0,0 L4,1 L-3,4 L-9,4 L-6,2 Z " fill="#9F9F9F" transform="translate(677,387)"/>
<path d="M0,0 L1,2 L-3,9 L-4,5 L-2,1 Z " fill="#8B898B" transform="translate(340,335)"/>
<path d="M0,0 L4,1 L-4,4 L-8,3 L-6,3 L-6,1 Z " fill="#A5A5A5" transform="translate(649,687)"/>
<path d="M0,0 L0,3 L-5,9 L-6,6 L-2,1 Z " fill="#AEAEAE" transform="translate(762,606)"/>
<path d="M0,0 L3,3 L6,8 L5,10 L2,8 Z " fill="#B5B5B3" transform="translate(368,548)"/>
<path d="M0,0 L1,4 L-1,10 L-2,10 L-2,1 Z " fill="#C6C7C6" transform="translate(811,503)"/>
<path d="M0,0 L1,0 L2,9 L3,13 L1,14 L0,12 Z " fill="#7B7A7B" transform="translate(643,299)"/>
<path d="M0,0 L5,1 L5,3 L9,5 L7,6 L0,2 Z " fill="#808080" transform="translate(668,255)"/>
<path d="M0,0 L6,2 L8,6 L3,4 L0,2 Z " fill="#969695" transform="translate(451,638)"/>
<path d="M0,0 L1,0 L0,7 L-3,11 L-1,2 Z " fill="#8D8D8D" transform="translate(790,559)"/>
<path d="M0,0 L3,4 L4,8 L6,8 L5,10 L0,5 Z " fill="#8B8B8B" transform="translate(548,525)"/>
<path d="M0,0 L1,3 L4,3 L4,11 L2,7 L0,4 Z " fill="#6A6A6A" transform="translate(356,523)"/>
<path d="M0,0 L4,1 L9,6 L4,4 Z " fill="#A3A3A3" transform="translate(577,448)"/>
<path d="M0,0 L2,0 L2,3 L-7,4 L-5,2 Z " fill="#989898" transform="translate(699,377)"/>
<path d="M0,0 L2,3 L3,6 L1,10 L-2,1 Z " fill="#6C6C6D" transform="translate(701,357)"/>
<path d="M0,0 L8,5 L5,6 L-2,2 Z " fill="#A3A3A2" transform="translate(698,234)"/>
<path d="M0,0 L9,3 L11,6 L7,5 L0,1 Z " fill="#C0C0C0" transform="translate(671,220)"/>
<path d="M0,0 L5,2 L9,6 L3,4 L0,1 Z " fill="#8B8B8B" transform="translate(437,667)"/>
<path d="M0,0 L1,3 L-3,7 L-5,7 L-3,3 Z " fill="#888889" transform="translate(755,613)"/>
<path d="M0,0 L4,2 L8,5 L7,8 L0,1 Z " fill="#A9A9A9" transform="translate(559,544)"/>
<path d="M0,0 L2,3 L-1,11 L-2,11 L-2,5 Z " fill="#B8B7B7" transform="translate(709,518)"/>
<path d="M0,0 L1,3 L-4,8 L-6,7 Z " fill="#CBCCCF" transform="translate(657,512)"/>
<path d="M0,0 L4,1 L6,6 L4,8 L0,2 Z " fill="#888888" transform="translate(780,321)"/>
<path d="M0,0 L2,0 L0,4 L-4,7 L-3,3 Z " fill="#B7B7B7" transform="translate(403,299)"/>
<path d="M0,0 L5,1 L8,4 L5,5 Z " fill="#8A8A82" transform="translate(693,272)"/>
<path d="M0,0 L4,1 L1,4 L-3,3 Z " fill="#646465" transform="translate(426,237)"/>
<path d="M0,0 L7,2 L6,4 L1,3 L-2,1 Z " fill="#999999" transform="translate(633,205)"/>
</svg>
