<?xml version="1.0" encoding="UTF-8"?>
<svg
  xmlns="http://www.w3.org/2000/svg"
  viewBox="0 0 1344 768"
  width="100%"
  height="100%"
  preserveAspectRatio="xMidYMid meet"
>
<path d="M0,0 L5,1 L6,21 L15,28 L16,31 L15,33 L14,47 L19,48 L23,45 L23,37 L27,31 L27,24 L31,19 L31,3 L32,0 L37,0 L38,12 L42,10 L46,10 L46,20 L43,25 L42,32 L45,36 L45,45 L50,48 L51,54 L51,62 L49,67 L47,68 L21,68 L18,66 L15,68 L-11,68 L-14,65 L-14,50 L-12,47 L-11,34 L-9,32 L-11,28 L-11,17 L-9,13 L-4,13 L-2,15 L-1,1 Z M39,18 Z M37,19 L39,21 L39,19 Z M0,25 Z M33,25 L33,29 L36,28 L35,25 Z M2,26 Z M32,35 L29,37 L29,44 L32,46 L37,46 L40,42 L39,37 L36,35 Z M-5,37 L-6,39 L-6,46 L9,46 L9,38 L8,37 Z M-8,52 L-8,59 L-5,56 L-5,54 L-1,55 L-2,60 L-3,63 L3,63 L8,55 L12,55 L12,52 Z M23,52 L23,61 L25,60 L27,54 L31,55 L30,60 L29,63 L35,63 L39,56 L39,54 L45,56 L45,52 Z M44,57 L41,63 L45,62 L45,57 Z M11,58 L9,63 L12,63 L12,58 Z " fill="#6A6B6E" transform="translate(63,40)"/>
<path d="M0,0 L5,1 L6,21 L15,28 L16,31 L15,33 L14,47 L17,48 L17,51 L15,51 L15,64 L12,63 L13,51 L-10,52 L-13,51 L-12,47 L-11,34 L-9,32 L-11,28 L-11,17 L-9,13 L-4,13 L-2,15 L-1,1 Z M0,25 Z M2,26 Z M-5,37 L-6,39 L-6,46 L9,46 L9,38 L8,37 Z " fill="#545557" transform="translate(63,40)"/>
<path d="M0,0 L5,0 L6,12 L10,10 L14,10 L14,20 L10,26 L8,26 L7,34 L10,39 L9,45 L5,48 L3,48 L3,46 L7,42 L6,37 L0,36 L-2,37 L-2,44 L1,46 L1,48 L-4,47 L-6,43 L-6,35 L-5,31 L-5,24 L-1,19 L-1,3 Z M7,18 Z M5,19 L7,21 L7,19 Z M1,25 L1,29 L4,28 L3,25 Z " fill="#67686B" transform="translate(95,40)"/>
<path d="M0,0 L1,0 L1,16 L-2,19 L-28,19 L-31,16 L-31,1 L-26,2 L-4,2 L-4,14 L-2,15 L-2,2 L0,2 Z M-25,3 L-25,10 L-22,7 L-22,5 L-18,6 L-19,11 L-20,14 L-14,14 L-9,6 L-5,6 L-5,3 Z M-6,9 L-8,14 L-5,14 L-5,9 Z " fill="#4D4E51" transform="translate(80,89)"/>
<path d="M0,0 L5,1 L6,21 L15,28 L16,31 L15,33 L13,33 L13,36 L11,37 L-7,37 L-6,35 L10,35 L9,33 L5,32 L6,29 L1,29 L0,27 L2,26 L-1,24 L-2,26 L-3,21 L0,21 L3,22 L2,19 L0,19 L-1,16 L-1,1 Z " fill="#6D6F72" transform="translate(63,40)"/>
<path d="M0,0 L1,0 L1,14 L4,15 L4,18 L2,18 L2,31 L-1,30 L0,18 L-23,19 L-26,18 L-25,14 L-22,14 L-22,16 L-20,16 L-19,13 L-5,12 L-5,4 L0,3 Z " fill="#5B5C5F" transform="translate(76,73)"/>
<path d="M0,0 L2,0 L2,6 L5,10 L5,19 L10,22 L11,28 L11,36 L10,36 L9,31 L8,38 L7,38 L7,31 L4,30 L5,26 L-17,26 L-17,25 L-10,24 L-9,22 L-7,22 L-7,20 L-5,20 L-5,22 L0,19 L1,13 L-2,7 Z " fill="#565759" transform="translate(103,66)"/>
<path d="M0,0 L5,0 L6,12 L10,10 L14,10 L14,18 L12,18 L12,13 L10,14 L11,19 L8,22 L7,19 L5,19 L5,22 L2,22 L0,24 L-1,19 L-1,3 Z " fill="#78787B" transform="translate(95,40)"/>
<path d="M0,0 L5,1 L4,6 L3,8 L5,8 L6,3 L9,3 L11,1 L11,12 L8,13 L-9,12 L-8,9 L-4,9 L-2,4 Z " fill="#66696E" transform="translate(102,94)"/>
<path d="M0,0 L5,0 L9,3 L9,6 L11,6 L14,11 L9,9 L7,8 L6,13 L4,11 L4,13 L8,16 L8,19 L10,20 L6,19 L1,13 L0,5 L-2,4 Z " fill="#525357" transform="translate(54,53)"/>
<path d="M0,0 L2,0 L3,2 L6,0 L7,2 L5,2 L3,12 L3,15 L1,16 L1,23 L4,25 L4,27 L-1,26 L-3,22 L-3,14 L-2,10 L-2,3 Z " fill="#585A5C" transform="translate(92,61)"/>
<path d="M0,0 L1,2 L4,3 L4,6 L2,6 L2,19 L-1,18 L0,6 L-23,7 L-26,6 L-25,2 L-22,2 L-22,4 L-20,4 L-19,1 L-16,2 L-17,4 L-1,4 Z " fill="#6E7072" transform="translate(76,85)"/>
<path d="M0,0 L5,1 L27,1 L27,13 L26,13 L26,2 L6,2 L7,10 L2,13 L0,15 Z " fill="#303031" transform="translate(49,90)"/>
<path d="M0,0 L5,1 L4,19 L2,21 L2,19 L0,19 L-1,16 L-1,1 Z " fill="#828086" transform="translate(63,40)"/>
<path d="M0,0 L1,2 L7,2 L9,9 L9,17 L8,17 L7,12 L6,19 L5,19 L5,12 L2,11 L3,7 L-19,7 L-19,6 L5,6 L5,4 L-1,4 Z " fill="#3F3F40" transform="translate(105,85)"/>
<path d="M0,0 L1,0 L2,13 L11,20 L12,23 L10,23 L10,21 L3,20 L-4,20 L-2,18 L-5,16 L-6,18 L-7,13 L-4,13 L-1,14 Z " fill="#777879" transform="translate(67,48)"/>
<path d="M0,0 L2,3 L5,3 L5,5 L21,6 L21,8 L-5,8 L-8,5 L-2,3 Z " fill="#4E4F50" transform="translate(89,100)"/>
<path d="M0,0 L5,1 L4,6 L1,10 L-7,13 L-8,9 L-3,6 Z " fill="#63676A" transform="translate(58,94)"/>
<path d="M0,0 L4,1 L3,7 L1,11 L-3,11 L-7,12 L-9,9 L-5,9 L-3,4 Z " fill="#55575C" transform="translate(71,94)"/>
<path d="M0,0 L4,2 L4,9 L2,13 L0,13 L0,11 L-2,11 L-2,4 Z " fill="#616266" transform="translate(54,76)"/>
<path d="M0,0 L1,0 L1,11 L-2,12 L-9,10 L-9,8 L-5,7 L-4,2 L-1,2 Z " fill="#7B7C7D" transform="translate(112,95)"/>
<path d="M0,0 L5,1 L4,6 L1,10 L-1,9 L-1,7 L-3,10 L-5,9 Z " fill="#7B7C80" transform="translate(90,94)"/>
<path d="M0,0 L4,1 L9,3 L6,5 L-7,5 L-7,3 Z " fill="#515153" transform="translate(59,103)"/>
<path d="M0,0 L1,0 L1,16 L-2,15 L-2,2 L0,2 Z " fill="#303031" transform="translate(80,89)"/>
<path d="M0,0 L1,2 L3,2 L4,5 L8,7 L-6,7 L-5,4 L-1,4 Z " fill="#5F6163" transform="translate(99,99)"/>
<path d="M0,0 L3,1 L3,4 L1,4 L2,9 L6,12 L6,15 L8,16 L4,15 L-1,9 L-1,2 Z " fill="#707175" transform="translate(56,57)"/>
<path d="M0,0 L1,3 L-1,3 L-1,15 L1,16 L-3,16 L-3,2 Z " fill="#5D5D61" transform="translate(99,40)"/>
<path d="M0,0 L2,0 L2,5 L4,5 L2,11 L-1,11 L-4,15 L-3,10 L0,6 L1,2 L-1,1 Z " fill="#505154" transform="translate(105,53)"/>
<path d="M0,0 L3,0 L4,6 L7,8 L7,10 L2,9 L0,5 Z " fill="#606163" transform="translate(89,78)"/>
<path d="M0,0 L3,1 L2,3 L6,4 L-7,5 L-6,1 L-3,1 L-3,3 L-1,3 Z " fill="#666668" transform="translate(57,86)"/>
<path d="M0,0 L5,1 L4,19 L3,19 L3,2 L0,1 Z " fill="#9C9C9D" transform="translate(63,40)"/>
<path d="M0,0 L4,4 L3,10 L-1,13 L-3,13 L-3,11 L1,7 Z " fill="#747678" transform="translate(101,75)"/>
<path d="M0,0 L2,0 L3,2 L6,0 L7,2 L5,2 L4,8 L1,8 L1,3 L-1,3 Z " fill="#525457" transform="translate(92,61)"/>
<path d="M0,0 L1,3 L-2,8 L-7,7 L-8,5 L-2,3 Z " fill="#54575D" transform="translate(89,100)"/>
<path d="M0,0 L2,1 L-2,8 L-5,9 L-6,5 L-1,2 Z " fill="#797A7D" transform="translate(56,98)"/>
<path d="M0,0 L2,0 L2,10 L5,11 L0,12 Z " fill="#A9A9AB" transform="translate(98,43)"/>
<path d="M0,0 L1,3 L3,4 L1,8 L-1,8 L-1,6 L-3,6 L-2,2 Z " fill="#4D4E53" transform="translate(55,81)"/>
<path d="M0,0 L3,1 L2,4 L-5,5 L-3,1 Z " fill="#68696A" transform="translate(87,85)"/>
<path d="M0,0 L7,0 L8,3 L-1,3 Z " fill="#494A4B" transform="translate(60,86)"/>
<path d="M0,0 L1,4 L-1,8 L-5,6 L-5,4 Z " fill="#606062" transform="translate(102,59)"/>
<path d="M0,0 L5,0 L9,3 L8,6 L2,2 L0,5 L-2,4 Z " fill="#757578" transform="translate(54,53)"/>
<path d="M0,0 L4,1 L10,6 L10,8 L8,8 L8,6 L4,4 Z " fill="#838486" transform="translate(69,63)"/>
<path d="M0,0 L4,1 L3,6 L1,5 L2,2 L0,2 L-1,6 L-2,2 Z " fill="#74717B" transform="translate(71,94)"/>
<path d="M0,0 L4,0 L4,8 L2,8 L2,3 L0,3 Z " fill="#6F7071" transform="translate(105,50)"/>
<path d="M0,0 L2,0 L2,7 L-5,7 L-1,5 Z " fill="#898A8E" transform="translate(108,97)"/>
<path d="M0,0 L1,2 L7,2 L8,4 L-1,4 Z " fill="#68696E" transform="translate(105,85)"/>
<path d="M0,0 L3,0 L1,4 L-3,3 L-4,1 Z " fill="#77777A" transform="translate(66,102)"/>
<path d="M0,0 L3,0 L3,6 L0,6 Z " fill="#5F6366" transform="translate(90,64)"/>
<path d="M0,0 L2,1 L-2,3 L-2,5 L-6,3 L-4,1 Z " fill="#535558" transform="translate(100,55)"/>
<path d="M0,0 L4,0 L5,4 L8,5 L6,7 L3,3 L0,2 Z " fill="#4D4E51" transform="translate(86,83)"/>
<path d="M0,0 L4,0 L3,6 L1,3 L-2,2 Z " fill="#898A8C" transform="translate(101,56)"/>
</svg>
