<?xml version="1.0" encoding="UTF-8"?>
<svg
  xmlns="http://www.w3.org/2000/svg"
  viewBox="0 0 24 24"
  preserveAspectRatio="xMidYMid meet"
>
<path d="M0,0 L21,0 L25,1 L28,5 L28,50 L35,46 L53,36 L65,30 L71,27 L77,27 L80,29 L81,32 L82,49 L98,40 L104,37 L120,28 L123,27 L130,27 L133,30 L133,116 L129,121 L121,124 L5,124 L-3,121 L-7,116 L-8,113 L-8,7 L-4,1 Z " fill="#1C2F4F" transform="translate(56,46)"/>
<path d="M0,0 L21,0 L20,2 L2,2 L-3,3 L-4,11 L-4,116 L-7,116 L-8,113 L-8,7 L-4,1 Z " fill="#1B1D2E" transform="translate(56,46)"/>
<path d="M0,0 L21,0 L20,2 L2,2 L-4,5 L-6,4 L-4,1 Z " fill="#1C2439" transform="translate(56,46)"/>
<path d="M0,0 L0,3 L-4,7 L-12,7 L-9,5 Z " fill="#182438" transform="translate(100,87)"/>
<path d="M0,0 L7,0 L3,2 L-3,4 L-5,4 L-6,7 L-8,4 Z " fill="#192435" transform="translate(179,73)"/>
<path d="M0,0 L2,0 L2,2 L-4,6 L-9,6 L-7,4 L-1,1 Z " fill="#1B2235" transform="translate(161,82)"/>
</svg>
