<?xml version="1.0" encoding="UTF-8"?>
<svg
  xmlns="http://www.w3.org/2000/svg"
  viewBox="0 0 1344 768"
  width="100%"
  height="100%"
  preserveAspectRatio="xMidYMid meet"
>
<path d="M0,0 L116,0 L121,2 L121,4 L125,5 L129,13 L129,95 L126,101 L119,107 L113,108 L7,108 L-3,107 L-11,100 L-13,97 L-13,11 L-6,3 Z M5,16 L3,17 L4,21 L17,31 L29,40 L45,52 L54,59 L61,59 L72,51 L85,41 L101,29 L113,20 L112,16 Z M3,41 L3,91 L4,92 L112,92 L113,91 L113,41 L109,43 L93,55 L80,65 L70,72 L65,74 L51,74 L44,71 L31,61 L15,49 L4,41 Z " fill="#213252" transform="translate(94,60)"/>
<path d="M0,0 L6,3 L13,8 L13,11 L9,9 L3,5 L3,54 L111,54 L112,4 L93,18 L83,26 L81,26 L82,23 L95,13 L99,12 L100,9 L108,3 L114,1 L114,53 L111,57 L2,57 L0,54 Z " fill="#6D7281" transform="translate(95,97)"/>
<path d="M0,0 L108,0 L111,2 L111,7 L107,10 L105,10 L105,12 L93,21 L93,18 L107,7 L109,6 L109,3 L0,3 L1,6 L14,16 L23,23 L22,25 L6,13 L-2,6 L-1,1 Z " fill="#495169" transform="translate(97,74)"/>
<path d="M0,0 L4,0 L3,3 L-6,6 L-10,10 L-11,16 L-11,95 L-5,103 L2,106 L2,107 L-5,106 L-13,97 L-13,11 L-6,3 Z " fill="#5B535B" transform="translate(94,60)"/>
<path d="M0,0 L4,1 L8,9 L8,91 L5,97 L-2,103 L-8,103 L-5,101 L1,98 L6,88 L6,12 L2,4 Z " fill="#395482" transform="translate(215,64)"/>
<path d="M0,0 L6,3 L13,8 L13,11 L9,9 L3,5 L2,55 L0,54 Z " fill="#B1C3CF" transform="translate(95,97)"/>
<path d="M0,0 L56,0 L61,2 L61,4 L56,4 L56,2 L0,2 Z " fill="#284251" transform="translate(154,60)"/>
<path d="M0,0 L0,3 L-11,11 L-14,16 L-23,20 L-26,24 L-33,25 L-28,21 L-12,9 Z " fill="#8C8B98" transform="translate(186,95)"/>
<path d="M0,0 L9,0 L9,1 L1,2 L2,5 L15,15 L24,22 L23,24 L7,12 L-1,5 Z " fill="#899DB5" transform="translate(96,75)"/>
<path d="M0,0 L9,6 L19,14 L29,21 L26,22 L20,18 L17,15 L12,13 L12,10 L7,8 L0,2 Z " fill="#6B7BA2" transform="translate(121,98)"/>
<path d="M0,0 L3,1 L-10,11 L-23,21 L-25,21 L-24,18 L-11,8 L-7,7 L-6,4 Z " fill="#849EB8" transform="translate(201,102)"/>
<path d="M0,0 L2,0 L2,22 L1,22 L0,12 L0,3 L-5,4 L-3,1 Z " fill="#877A7E" transform="translate(207,98)"/>
<path d="M0,0 L4,1 L-4,7 L-8,13 L-9,13 L-9,7 L-3,1 Z " fill="#2A334A" transform="translate(92,63)"/>
<path d="M0,0 L2,0 L2,5 L-2,8 L-4,8 L-4,10 L-16,19 L-16,16 L-2,5 L0,4 Z " fill="#93929C" transform="translate(206,76)"/>
<path d="M0,0 L24,0 L29,2 L29,4 L24,4 L24,2 L0,1 Z " fill="#556A8C" transform="translate(186,60)"/>
<path d="M0,0 L2,0 L0,7 L-8,14 L-14,14 L-11,12 L-5,9 Z " fill="#7580A8" transform="translate(221,153)"/>
<path d="M0,0 L5,1 L6,3 L9,4 L12,7 L16,10 L16,12 L11,10 L0,1 Z " fill="#7D7F8B" transform="translate(108,108)"/>
<path d="M0,0 L4,0 L3,3 L-6,6 L-12,11 L-10,7 L-3,1 Z " fill="#7E808C" transform="translate(94,60)"/>
<path d="M0,0 L4,1 L8,9 L8,16 L6,12 L2,4 Z " fill="#5C7294" transform="translate(215,64)"/>
<path d="M0,0 L9,6 L15,11 L12,11 L6,7 L0,2 Z " fill="#95A9BE" transform="translate(121,98)"/>
<path d="M0,0 L5,1 L10,6 L13,10 L9,8 L0,1 Z " fill="#7F7F8D" transform="translate(124,120)"/>
<path d="M0,0 L2,0 L0,4 L-8,10 L-10,10 L-9,7 Z " fill="#7F93AB" transform="translate(186,113)"/>
<path d="M0,0 L9,0 L9,1 L1,2 L2,5 L4,7 L0,6 L-1,1 Z " fill="#A2B1C5" transform="translate(96,75)"/>
<path d="M0,0 L5,1 L11,3 L11,5 L4,4 Z " fill="#757681" transform="translate(137,130)"/>
<path d="M0,0 L3,1 L-6,8 L-8,8 L-8,6 Z " fill="#7E8FB3" transform="translate(172,124)"/>
<path d="M0,0 L1,0 L0,7 L-2,9 L-6,9 L-6,7 L-1,4 Z " fill="#3A4255" transform="translate(208,77)"/>
<path d="M0,0 L2,0 L0,7 L-4,9 L-2,4 Z " fill="#6580A6" transform="translate(221,153)"/>
<path d="M0,0 L2,4 L-4,6 L-4,3 Z " fill="#5E606C" transform="translate(171,106)"/>
<path d="M0,0 L5,2 L6,6 L2,4 L0,3 Z " fill="#636775" transform="translate(102,102)"/>
<path d="M0,0 L6,3 L7,7 L1,4 Z " fill="#7F859B" transform="translate(95,97)"/>
<path d="M0,0 L4,1 L9,5 L8,7 L0,1 Z " fill="#7E8DA9" transform="translate(111,92)"/>
<path d="M0,0 L2,0 L2,2 L-4,7 L-6,6 L-1,1 Z " fill="#31394C" transform="translate(166,112)"/>
<path d="M0,0 L5,1 L6,3 L9,5 L6,6 L0,1 Z " fill="#646771" transform="translate(108,108)"/>
<path d="M0,0 L2,0 L2,6 L0,3 L-5,4 L-3,1 Z " fill="#646D90" transform="translate(207,98)"/>
</svg>
