<?xml version="1.0" encoding="UTF-8"?>
<svg
  xmlns="http://www.w3.org/2000/svg"
  viewBox="0 0 1344 768"
  width="100%"
  height="100%"
  preserveAspectRatio="xMidYMid meet"
>
<path d="M0,0 L20,0 L33,5 L35,6 L35,11 L29,17 L27,17 L25,21 L-3,49 L-10,53 L-23,53 L-32,47 L-36,39 L-36,30 L-32,22 L-28,17 L-20,10 L-11,4 Z " fill="#1E3150" transform="translate(165,70)"/>
<path d="M0,0 L50,0 L51,4 L22,33 L16,36 L4,36 L-4,31 L-8,25 L-9,22 L-9,12 L-5,4 Z " fill="#1E304F" transform="translate(112,188)"/>
<path d="M0,0 L7,1 L6,5 L-15,26 L-67,26 L-66,21 L-46,1 Z " fill="#1D304F" transform="translate(196,148)"/>
<path d="M0,0 L5,1 L9,9 L11,16 L11,34 L8,43 L7,44 L-40,44 L-40,40 Z " fill="#1E3150" transform="translate(209,90)"/>
<path d="M0,0 L50,0 L51,4 L22,33 L16,36 L4,36 L-4,31 L-8,25 L-9,22 L-9,12 L-5,4 Z M-1,2 L-4,5 L-4,7 L-6,7 L-7,20 L-6,23 L-4,23 L-2,28 L0,29 L1,32 L7,34 L18,33 L28,24 L34,19 L40,12 L45,7 L49,4 L49,2 Z " fill="#697887" transform="translate(112,188)"/>
<path d="M0,0 L6,1 L5,5 L-16,26 L-68,26 L-67,21 L-60,14 L-60,17 L-64,21 L-65,24 L-16,24 L-14,20 L1,5 L3,5 L3,1 Z " fill="#737B8C" transform="translate(197,148)"/>
<path d="M0,0 L20,0 L33,5 L35,6 L35,11 L31,13 L32,7 L23,4 L17,3 L3,3 L-6,5 L-12,8 L-16,13 L-23,16 L-26,18 L-24,14 L-15,6 L-4,1 Z " fill="#61687E" transform="translate(165,70)"/>
<path d="M0,0 L12,0 L11,2 L2,3 L-1,6 L-6,9 L-10,16 L-15,21 L31,22 L31,23 L-18,23 L-17,19 L-13,15 L-10,10 Z " fill="#34435B" transform="translate(150,149)"/>
<path d="M0,0 L1,0 L1,16 L3,16 L5,21 L8,22 L8,25 L20,27 L20,28 L11,29 L3,24 L-1,18 L-2,15 L-2,5 Z " fill="#5B5B64" transform="translate(105,195)"/>
<path d="M0,0 L5,1 L9,9 L11,16 L11,34 L8,43 L6,44 L7,38 L9,32 L9,19 L7,11 L4,7 L3,1 L-2,3 Z " fill="#7198B8" transform="translate(209,90)"/>
<path d="M0,0 L1,4 L-2,8 L-5,9 L-8,14 L-13,19 L-9,20 L-16,20 L-16,16 Z " fill="#4E505E" transform="translate(185,114)"/>
<path d="M0,0 L3,1 L-1,3 L-3,7 L-22,26 L-23,23 L-16,16 L-9,8 L-6,8 L-4,4 Z " fill="#5F84AB" transform="translate(193,84)"/>
<path d="M0,0 L6,1 L5,5 L-15,25 L-16,22 L1,5 L3,5 L3,1 Z " fill="#587692" transform="translate(197,148)"/>
<path d="M0,0 L1,3 L-3,7 L-5,7 L-6,12 L-13,18 L-18,21 L-20,20 Z " fill="#5A5A67" transform="translate(206,93)"/>
<path d="M0,0 L2,1 L-2,6 L-2,19 L0,28 L-4,24 L-6,19 L-6,10 L-2,2 Z " fill="#747277" transform="translate(135,90)"/>
<path d="M0,0 L12,0 L11,2 L2,3 L-1,6 L-6,9 L-10,13 L-12,12 Z " fill="#545968" transform="translate(150,149)"/>
<path d="M0,0 L3,1 L-5,8 L-9,10 L-22,10 L-28,6 L-25,6 L-20,8 L-11,8 L-6,7 L-5,4 Z " fill="#8890A0" transform="translate(164,113)"/>
<path d="M0,0 L8,1 L17,5 L17,10 L13,12 L14,6 L5,3 L0,1 Z " fill="#668094" transform="translate(183,71)"/>
<path d="M0,0 L3,1 L-4,7 L-7,8 L-18,8 L-18,7 L-10,7 L-10,5 L-4,3 Z " fill="#7894A4" transform="translate(135,216)"/>
<path d="M0,0 L1,2 L0,5 L-5,9 L-7,9 L-7,14 L-9,14 L-8,8 L-5,5 L-5,2 Z " fill="#383E54" transform="translate(141,86)"/>
<path d="M0,0 L4,2 L6,6 L20,9 L20,10 L11,11 L3,6 L0,2 Z " fill="#666B75" transform="translate(105,213)"/>
<path d="M0,0 L5,0 L2,5 L-5,8 L-8,10 L-6,6 Z " fill="#575A6C" transform="translate(147,78)"/>
<path d="M0,0 L6,1 L5,5 L-3,13 L-4,10 L1,5 L3,5 L3,1 Z " fill="#758EA9" transform="translate(197,148)"/>
<path d="M0,0 L0,3 L-8,12 L-10,12 L-8,8 L-4,3 Z " fill="#353A4E" transform="translate(142,159)"/>
<path d="M0,0 L5,1 L7,4 L7,10 L4,7 L3,1 L-2,3 Z " fill="#5D768E" transform="translate(209,90)"/>
<path d="M0,0 L1,3 L-5,9 L-8,8 L-4,6 L-2,2 Z " fill="#5C7194" transform="translate(158,193)"/>
<path d="M0,0 L3,1 L-4,8 L-5,5 Z " fill="#9DACBE" transform="translate(175,102)"/>
<path d="M0,0 L3,1 L-2,6 L-6,5 Z " fill="#6F9BAF" transform="translate(164,113)"/>
<path d="M0,0 L3,1 L-1,3 L-3,7 L-5,5 Z " fill="#3C6477" transform="translate(193,84)"/>
<path d="M0,0 L1,3 L-3,7 L-6,6 L-1,1 Z " fill="#31394B" transform="translate(190,111)"/>
<path d="M0,0 L3,0 L5,9 L1,5 Z " fill="#8E8C90" transform="translate(130,109)"/>
<path d="M0,0 L1,3 L-3,7 L-6,6 Z " fill="#696A85" transform="translate(206,93)"/>
<path d="M0,0 L1,3 L-3,7 L-6,6 Z " fill="#698096" transform="translate(142,209)"/>
<path d="M0,0 L1,3 L-7,9 L-5,5 Z " fill="#95959A" transform="translate(175,124)"/>
</svg>
