<?xml version="1.0" encoding="UTF-8"?>
<svg
  xmlns="http://www.w3.org/2000/svg"
  viewBox="0 0 1344 768"
  width="100%"
  height="100%"
  preserveAspectRatio="xMidYMid meet"
>
<path d="M0,0 L6,1 L14,8 L26,19 L32,24 L37,29 L44,36 L52,43 L57,47 L62,52 L71,61 L73,65 L72,71 L67,76 L60,77 L59,127 L57,133 L52,139 L47,141 L39,142 L-16,142 L-43,141 L-51,137 L-55,129 L-56,126 L-56,77 L-65,75 L-69,70 L-69,63 L-63,56 L-55,49 L-40,35 L-35,30 L-25,21 L-15,12 L-6,3 Z M-6,89 L-12,93 L-15,98 L-15,127 L18,127 L18,97 L15,92 L9,89 Z " fill="#1B2E4E" transform="translate(164,58)"/>
<path d="M0,0 L1,2 L-2,7 L-8,9 L-2,2 Z " fill="#151B35" transform="translate(112,104)"/>
<path d="M0,0 L2,0 L1,4 L3,4 L3,10 L0,7 Z " fill="#212536" transform="translate(95,121)"/>
</svg>
