<?xml version="1.0" encoding="UTF-8"?>
<svg
  xmlns="http://www.w3.org/2000/svg"
  viewBox="0 0 24 24"
  preserveAspectRatio="xMidYMid meet"
>
<path d="M0,0 L7,0 L12,4 L14,9 L14,133 L11,141 L8,143 L-1,143 L-6,138 L-7,134 L-7,99 L-20,99 L-28,94 L-32,88 L-33,84 L-33,43 L-30,28 L-25,18 L-17,9 L-7,3 Z " fill="#1E3150" transform="translate(200,53)"/>
<path d="M0,0 L6,0 L9,3 L11,19 L13,43 L15,43 L17,24 L19,4 L22,0 L28,0 L31,4 L35,43 L37,44 L40,9 L42,2 L44,0 L50,0 L53,3 L56,35 L57,42 L57,53 L53,63 L44,71 L35,73 L35,138 L30,143 L20,143 L15,137 L15,73 L6,71 L-2,64 L-5,60 L-7,53 L-7,43 L-4,9 L-2,2 Z " fill="#1E3150" transform="translate(91,53)"/>
<path d="M0,0 L5,0 L2,2 L-1,2 L-1,67 L-6,72 L-16,72 L-21,66 L-22,1 L-19,1 L-18,67 L-16,69 L-5,68 L-4,65 L-3,1 Z " fill="#526176" transform="translate(127,124)"/>
<path d="M0,0 L3,3 L4,6 L4,130 L1,138 L0,135 L1,129 L1,7 Z " fill="#92B5C9" transform="translate(210,56)"/>
<path d="M0,0 L9,2 L11,4 L24,5 L25,44 L27,49 L39,49 L37,51 L28,51 L23,46 L22,42 L22,7 L9,7 L1,2 Z " fill="#818189" transform="translate(171,145)"/>
<path d="M0,0 L5,0 L8,4 L12,43 L14,44 L15,31 L17,31 L17,42 L15,45 L9,44 L7,34 L6,9 L4,2 Z " fill="#536D8C" transform="translate(114,53)"/>
<path d="M0,0 L1,0 L1,13 L0,19 L-1,36 L-5,37 L-2,3 Z " fill="#6C666F" transform="translate(112,54)"/>
<path d="M0,0 L2,1 L-8,9 L-15,17 L-17,22 L-21,25 L-22,22 L-16,13 L-10,6 Z " fill="#4C4C5B" transform="translate(193,56)"/>
<path d="M0,0 L6,0 L7,2 L1,3 L-1,25 L-4,22 L-4,9 L-2,2 Z " fill="#474753" transform="translate(91,53)"/>
<path d="M0,0 L2,0 L8,11 L12,15 L19,19 L15,20 L9,17 L2,10 L0,5 Z " fill="#5D5C6D" transform="translate(85,105)"/>
<path d="M0,0 L1,2 L0,9 L-1,26 L-3,26 L-4,29 L-4,19 L-2,2 Z " fill="#757076" transform="translate(134,54)"/>
<path d="M0,0 L1,0 L2,42 L6,49 L5,51 L1,48 L0,43 Z " fill="#2E3144" transform="translate(169,96)"/>
<path d="M0,0 L1,0 L3,16 L3,27 L0,34 L-2,33 L-2,30 L0,30 Z " fill="#496B8E" transform="translate(145,79)"/>
<path d="M0,0 L2,1 L4,17 L4,30 L2,29 L1,19 Z " fill="#4C6992" transform="translate(98,55)"/>
<path d="M0,0 L2,2 L2,12 L0,28 L-2,28 L-1,9 Z " fill="#59535B" transform="translate(86,76)"/>
<path d="M0,0 L5,0 L8,3 L9,16 L9,26 L8,26 L5,8 L4,3 L0,2 Z " fill="#4E688A" transform="translate(136,53)"/>
<path d="M0,0 L1,0 L3,20 L5,21 L6,8 L8,8 L8,19 L6,22 L1,21 L0,11 Z " fill="#636E86" transform="translate(123,76)"/>
<path d="M0,0 L1,0 L1,15 L-3,16 L-2,2 L0,2 Z " fill="#4F4E5B" transform="translate(110,75)"/>
<path d="M0,0 L2,1 L-5,7 L-10,9 L-17,17 L-17,14 L-10,6 Z " fill="#7D808A" transform="translate(193,56)"/>
<path d="M0,0 L9,2 L11,4 L24,5 L24,6 L9,7 L1,2 Z " fill="#4C5464" transform="translate(171,145)"/>
<path d="M0,0 L7,0 L10,3 L-5,3 L-3,1 Z " fill="#6D7985" transform="translate(200,53)"/>
<path d="M0,0 L1,0 L1,9 L-1,9 L-2,12 L-2,2 Z " fill="#5A5663" transform="translate(132,71)"/>
<path d="M0,0 L5,0 L8,3 L8,11 L6,7 L6,3 L0,2 Z " fill="#6F8198" transform="translate(136,53)"/>
<path d="M0,0 L6,0 L7,2 L-1,4 L-2,9 L-3,9 L-3,3 Z " fill="#8C919A" transform="translate(91,53)"/>
<path d="M0,0 L2,1 L1,8 L0,14 L-1,14 L-1,1 Z " fill="#393949" transform="translate(171,80)"/>
<path d="M0,0 L2,1 L3,8 L1,10 L0,7 Z " fill="#495D88" transform="translate(98,55)"/>
</svg>
