<?xml version="1.0" encoding="UTF-8"?>
<svg
  xmlns="http://www.w3.org/2000/svg"
  viewBox="0 0 1344 768"
  width="100%"
  height="100%"
  preserveAspectRatio="xMidYMid meet"
>
<path d="M0,0 L16,0 L27,4 L36,11 L41,16 L49,26 L54,35 L56,39 L56,42 L71,40 L86,38 L118,38 L144,42 L165,49 L174,53 L189,61 L206,73 L216,82 L223,81 L233,74 L247,67 L260,64 L276,64 L287,68 L297,77 L306,88 L319,105 L328,115 L335,120 L347,123 L358,124 L362,128 L362,136 L357,142 L352,146 L350,146 L350,148 L340,155 L329,162 L312,169 L297,172 L277,172 L263,170 L265,178 L266,192 L267,194 L274,197 L282,202 L282,204 L286,206 L293,216 L296,223 L297,230 L297,243 L294,255 L288,265 L280,273 L268,279 L258,281 L244,281 L237,291 L228,302 L223,308 L221,308 L219,312 L213,318 L211,318 L211,320 L193,333 L175,343 L159,349 L145,353 L125,357 L116,358 L94,358 L71,355 L52,350 L38,345 L21,337 L10,330 L1,323 L-9,314 L-17,307 L-26,296 L-33,286 L-37,288 L-43,297 L-46,301 L-48,301 L-50,305 L-54,310 L-56,310 L-56,312 L-64,319 L-79,331 L-100,343 L-111,348 L-131,354 L-149,357 L-157,358 L-182,358 L-202,355 L-221,350 L-233,346 L-245,341 L-267,328 L-277,319 L-286,312 L-293,304 L-301,295 L-305,289 L-309,283 L-323,283 L-335,280 L-343,276 L-350,271 L-357,262 L-361,254 L-363,241 L-362,227 L-359,219 L-353,210 L-348,205 L-342,200 L-332,195 L-331,177 L-328,162 L-325,151 L-322,141 L-314,125 L-307,113 L-299,101 L-297,101 L-295,96 L-291,91 L-286,86 L-282,84 L-282,82 L-271,73 L-262,66 L-254,61 L-243,55 L-224,47 L-203,41 L-191,39 L-179,38 L-154,38 L-132,41 L-119,45 L-105,50 L-89,58 L-72,69 L-67,72 L-77,59 L-84,47 L-91,31 L-92,22 L-90,17 L-88,16 L-79,16 L-71,20 L-68,21 L-51,21 L-37,16 L-21,8 L-7,2 Z M2,16 L-11,21 L-27,29 L-41,35 L-59,38 L-68,38 L-66,43 L-62,51 L-60,51 L-58,56 L-48,67 L-36,76 L-26,81 L-12,84 L-7,81 L-2,76 L6,69 L25,57 L39,50 L40,48 L35,36 L27,25 L14,16 Z M-185,54 L-199,56 L-213,60 L-231,67 L-245,74 L-256,82 L-262,86 L-267,91 L-280,104 L-289,116 L-289,118 L-291,118 L-298,130 L-306,147 L-312,170 L-315,193 L-314,211 L-310,234 L-306,248 L-300,262 L-291,278 L-282,290 L-273,300 L-264,309 L-256,315 L-240,325 L-223,333 L-205,339 L-193,341 L-178,342 L-163,342 L-143,340 L-127,336 L-107,328 L-96,322 L-82,312 L-69,301 L-62,294 L-52,281 L-47,274 L-44,268 L-45,263 L-49,254 L-55,231 L-57,219 L-58,207 L-60,204 L-69,201 L-75,197 L-82,189 L-88,177 L-90,174 L-92,176 L-95,184 L-99,190 L-107,195 L-120,195 L-129,191 L-134,186 L-137,178 L-137,167 L-132,157 L-126,152 L-120,150 L-110,150 L-100,153 L-100,155 L-96,159 L-94,163 L-91,162 L-89,149 L-84,139 L-76,129 L-66,122 L-51,117 L-53,112 L-55,112 L-57,107 L-66,97 L-72,90 L-76,89 L-77,86 L-87,79 L-97,72 L-114,64 L-128,59 L-142,55 L-150,54 Z M85,54 L73,56 L55,61 L38,68 L24,76 L10,86 L3,92 L3,94 L-1,96 L-12,108 L-22,123 L-30,139 L-36,155 L-39,168 L-41,183 L-41,210 L-38,232 L-32,250 L-28,259 L-21,273 L-12,286 L-10,286 L-8,290 L-1,298 L8,307 L15,312 L18,315 L29,322 L45,330 L55,334 L70,339 L84,341 L101,342 L114,342 L137,339 L153,334 L170,327 L181,321 L192,314 L192,312 L196,310 L204,303 L213,294 L222,282 L230,270 L239,251 L244,235 L246,223 L248,214 L248,185 L241,152 L236,139 L226,120 L215,106 L211,101 L209,101 L207,97 L199,89 L197,89 L197,87 L189,81 L174,71 L155,62 L131,55 L124,54 Z M-65,74 Z M260,80 L245,86 L234,94 L231,97 L233,103 L240,113 L246,123 L255,143 L259,152 L265,155 L278,157 L290,157 L305,154 L318,149 L330,142 L335,137 L324,132 L315,125 L310,120 L302,111 L290,95 L288,92 L286,92 L284,88 L277,82 L273,80 Z M-54,84 L-52,88 L-50,91 L-48,91 L-46,95 L-40,102 L-35,109 L-31,107 L-25,98 L-40,92 L-53,84 Z M-51,133 L-59,136 L-69,145 L-73,154 L-73,170 L-68,180 L-61,187 L-59,187 L-58,185 L-55,164 L-50,145 L-46,135 L-46,133 Z M266,213 L264,220 L259,243 L254,258 L252,261 L252,265 L260,264 L270,259 L277,251 L279,245 L279,229 L275,220 L271,215 Z M-334,215 L-342,224 L-345,232 L-345,244 L-342,253 L-335,261 L-325,266 L-318,266 L-319,262 L-326,242 L-330,223 L-331,215 Z " fill="#0A0A0B" transform="translate(675,182)"/>
<path d="M0,0 L32,0 L43,1 L44,2 L53,3 L62,8 L68,10 L80,15 L88,19 L88,21 L93,23 L104,30 L116,41 L121,46 L130,56 L135,62 L135,68 L129,70 L120,70 L119,73 L110,78 L105,83 L98,94 L95,104 L95,116 L97,126 L98,131 L100,131 L102,136 L107,140 L112,146 L127,152 L129,159 L130,174 L132,181 L134,191 L137,200 L139,208 L141,208 L142,218 L136,227 L134,227 L132,231 L129,238 L124,245 L122,245 L121,248 L113,255 L101,266 L90,272 L85,276 L71,283 L64,285 L59,287 L52,289 L48,290 L40,290 L40,288 L61,282 L73,277 L86,270 L100,260 L113,249 L124,237 L134,223 L137,217 L136,212 L132,203 L126,180 L124,168 L123,156 L122,154 L113,151 L106,146 L99,138 L92,124 L88,133 L84,139 L79,143 L75,145 L62,145 L53,141 L47,135 L44,127 L44,116 L49,106 L56,100 L62,98 L72,98 L80,101 L82,102 L82,104 L86,106 L88,112 L90,111 L92,98 L97,88 L105,78 L116,70 L129,66 L129,63 L129,61 L127,61 L123,55 L115,46 L115,44 L111,42 L110,39 L106,38 L102,34 L91,26 L77,18 L63,12 L44,6 L32,4 L-3,4 L-17,6 L-31,10 L-49,17 L-63,24 L-74,32 L-78,35 L-80,35 L-81,38 L-89,45 L-97,53 L-106,65 L-107,67 L-109,67 L-111,73 L-116,82 L-123,96 L-129,119 L-132,142 L-131,160 L-127,183 L-123,197 L-117,211 L-108,227 L-99,239 L-90,249 L-82,257 L-74,263 L-58,273 L-41,281 L-23,287 L-11,289 L4,290 L19,290 L39,289 L39,292 L23,294 L-2,294 L-20,293 L-25,291 L-25,289 L-36,287 L-45,283 L-56,279 L-62,275 L-69,272 L-83,262 L-99,246 L-104,240 L-109,235 L-115,225 L-118,220 L-119,216 L-123,212 L-125,207 L-127,199 L-131,188 L-133,178 L-133,174 L-135,174 L-136,167 L-136,128 L-134,117 L-132,111 L-129,96 L-123,86 L-117,75 L-111,65 L-100,52 L-91,42 L-79,31 L-69,24 L-65,23 L-65,21 L-61,18 L-56,16 L-53,16 L-51,12 L-42,9 L-33,6 L-25,3 L-17,1 Z " fill="#B3B4B4" transform="translate(493,233)"/>
<path d="M0,0 L6,0 L11,5 L19,16 L30,30 L32,34 L36,36 L37,39 L41,41 L46,46 L47,49 L51,51 L57,56 L61,60 L74,70 L88,79 L105,87 L122,92 L140,94 L145,100 L145,105 L139,110 L128,110 L106,105 L90,99 L75,91 L64,84 L53,76 L50,74 L50,72 L46,70 L36,62 L31,57 L20,45 L10,34 L3,25 L0,23 L-2,27 L-12,36 L-25,44 L-35,49 L-44,53 L-61,58 L-87,61 L-94,60 L-99,56 L-99,50 L-96,45 L-94,44 L-73,43 L-56,39 L-40,33 L-28,26 L-20,20 L-10,11 L-3,2 Z " fill="#0C0C0C" transform="translate(769,249)"/>
<path d="M0,0 L7,0 L23,8 L38,14 L63,22 L81,26 L103,29 L116,29 L136,26 L148,23 L162,18 L168,18 L173,23 L173,30 L167,34 L155,39 L139,43 L129,44 L94,44 L77,42 L55,37 L33,30 L22,26 L13,22 L11,22 L4,40 L-4,55 L-12,66 L-23,78 L-30,84 L-35,89 L-49,98 L-51,99 L-60,99 L-64,95 L-64,87 L-59,83 L-49,77 L-36,66 L-28,58 L-21,48 L-13,34 L-8,20 L-4,5 Z " fill="#0A0A0A" transform="translate(437,268)"/>
<path d="M0,0 L16,0 L27,4 L36,11 L41,16 L49,26 L54,35 L56,39 L56,42 L71,40 L86,38 L118,38 L144,42 L165,49 L174,53 L189,61 L206,73 L216,82 L223,81 L233,74 L247,67 L260,64 L276,64 L287,68 L297,77 L306,88 L319,105 L328,115 L335,120 L347,123 L358,124 L362,128 L362,136 L357,142 L352,146 L350,146 L350,148 L340,155 L329,162 L312,169 L297,172 L277,172 L263,170 L265,178 L266,192 L267,194 L274,197 L282,202 L282,204 L286,206 L293,216 L296,223 L297,230 L297,243 L294,255 L288,265 L280,273 L268,279 L258,281 L244,281 L237,291 L228,302 L223,308 L221,308 L219,312 L213,318 L211,318 L211,320 L193,333 L175,343 L159,349 L145,353 L125,357 L116,358 L94,358 L71,355 L52,350 L38,345 L21,337 L10,330 L1,323 L-9,314 L-17,307 L-26,296 L-33,286 L-37,288 L-43,297 L-46,301 L-48,301 L-50,305 L-54,310 L-56,310 L-56,312 L-64,319 L-79,331 L-100,343 L-111,348 L-131,354 L-149,357 L-157,358 L-182,358 L-202,355 L-205,353 L-186,353 L-180,354 L-157,355 L-157,353 L-153,352 L-139,351 L-133,349 L-120,347 L-107,341 L-102,339 L-90,333 L-76,324 L-67,317 L-60,311 L-56,306 L-51,301 L-43,291 L-37,283 L-35,281 L-32,281 L-26,290 L-13,303 L-6,311 L3,319 L7,321 L10,326 L18,331 L23,333 L32,338 L40,341 L51,346 L64,350 L87,353 L90,354 L124,354 L139,351 L151,347 L160,344 L167,341 L185,335 L190,330 L194,329 L199,324 L212,314 L221,305 L230,294 L236,286 L240,279 L241,278 L259,277 L271,274 L280,268 L286,261 L290,251 L292,244 L292,227 L287,214 L277,203 L262,197 L261,195 L260,176 L259,167 L269,168 L301,168 L313,163 L321,162 L327,158 L334,154 L339,152 L346,146 L351,142 L354,137 L358,135 L357,127 L345,127 L336,124 L326,118 L320,112 L315,109 L313,106 L313,102 L311,102 L305,92 L297,85 L294,82 L291,77 L288,75 L288,73 L283,71 L277,68 L259,68 L243,73 L235,79 L226,84 L221,88 L216,88 L210,81 L205,78 L197,70 L194,69 L194,67 L189,66 L179,60 L172,57 L160,53 L156,50 L147,47 L131,44 L119,42 L81,42 L60,47 L54,47 L50,39 L49,35 L47,34 L44,29 L42,24 L31,12 L24,8 L15,5 L-3,5 L-14,9 L-16,9 L-16,11 L-24,14 L-34,18 L-44,23 L-55,26 L-66,26 L-78,23 L-78,21 L-86,20 L-87,21 L-87,30 L-82,42 L-81,46 L-84,47 L-91,31 L-92,22 L-90,17 L-88,16 L-79,16 L-71,20 L-68,21 L-51,21 L-37,16 L-21,8 L-7,2 Z " fill="#919092" transform="translate(675,182)"/>
<path d="M0,0 L7,0 L12,5 L16,14 L20,20 L27,27 L36,32 L46,37 L54,39 L76,39 L85,37 L94,32 L97,31 L97,29 L102,25 L109,25 L114,30 L114,38 L110,43 L105,47 L92,53 L80,56 L73,57 L58,57 L44,54 L32,50 L23,45 L10,35 L1,25 L-5,14 L-6,7 L-3,2 Z " fill="#080808" transform="translate(708,428)"/>
<path d="M0,0 L7,1 L10,4 L10,14 L3,27 L-2,33 L-4,33 L-6,37 L-13,43 L-16,43 L-17,46 L-29,52 L-42,56 L-54,58 L-65,58 L-79,56 L-91,51 L-100,46 L-107,40 L-107,31 L-102,26 L-96,26 L-86,34 L-78,38 L-70,40 L-51,40 L-39,37 L-25,30 L-19,25 L-11,15 L-5,3 Z " fill="#0C0C0D" transform="translate(573,427)"/>
<path d="M0,0 L32,0 L43,1 L44,2 L53,3 L62,8 L68,10 L80,15 L88,19 L88,21 L93,23 L104,30 L116,41 L121,46 L130,56 L135,62 L134,64 L128,59 L125,54 L122,54 L115,46 L115,44 L111,42 L110,39 L106,38 L102,34 L91,26 L77,18 L63,12 L44,6 L32,4 L-3,4 L-17,6 L-31,10 L-49,17 L-63,24 L-74,32 L-78,35 L-80,35 L-81,38 L-89,45 L-97,53 L-106,65 L-107,67 L-109,67 L-111,73 L-116,82 L-123,96 L-129,119 L-132,142 L-131,160 L-127,183 L-123,197 L-117,211 L-108,227 L-99,239 L-90,249 L-82,257 L-74,263 L-58,273 L-41,281 L-23,287 L-11,289 L4,290 L19,290 L39,289 L39,292 L23,294 L-2,294 L-20,293 L-25,291 L-25,289 L-36,287 L-45,283 L-56,279 L-62,275 L-69,272 L-83,262 L-99,246 L-104,240 L-109,235 L-115,225 L-118,220 L-119,216 L-123,212 L-125,207 L-127,199 L-131,188 L-133,178 L-133,174 L-135,174 L-136,167 L-136,128 L-134,117 L-132,111 L-129,96 L-123,86 L-117,75 L-111,65 L-100,52 L-91,42 L-79,31 L-69,24 L-65,23 L-65,21 L-61,18 L-56,16 L-53,16 L-51,12 L-42,9 L-33,6 L-25,3 L-17,1 Z " fill="#7A7A7A" transform="translate(493,233)"/>
<path d="M0,0 L6,0 L11,5 L19,16 L30,30 L32,34 L36,36 L37,39 L41,41 L46,46 L47,49 L51,51 L57,56 L61,60 L74,70 L88,79 L105,87 L122,92 L140,94 L145,100 L145,105 L139,110 L128,110 L106,105 L90,99 L75,91 L64,84 L53,76 L50,74 L50,72 L46,70 L36,62 L31,57 L20,45 L10,34 L3,25 L0,23 L-2,27 L-12,36 L-25,44 L-35,49 L-44,53 L-61,58 L-87,61 L-94,60 L-99,56 L-99,50 L-96,45 L-94,44 L-73,43 L-56,39 L-40,33 L-28,26 L-20,20 L-10,11 L-3,2 Z M0,3 L-3,5 L-6,12 L-12,17 L-17,23 L-31,32 L-31,34 L-41,37 L-41,39 L-50,40 L-56,43 L-65,45 L-79,47 L-92,48 L-95,51 L-94,56 L-93,57 L-72,57 L-55,54 L-45,51 L-36,48 L-30,45 L-24,41 L-21,40 L-17,36 L-7,28 L0,21 L5,22 L11,29 L14,34 L20,42 L28,48 L30,51 L33,51 L34,55 L42,62 L48,67 L52,71 L66,82 L75,87 L78,90 L83,92 L88,93 L88,95 L101,100 L105,102 L114,103 L124,105 L128,106 L138,106 L140,105 L140,99 L137,97 L121,95 L112,92 L96,87 L90,85 L89,82 L79,78 L74,77 L73,74 L63,66 L58,61 L51,56 L44,48 L36,41 L22,27 L21,23 L19,23 L17,19 L10,8 L5,3 Z " fill="#858586" transform="translate(769,249)"/>
<path d="M0,0 L8,0 L16,3 L22,8 L27,17 L27,31 L22,40 L14,46 L7,48 L-3,47 L-9,44 L-16,37 L-20,28 L-20,20 L-15,10 L-11,5 L-4,1 Z " fill="#030304" transform="translate(719,331)"/>
<path d="M0,0 L10,0 L17,3 L25,10 L28,16 L28,31 L24,39 L17,45 L11,47 L0,47 L-7,44 L-15,37 L-18,30 L-18,18 L-12,8 L-8,6 L-8,4 Z " fill="#040404" transform="translate(835,361)"/>
<path d="M0,0 L11,0 L19,3 L24,7 L29,16 L29,30 L25,38 L17,45 L15,46 L-2,46 L-10,41 L-15,35 L-17,29 L-17,17 L-12,7 L-10,7 L-10,5 Z " fill="#060606" transform="translate(439,362)"/>
<path d="M0,0 L25,0 L43,1 L55,3 L67,7 L75,11 L82,13 L86,15 L89,19 L96,23 L101,25 L101,27 L106,28 L114,35 L122,42 L130,50 L136,57 L140,62 L145,72 L152,84 L158,97 L163,116 L165,124 L165,167 L162,183 L160,186 L157,198 L152,210 L148,216 L145,224 L140,231 L138,236 L130,245 L124,250 L122,250 L120,254 L117,255 L117,257 L113,260 L111,260 L113,256 L126,243 L135,231 L143,219 L152,200 L157,184 L159,172 L161,163 L161,134 L154,101 L149,88 L139,69 L128,55 L117,43 L111,38 L111,36 L106,34 L99,28 L84,19 L66,11 L45,5 L38,4 L-1,4 L-13,6 L-31,11 L-48,18 L-62,26 L-76,36 L-82,41 L-87,46 L-97,57 L-102,64 L-104,64 L-103,60 L-95,50 L-90,45 L-85,40 L-75,31 L-62,21 L-51,15 L-44,12 L-37,9 L-34,9 L-34,7 L-25,4 Z " fill="#828282" transform="translate(761,233)"/>
<path d="M0,0 L2,0 L0,6 L-5,14 L-13,33 L-17,46 L-20,67 L-20,94 L-17,116 L-11,134 L-7,143 L0,157 L8,168 L8,170 L10,170 L17,179 L28,190 L36,196 L36,198 L42,200 L52,207 L69,215 L90,222 L104,224 L121,225 L134,225 L157,222 L173,217 L190,210 L201,204 L210,198 L212,198 L212,196 L216,194 L216,198 L211,199 L209,203 L202,208 L198,209 L194,213 L183,218 L170,223 L148,228 L103,228 L87,225 L66,219 L50,211 L45,210 L40,205 L29,197 L26,193 L26,191 L22,189 L12,180 L6,173 L-1,164 L-4,159 L-7,151 L-7,148 L-9,148 L-14,138 L-19,127 L-21,126 L-22,118 L-23,117 L-24,105 L-26,95 L-26,68 L-25,58 L-23,51 L-20,36 L-17,29 L-14,21 L-11,15 L-9,15 L-8,10 L-5,4 Z " fill="#A9A9A9" transform="translate(655,298)"/>
<path d="M0,0 L5,0 L5,2 L-17,10 L-26,12 L-31,16 L-35,17 L-39,21 L-50,27 L-61,34 L-66,39 L-71,44 L-76,47 L-80,52 L-82,56 L-87,61 L-91,66 L-93,66 L-95,72 L-98,73 L-100,78 L-105,91 L-111,103 L-115,112 L-116,120 L-117,121 L-120,142 L-121,156 L-126,159 L-129,159 L-130,162 L-135,165 L-140,169 L-144,174 L-145,177 L-147,177 L-148,182 L-150,182 L-151,189 L-151,202 L-150,213 L-147,214 L-147,216 L-145,216 L-142,222 L-142,224 L-138,226 L-136,227 L-136,229 L-130,231 L-129,234 L-123,234 L-122,237 L-99,237 L-96,240 L-93,247 L-88,253 L-85,254 L-82,259 L-72,269 L-68,273 L-63,276 L-59,279 L-59,281 L-57,281 L-53,285 L-43,290 L-43,292 L-38,294 L-28,298 L-26,300 L-18,303 L-10,305 L-8,307 L0,308 L1,311 L-7,310 L-25,304 L-37,299 L-59,286 L-69,277 L-78,270 L-85,262 L-93,253 L-97,247 L-101,241 L-115,241 L-127,238 L-135,234 L-142,229 L-149,220 L-153,212 L-155,199 L-154,185 L-151,177 L-145,168 L-140,163 L-134,158 L-124,153 L-123,135 L-120,120 L-117,109 L-114,99 L-106,83 L-99,71 L-91,59 L-89,59 L-87,54 L-83,49 L-78,44 L-74,42 L-74,40 L-63,31 L-54,24 L-46,19 L-35,13 L-16,5 Z " fill="#A2A2A3" transform="translate(467,224)"/>
<path d="M0,0 L3,0 L9,9 L22,22 L29,30 L38,38 L42,40 L45,45 L53,50 L58,52 L67,57 L75,60 L86,65 L99,69 L122,72 L125,73 L159,73 L174,70 L186,66 L195,63 L202,60 L212,57 L212,61 L191,69 L175,73 L160,76 L151,77 L129,77 L106,74 L87,69 L73,64 L56,56 L45,49 L36,42 L26,33 L18,26 L9,15 L2,5 L-2,7 L-8,16 L-11,20 L-13,20 L-15,24 L-19,29 L-21,29 L-21,31 L-29,38 L-44,50 L-65,62 L-76,67 L-96,73 L-114,76 L-122,77 L-147,77 L-167,74 L-170,72 L-151,72 L-145,73 L-122,74 L-122,72 L-118,71 L-104,70 L-98,68 L-85,66 L-72,60 L-67,58 L-55,52 L-41,43 L-32,36 L-25,30 L-21,25 L-16,20 L-8,10 L-2,2 Z " fill="#9DA49F" transform="translate(640,463)"/>
<path d="M0,0 L14,0 L21,6 L21,8 L25,10 L28,8 L27,12 L25,12 L25,23 L20,32 L14,38 L9,39 L-2,39 L-9,35 L-12,30 L-15,24 L-15,13 L-11,5 L-4,2 Z " fill="#020202" transform="translate(556,336)"/>
<path d="M0,0 L25,0 L47,3 L60,7 L74,12 L90,20 L107,31 L112,34 L102,21 L97,12 L97,10 L101,11 L103,16 L108,21 L115,30 L119,36 L125,41 L131,45 L139,49 L140,52 L144,53 L145,54 L153,55 L153,57 L157,58 L157,64 L150,72 L147,77 L143,76 L139,69 L131,60 L124,52 L114,42 L109,39 L98,30 L98,28 L93,27 L84,22 L72,16 L55,10 L46,8 L38,6 L21,4 L-5,4 L-11,5 L-23,5 L-23,3 L-12,1 Z M114,36 Z M125,46 L127,50 L129,53 L131,53 L133,57 L139,64 L144,71 L148,69 L154,60 L139,54 L126,46 Z " fill="#939395" transform="translate(496,220)"/>
<path d="M0,0 L2,0 L1,11 L-1,29 L0,47 L4,70 L8,84 L14,98 L23,114 L32,126 L41,136 L49,144 L57,150 L73,160 L90,168 L108,174 L120,176 L135,177 L150,177 L170,176 L170,179 L154,181 L129,181 L111,180 L106,178 L106,176 L95,174 L86,170 L75,166 L69,162 L62,159 L48,149 L32,133 L27,127 L22,122 L16,112 L13,107 L12,103 L8,99 L6,94 L4,86 L0,75 L-3,61 L-4,53 L-4,23 L-3,12 Z " fill="#B2B2B5" transform="translate(362,346)"/>
<path d="M0,0 L7,1 L10,4 L10,14 L3,27 L-2,33 L-4,33 L-5,36 L-9,35 L-2,29 L2,23 L4,19 L5,6 L-2,6 L-7,18 L-17,29 L-22,32 L-23,35 L-29,38 L-37,42 L-53,45 L-69,45 L-77,43 L-88,40 L-94,32 L-102,32 L-103,33 L-103,38 L-98,44 L-89,48 L-83,50 L-78,52 L-70,53 L-50,53 L-37,51 L-21,45 L-17,40 L-8,37 L-13,43 L-16,43 L-17,46 L-29,52 L-42,56 L-54,58 L-65,58 L-79,56 L-91,51 L-100,46 L-107,40 L-107,31 L-102,26 L-96,26 L-86,34 L-78,38 L-70,40 L-51,40 L-39,37 L-25,30 L-19,25 L-11,15 L-5,3 Z " fill="#696A6B" transform="translate(573,427)"/>
<path d="M0,0 L10,0 L19,4 L24,9 L28,13 L32,20 L37,25 L41,32 L41,39 L35,41 L25,47 L15,52 L3,61 L-6,69 L-13,75 L-19,75 L-29,73 L-37,68 L-41,66 L-42,64 L-50,60 L-59,50 L-67,41 L-70,37 L-73,30 L-76,25 L-76,21 L-53,21 L-42,18 L-32,14 L-25,10 L-20,8 L-14,4 L-6,2 Z M-1,3 L-14,8 L-30,16 L-44,22 L-62,25 L-71,25 L-69,30 L-65,38 L-63,38 L-61,43 L-51,54 L-39,63 L-29,68 L-15,71 L-10,68 L-5,63 L3,56 L22,44 L36,37 L37,35 L32,23 L24,12 L11,3 Z " fill="#A1A0A2" transform="translate(678,195)"/>
<path d="M0,0 L10,0 L20,5 L29,14 L32,20 L37,25 L46,35 L46,39 L50,41 L55,46 L60,50 L66,54 L66,56 L74,57 L77,59 L77,64 L71,67 L63,73 L54,76 L53,77 L46,77 L46,75 L56,71 L68,64 L72,61 L60,55 L48,45 L37,31 L27,18 L26,15 L24,15 L18,8 L11,4 L-2,4 L-17,10 L-28,18 L-30,18 L-29,25 L-22,34 L-15,46 L-6,66 L-3,74 L3,77 L16,79 L28,79 L45,76 L44,79 L40,79 L40,81 L35,82 L11,82 L-5,78 L-8,73 L-12,63 L-12,59 L-15,58 L-19,48 L-22,45 L-26,37 L-28,35 L-30,30 L-35,23 L-34,18 L-25,11 L-22,11 L-20,7 L-18,7 L-18,5 L-13,3 L-3,1 Z " fill="#7B7B7C" transform="translate(937,259)"/>
<path d="M0,0 L5,1 L3,2 L5,10 L6,24 L7,26 L14,29 L22,34 L22,36 L26,38 L33,48 L36,55 L37,62 L37,75 L34,87 L28,97 L20,105 L8,111 L-2,113 L-16,113 L-23,123 L-32,134 L-37,140 L-39,140 L-41,144 L-47,150 L-49,150 L-49,152 L-67,165 L-81,173 L-83,173 L-83,170 L-74,166 L-70,162 L-66,161 L-61,156 L-48,146 L-39,137 L-30,126 L-24,118 L-20,111 L-19,110 L-1,109 L11,106 L20,100 L26,93 L30,83 L32,76 L32,59 L27,46 L17,35 L2,29 L1,27 Z " fill="#B0B1B2" transform="translate(935,350)"/>
<path d="M0,0 L7,0 L12,5 L16,14 L20,20 L27,27 L36,32 L46,37 L54,39 L76,39 L85,37 L94,32 L97,31 L97,29 L102,25 L109,25 L114,30 L114,38 L110,43 L105,47 L94,52 L91,51 L96,48 L103,45 L108,40 L110,37 L109,32 L108,31 L102,31 L96,35 L94,35 L93,38 L81,43 L75,44 L58,44 L51,42 L51,40 L40,39 L28,32 L22,28 L14,19 L11,16 L7,6 L6,5 L-1,4 L1,15 L5,23 L12,31 L20,38 L30,45 L35,47 L35,49 L39,50 L38,52 L26,47 L15,39 L5,30 L-2,20 L-6,10 L-5,4 Z " fill="#898992" transform="translate(708,428)"/>
<path d="M0,0 L4,3 L4,6 L8,8 L11,11 L10,16 L5,17 L-4,17 L-5,20 L-14,25 L-19,30 L-26,41 L-30,53 L-32,53 L-32,66 L-35,79 L-41,87 L-49,92 L-62,92 L-71,88 L-77,82 L-80,74 L-80,63 L-75,53 L-68,47 L-62,45 L-52,45 L-44,48 L-42,49 L-42,51 L-38,53 L-35,60 L-37,61 L-43,54 L-47,51 L-61,51 L-66,54 L-71,55 L-75,63 L-75,74 L-72,80 L-69,85 L-63,88 L-52,88 L-46,86 L-40,79 L-37,73 L-36,62 L-34,61 L-32,45 L-27,35 L-19,25 L-8,17 L5,13 L5,10 L5,8 L3,8 L0,3 Z " fill="#ADADAD" transform="translate(617,286)"/>
<path d="M0,0 L5,0 L5,2 L-17,10 L-26,12 L-31,16 L-35,17 L-39,21 L-50,27 L-61,34 L-66,39 L-71,44 L-76,47 L-80,52 L-82,56 L-87,61 L-91,66 L-93,66 L-95,72 L-98,73 L-100,78 L-105,91 L-111,103 L-115,112 L-116,120 L-117,121 L-120,142 L-121,156 L-131,160 L-136,164 L-139,164 L-141,168 L-145,169 L-142,164 L-134,158 L-124,153 L-123,135 L-120,120 L-117,109 L-114,99 L-106,83 L-99,71 L-91,59 L-89,59 L-87,54 L-83,49 L-78,44 L-74,42 L-74,40 L-63,31 L-54,24 L-46,19 L-35,13 L-16,5 Z " fill="#7A7B7C" transform="translate(467,224)"/>
<path d="M0,0 L4,2 L15,12 L18,15 L32,26 L42,32 L42,34 L49,36 L54,38 L54,40 L65,43 L71,46 L80,47 L90,49 L94,50 L106,50 L105,44 L103,43 L87,41 L78,38 L62,33 L56,30 L53,27 L40,22 L36,18 L36,16 L32,14 L26,10 L30,9 L35,11 L45,18 L54,24 L71,32 L88,37 L106,39 L111,45 L111,50 L105,55 L94,55 L72,50 L56,44 L41,36 L30,29 L19,21 L16,19 L16,17 L14,17 L11,11 L7,9 L0,1 Z " fill="#838585" transform="translate(803,304)"/>
<path d="M0,0 L25,0 L43,1 L55,3 L67,7 L75,11 L82,13 L86,15 L87,18 L80,17 L63,10 L45,5 L38,4 L-1,4 L-13,6 L-31,11 L-48,18 L-62,26 L-76,36 L-82,41 L-87,46 L-97,57 L-102,64 L-104,64 L-103,60 L-95,50 L-90,45 L-85,40 L-75,31 L-62,21 L-51,15 L-44,12 L-37,9 L-34,9 L-34,7 L-25,4 Z " fill="#8C8C8D" transform="translate(761,233)"/>
<path d="M0,0 L6,0 L7,5 L9,6 L10,17 L12,23 L14,33 L18,43 L20,46 L20,52 L22,52 L23,57 L22,58 L8,58 L2,54 L-7,46 L-10,45 L-13,39 L-13,32 L-15,32 L-15,19 L-12,18 L-11,13 L-8,7 Z M1,3 L-7,12 L-10,20 L-10,32 L-7,41 L0,49 L10,54 L17,54 L16,50 L9,30 L5,11 L4,3 Z " fill="#A3AAA8" transform="translate(340,394)"/>
<path d="M0,0 L5,0 L1,3 L-11,8 L-23,14 L-34,22 L-38,25 L-40,25 L-41,28 L-49,35 L-57,43 L-66,55 L-67,57 L-69,57 L-71,63 L-76,72 L-83,86 L-88,105 L-89,103 L-91,103 L-92,112 L-93,115 L-94,126 L-94,164 L-95,164 L-96,157 L-96,118 L-94,107 L-92,101 L-89,86 L-83,76 L-77,65 L-71,55 L-60,42 L-51,32 L-39,21 L-29,14 L-25,13 L-25,11 L-21,8 L-9,4 L-7,2 Z " fill="#A1A1A2" transform="translate(453,243)"/>
<path d="M0,0 L16,0 L27,4 L29,6 L29,8 L31,11 L25,9 L15,5 L-3,5 L-14,9 L-16,9 L-16,11 L-24,14 L-34,18 L-44,23 L-55,26 L-66,26 L-78,23 L-78,21 L-86,20 L-87,21 L-87,30 L-82,42 L-81,46 L-84,47 L-91,31 L-92,22 L-90,17 L-88,16 L-79,16 L-71,20 L-68,21 L-51,21 L-37,16 L-21,8 L-7,2 Z " fill="#A4A4A4" transform="translate(675,182)"/>
<path d="M0,0 L7,0 L23,8 L38,14 L49,18 L49,20 L42,19 L30,16 L22,13 L22,11 L16,10 L7,5 L1,4 L-1,8 L-3,20 L-6,29 L-8,36 L-10,36 L-11,40 L-14,45 L-18,53 L-26,60 L-33,68 L-44,78 L-52,83 L-58,85 L-56,81 L-48,76 L-37,67 L-28,58 L-21,48 L-13,34 L-8,20 L-4,5 Z " fill="#B8B8B8" transform="translate(437,268)"/>
<path d="M0,0 L10,0 L17,3 L25,10 L28,16 L28,31 L24,39 L17,45 L11,47 L0,47 L-7,44 L-15,37 L-18,30 L-18,18 L-12,8 L-8,6 L-8,4 Z M1,5 L-7,8 L-11,13 L-13,14 L-14,18 L-14,30 L-8,39 L-2,44 L13,44 L14,41 L18,39 L21,38 L25,30 L25,18 L21,11 L16,8 L14,8 L14,6 L11,5 Z " fill="#858287" transform="translate(835,361)"/>
<path d="M0,0 L6,0 L12,4 L17,11 L20,18 L21,24 L21,36 L18,43 L10,53 L-1,59 L-13,59 L-12,50 L-10,47 L-8,35 L-3,18 L-1,1 Z M4,5 L2,12 L-3,35 L-8,50 L-10,53 L-10,57 L-2,56 L8,51 L15,43 L17,37 L17,21 L13,12 L9,7 Z " fill="#B4BAB7" transform="translate(937,390)"/>
<path d="M0,0 L4,2 L11,9 L17,13 L29,16 L40,17 L44,21 L44,29 L39,35 L34,39 L32,39 L32,41 L22,48 L11,55 L-6,62 L-21,65 L-41,65 L-53,63 L-58,61 L-58,66 L-59,66 L-59,60 L-49,61 L-17,61 L-5,56 L3,55 L9,51 L16,47 L21,45 L28,39 L33,35 L36,30 L40,28 L39,20 L27,20 L18,17 L8,11 L0,4 Z " fill="#AEAFAF" transform="translate(993,289)"/>
<path d="M0,0 L4,2 L12,6 L20,9 L31,14 L44,18 L67,21 L70,22 L104,22 L119,19 L131,15 L140,12 L147,9 L157,6 L157,10 L136,18 L120,22 L105,25 L96,26 L74,26 L51,23 L32,18 L18,13 L1,5 L1,2 Z " fill="#797979" transform="translate(695,514)"/>
<path d="M0,0 L8,0 L16,3 L22,8 L27,17 L27,31 L22,40 L14,46 L7,48 L-3,47 L-9,44 L-16,37 L-20,28 L-20,20 L-15,10 L-11,5 L-4,1 Z M-4,6 L-15,14 L-16,19 L-16,29 L-14,35 L-7,43 L-2,45 L11,45 L11,42 L16,41 L22,34 L24,30 L24,18 L18,11 L16,11 L15,8 L12,6 Z " fill="#9E9E9E" transform="translate(719,331)"/>
<path d="M0,0 L6,0 L11,5 L11,12 L5,16 L-7,21 L-23,25 L-33,26 L-68,26 L-85,24 L-107,19 L-129,12 L-140,8 L-149,4 L-151,4 L-153,9 L-155,8 L-153,1 L-146,2 L-140,5 L-122,11 L-113,14 L-94,19 L-75,22 L-65,23 L-36,23 L-13,19 L5,13 L7,10 L7,4 L0,3 L-5,4 L-5,2 Z " fill="#6A6A6A" transform="translate(599,286)"/>
<path d="M0,0 L11,0 L11,6 L8,8 L7,14 L5,14 L4,21 L1,33 L0,36 L-2,36 L-3,54 L-4,60 L-11,59 L-20,50 L-24,40 L-24,22 L-22,18 L-20,18 L-18,12 L-14,8 L-10,6 L-6,2 Z M1,3 L-7,6 L-17,15 L-21,24 L-21,40 L-16,50 L-9,57 L-7,57 L-6,55 L-3,34 L2,15 L6,5 L6,3 Z " fill="#B5B5B5" transform="translate(623,312)"/>
<path d="M0,0 L1,0 L2,8 L3,36 L0,52 L-2,55 L-5,67 L-10,79 L-14,85 L-17,93 L-22,100 L-24,105 L-32,114 L-38,119 L-40,119 L-42,123 L-45,124 L-45,126 L-49,129 L-51,129 L-49,125 L-36,112 L-27,100 L-19,88 L-10,69 L-5,53 L-3,41 L-1,32 L-1,1 Z " fill="#B4B4B7" transform="translate(923,364)"/>
<path d="M0,0 L4,1 L-9,10 L-11,10 L-10,17 L-3,26 L4,38 L13,58 L16,66 L22,69 L35,71 L47,71 L64,68 L63,71 L59,71 L59,73 L54,74 L30,74 L14,70 L11,65 L7,55 L7,51 L4,50 L0,40 L-3,37 L-7,29 L-9,27 L-11,22 L-16,15 L-15,10 L-6,3 L-1,1 Z " fill="#818181" transform="translate(918,267)"/>
<path d="M0,0 L11,0 L19,3 L24,7 L29,16 L29,30 L25,38 L18,44 L14,43 L20,38 L25,32 L25,15 L18,7 L14,5 L0,5 L-9,10 L-13,16 L-13,29 L-11,34 L-6,39 L-4,43 L13,44 L14,46 L-2,46 L-10,41 L-15,35 L-17,29 L-17,17 L-12,7 L-10,7 L-10,5 Z " fill="#AAAAAA" transform="translate(439,362)"/>
<path d="M0,0 L2,0 L0,6 L-5,14 L-13,33 L-17,46 L-20,67 L-23,68 L-23,105 L-25,103 L-26,95 L-26,68 L-25,58 L-23,51 L-20,36 L-17,29 L-14,21 L-11,15 L-9,15 L-8,10 L-5,4 Z " fill="#919191" transform="translate(655,298)"/>
<path d="M0,0 L12,0 L20,4 L27,12 L31,19 L36,24 L40,31 L40,38 L34,40 L24,46 L14,51 L4,58 L-1,61 L-14,72 L-18,72 L-18,70 L-13,67 L-11,67 L-9,63 L5,52 L21,42 L35,35 L31,24 L24,14 L23,11 L19,9 L10,3 L-1,2 Z " fill="#9B9B9C" transform="translate(679,196)"/>
<path d="M0,0 L10,2 L31,7 L53,10 L66,10 L86,7 L98,4 L103,2 L106,2 L105,6 L98,8 L93,8 L93,10 L75,13 L74,14 L49,14 L23,11 L13,7 L3,4 L0,2 Z " fill="#5A5A5A" transform="translate(487,287)"/>
<path d="M0,0 L1,3 L-5,13 L-7,13 L-9,18 L-14,31 L-20,43 L-24,52 L-25,60 L-26,61 L-29,82 L-30,96 L-40,100 L-45,104 L-48,104 L-50,108 L-54,109 L-51,104 L-43,98 L-33,93 L-32,75 L-29,60 L-26,49 L-23,39 L-15,23 L-8,11 Z " fill="#A7A7A7" transform="translate(376,284)"/>
<path d="M0,0 L2,0 L4,17 L6,22 L6,25 L8,25 L10,30 L15,34 L20,40 L35,46 L37,53 L38,68 L40,75 L40,83 L39,83 L37,74 L34,74 L32,62 L31,50 L30,48 L21,45 L14,40 L7,32 L0,18 L-2,19 Z " fill="#B5B5B5" transform="translate(585,339)"/>
<path d="M0,0 L6,0 L11,5 L19,16 L30,30 L32,34 L36,36 L37,39 L41,41 L46,46 L47,49 L51,51 L57,56 L61,60 L65,63 L64,65 L59,63 L50,56 L44,49 L36,42 L21,27 L21,23 L19,23 L13,15 L9,8 L5,4 L0,4 L-3,5 L-5,9 L-7,12 L-9,12 L-9,14 L-11,14 L-9,10 L-3,2 Z " fill="#B4B4B4" transform="translate(769,249)"/>
<path d="M0,0 L2,0 L5,5 L15,15 L19,19 L24,22 L28,25 L28,27 L30,27 L34,31 L44,36 L44,38 L49,40 L59,44 L61,46 L69,49 L77,51 L79,53 L87,54 L88,57 L80,56 L62,50 L50,45 L28,32 L18,23 L10,17 L9,12 L1,4 Z " fill="#787777" transform="translate(380,478)"/>
<path d="M0,0 L6,2 L21,8 L37,12 L58,14 L73,14 L93,13 L93,16 L77,18 L52,18 L34,17 L29,15 L29,13 L18,11 L9,7 L-2,3 L-3,1 Z " fill="#A4A5A5" transform="translate(439,509)"/>
<path d="M0,0 L4,2 L15,12 L18,15 L32,26 L42,32 L42,34 L49,36 L54,38 L54,40 L65,43 L71,46 L80,47 L90,49 L94,50 L106,50 L105,52 L80,52 L60,46 L41,36 L30,29 L19,21 L16,19 L16,17 L14,17 L11,11 L7,9 L0,1 Z " fill="#6C6C6B" transform="translate(803,304)"/>
<path d="M0,0 L32,0 L43,1 L44,2 L53,3 L57,6 L50,5 L40,5 L32,4 L-3,4 L-17,6 L-31,10 L-40,11 L-48,14 L-53,15 L-51,12 L-42,9 L-33,6 L-25,3 L-17,1 Z " fill="#7D7D7D" transform="translate(493,233)"/>
<path d="M0,0 L2,0 L4,3 L4,9 L6,9 L9,19 L12,28 L14,28 L15,38 L9,47 L7,47 L5,51 L2,58 L-3,65 L-9,68 L-12,71 L-14,71 L-12,67 L-3,57 L7,43 L10,37 L9,32 L5,23 L0,5 Z " fill="#9E9EA3" transform="translate(620,413)"/>
<path d="M0,0 L10,0 L18,3 L20,4 L20,6 L24,8 L27,15 L25,16 L19,9 L15,6 L1,6 L-4,9 L-9,10 L-13,18 L-13,29 L-10,35 L-8,39 L-13,35 L-14,33 L-17,33 L-18,29 L-18,18 L-13,8 L-6,2 Z " fill="#737273" transform="translate(555,331)"/>
<path d="M0,0 L3,1 L-1,3 L-16,8 L-31,14 L-45,22 L-59,32 L-65,37 L-70,42 L-80,53 L-85,60 L-87,60 L-86,56 L-78,46 L-73,41 L-68,36 L-58,27 L-45,17 L-34,11 L-27,8 L-24,6 L-16,5 L-13,3 Z " fill="#9E9E9F" transform="translate(744,237)"/>
<path d="M0,0 L2,1 L3,27 L6,49 L12,67 L12,76 L10,74 L5,62 L2,59 L1,51 L0,50 L-1,34 L-1,1 Z " fill="#9FA09F" transform="translate(632,365)"/>
<path d="M0,0 L4,1 L6,6 L11,11 L18,20 L22,26 L28,31 L34,35 L42,39 L43,42 L47,43 L48,44 L56,45 L56,47 L60,48 L60,54 L55,58 L57,54 L59,49 L55,50 L42,45 L28,36 L27,33 L25,33 L22,29 L20,30 L18,28 L19,27 L18,25 L15,24 L5,11 L0,2 Z " fill="#6C6C6C" transform="translate(593,230)"/>
<path d="M0,0 L2,0 L1,11 L-1,29 L0,47 L4,70 L6,77 L6,84 L4,80 L2,80 L-1,70 L-4,53 L-4,23 L-3,12 Z " fill="#999DB2" transform="translate(362,346)"/>
<path d="M0,0 L5,3 L11,5 L12,8 L15,8 L16,12 L18,12 L21,18 L23,22 L25,22 L34,33 L38,39 L41,38 L48,28 L50,28 L49,33 L47,35 L45,40 L41,46 L37,45 L33,38 L25,29 L18,21 L9,12 L6,7 L2,4 L2,2 L0,2 Z " fill="#979798" transform="translate(602,251)"/>
<path d="M0,0 L6,0 L5,2 L2,3 L2,5 L-16,8 L-24,9 L-49,9 L-69,6 L-72,4 L-53,4 L-47,5 L-24,6 L-24,4 L-20,3 L-6,2 Z " fill="#5D5C5D" transform="translate(542,531)"/>
<path d="M0,0 L6,0 L2,2 L-5,12 L-14,23 L-19,29 L-21,29 L-23,33 L-29,39 L-31,39 L-31,41 L-49,54 L-63,62 L-65,62 L-65,59 L-56,55 L-52,51 L-48,50 L-43,45 L-30,35 L-21,26 L-12,15 L-6,7 L-4,3 Z " fill="#ABADAE" transform="translate(917,461)"/>
<path d="M0,0 L2,1 L-3,6 L-6,6 L-7,9 L-19,15 L-32,19 L-44,21 L-55,21 L-69,19 L-75,17 L-75,13 L-78,12 L-73,13 L-68,15 L-60,16 L-40,16 L-27,14 L-11,8 L-7,3 Z " fill="#8B8B8B" transform="translate(563,464)"/>
<path d="M0,0 L2,1 L-1,11 L-10,28 L-18,39 L-29,51 L-36,57 L-41,62 L-50,68 L-52,68 L-50,64 L-41,57 L-33,51 L-27,42 L-20,36 L-14,27 L-10,21 L-8,16 L-4,10 Z " fill="#8E9092" transform="translate(443,295)"/>
<path d="M0,0 L6,0 L12,4 L17,11 L20,18 L21,24 L21,36 L18,43 L15,46 L14,43 L16,37 L16,21 L12,12 L12,10 L9,9 L9,7 L7,6 L8,4 L1,2 L0,12 L-2,22 L-4,28 L-6,37 L-8,39 L-7,33 L-4,21 L-3,18 L-1,1 Z " fill="#989F98" transform="translate(937,390)"/>
<path d="M0,0 L7,0 L12,5 L12,13 L8,18 L3,22 L-8,27 L-11,26 L-6,23 L1,20 L6,15 L8,12 L7,7 L6,6 L0,6 L-6,10 L-8,10 L-9,13 L-13,15 L-22,17 L-32,17 L-32,15 L-17,12 L-8,7 L-5,6 L-5,4 Z " fill="#B6BAB7" transform="translate(810,453)"/>
<path d="M0,0 L10,0 L20,5 L29,14 L32,20 L37,25 L40,28 L42,33 L43,37 L38,32 L30,22 L26,17 L26,15 L24,15 L18,8 L11,4 L-2,4 L-15,9 L-20,10 L-22,11 L-20,7 L-18,7 L-18,5 L-13,3 L-3,1 Z " fill="#919192" transform="translate(937,259)"/>
<path d="M0,0 L4,2 L13,3 L27,10 L48,17 L62,19 L63,21 L70,22 L70,23 L61,23 L45,20 L24,14 L8,6 L3,5 Z " fill="#9F9F9F" transform="translate(697,503)"/>
<path d="M0,0 L1,0 L1,24 L-1,24 L-2,34 L-13,46 L-25,52 L-35,54 L-45,54 L-45,52 L-52,54 L-54,55 L-52,51 L-34,50 L-22,47 L-13,41 L-7,34 L-3,24 L-1,17 Z " fill="#A6A5A8" transform="translate(968,409)"/>
<path d="M0,0 L1,0 L2,18 L7,28 L15,35 L17,17 L21,1 L23,1 L22,10 L20,22 L18,38 L11,37 L2,28 L-1,22 L-1,1 Z " fill="#B2B2B3" transform="translate(601,334)"/>
<path d="M0,0 L16,0 L16,3 L-1,4 L-17,9 L-25,15 L-34,20 L-39,24 L-44,24 L-43,22 L-39,21 L-39,18 L-25,9 L-13,3 Z " fill="#7E7E7F" transform="translate(935,246)"/>
<path d="M0,0 L10,0 L17,3 L25,10 L28,16 L28,31 L24,39 L17,45 L16,42 L21,36 L24,30 L24,18 L19,9 L15,6 L10,4 L-3,3 L-3,1 Z " fill="#969696" transform="translate(835,361)"/>
<path d="M0,0 L1,0 L2,11 L4,17 L6,27 L10,37 L12,40 L12,46 L14,46 L15,51 L14,52 L0,52 L-5,49 L-3,48 L12,50 L10,48 L7,44 L0,24 L-1,18 L1,18 L0,13 Z " fill="#ABABAB" transform="translate(348,400)"/>
<path d="M0,0 L3,2 L6,10 L9,14 L14,34 L14,70 L13,70 L12,49 L11,42 L9,38 L7,29 L3,11 L0,3 Z " fill="#7D7D7F" transform="translate(912,323)"/>
<path d="M0,0 L12,0 L12,1 L1,2 L-8,7 L-12,13 L-12,26 L-10,31 L-5,36 L-3,40 L14,41 L15,43 L-1,43 L-9,38 L-14,32 L-16,26 L-16,14 L-11,4 L-9,4 L-9,2 Z " fill="#767576" transform="translate(438,365)"/>
<path d="M0,0 L7,6 L18,18 L27,25 L29,26 L32,31 L43,38 L45,41 L40,40 L29,33 L20,26 L15,21 L9,16 L2,8 Z " fill="#989898" transform="translate(653,477)"/>
<path d="M0,0 L5,0 L24,11 L39,22 L48,30 L54,32 L52,35 L47,34 L42,29 L37,26 L29,18 L26,17 L26,15 L21,14 L11,8 L4,5 L4,3 L0,2 Z " fill="#C3C3C3" transform="translate(843,234)"/>
<path d="M0,0 L3,0 L9,9 L13,13 L16,21 L13,20 L3,7 L2,5 L-2,7 L-8,16 L-11,20 L-13,20 L-15,24 L-19,29 L-21,29 L-21,31 L-27,36 L-32,37 L-27,32 L-21,25 L-16,20 L-8,10 L-2,2 Z " fill="#8D8E8F" transform="translate(640,463)"/>
<path d="M0,0 L8,0 L16,3 L20,7 L22,11 L23,16 L16,11 L12,7 L-4,7 L-12,12 L-12,6 L-4,1 Z " fill="#5E5E5E" transform="translate(719,331)"/>
<path d="M0,0 L6,0 L16,8 L22,11 L22,13 L15,12 L8,6 L0,6 L-1,7 L-1,12 L4,18 L14,23 L17,24 L18,27 L13,26 L2,20 L-5,14 L-5,5 Z " fill="#A2A2A0" transform="translate(471,453)"/>
<path d="M0,0 L6,1 L22,9 L37,19 L38,22 L40,22 L40,24 L44,26 L47,29 L46,31 L41,28 L30,19 L30,17 L25,16 L16,11 L4,5 L3,3 L0,2 Z " fill="#8D8E8D" transform="translate(564,231)"/>
<path d="M0,0 L1,0 L2,10 L-3,19 L-9,24 L-13,26 L-26,26 L-35,22 L-41,16 L-42,11 L-39,12 L-33,19 L-27,22 L-16,22 L-10,20 L-4,13 L-1,7 Z " fill="#939393" transform="translate(581,352)"/>
<path d="M0,0 L5,1 L14,8 L25,23 L28,29 L30,33 L30,36 L33,37 L33,39 L29,39 L23,29 L21,28 L18,23 L16,18 L5,6 Z " fill="#99999A" transform="translate(701,188)"/>
<path d="M0,0 L5,0 L5,2 L-17,10 L-26,12 L-31,16 L-35,17 L-39,21 L-50,27 L-54,30 L-56,29 L-50,24 L-46,22 L-43,22 L-42,19 L-37,16 L-33,12 L-13,4 Z " fill="#ABABAC" transform="translate(467,224)"/>
<path d="M0,0 L0,3 L-2,6 L-4,6 L-6,10 L-8,10 L-9,13 L-11,13 L-13,17 L-25,25 L-27,25 L-27,27 L-34,30 L-37,30 L-37,32 L-44,33 L-41,31 L-36,27 L-35,25 L-24,19 L-16,13 L-8,6 L-5,7 L-5,5 Z " fill="#727273" transform="translate(765,256)"/>
<path d="M0,0 L4,2 L12,6 L20,9 L31,14 L44,18 L59,20 L59,21 L42,21 L23,15 L9,9 L1,5 L1,2 Z " fill="#706F6F" transform="translate(695,514)"/>
<path d="M0,0 L0,3 L-4,9 L-6,14 L-14,23 L-20,28 L-22,28 L-24,32 L-27,33 L-27,35 L-31,38 L-33,38 L-31,34 L-18,21 L-9,9 L-4,2 Z " fill="#BEBFC1" transform="translate(905,455)"/>
<path d="M0,0 L15,7 L23,9 L39,10 L39,12 L54,10 L53,12 L44,14 L27,14 L20,12 L20,10 L9,9 L-3,2 Z " fill="#8D8D8D" transform="translate(739,458)"/>
<path d="M0,0 L8,0 L20,2 L32,6 L40,10 L47,12 L51,14 L52,17 L45,16 L28,9 L10,4 L1,2 Z " fill="#8E8E8E" transform="translate(796,234)"/>
<path d="M0,0 L12,1 L33,7 L43,11 L41,12 L42,14 L45,16 L38,15 L32,12 L29,10 L20,7 L4,4 L0,2 Z " fill="#979797" transform="translate(802,222)"/>
<path d="M0,0 L6,1 L9,4 L10,9 L11,24 L13,31 L13,39 L12,39 L10,30 L7,30 L5,18 L4,6 L0,1 Z " fill="#727273" transform="translate(612,383)"/>
<path d="M0,0 L3,1 L-1,4 L-9,6 L-45,6 L-52,5 L-53,3 L-23,3 Z " fill="#A6A6A7" transform="translate(812,520)"/>
<path d="M0,0 L1,4 L-3,11 L-7,24 L-6,32 L-7,30 L-9,30 L-10,39 L-11,42 L-12,53 L-12,91 L-13,91 L-14,84 L-14,45 L-12,34 L-10,28 L-7,13 L-1,3 Z " fill="#5C5D5E" transform="translate(371,316)"/>
<path d="M0,0 L4,1 L-2,4 L-3,6 L-16,9 L-36,9 L-48,7 L-53,5 L-53,10 L-54,10 L-54,4 L-44,5 L-12,5 Z " fill="#888889" transform="translate(988,345)"/>
<path d="M0,0 L9,0 L16,4 L16,6 L8,5 L7,4 L2,4 L1,5 L1,14 L6,26 L7,30 L4,31 L-3,15 L-4,6 L-2,1 Z " fill="#727272" transform="translate(587,198)"/>
<path d="M0,0 L10,0 L18,3 L20,4 L20,6 L24,8 L27,15 L25,16 L19,9 L15,6 L10,5 L10,3 L-2,5 L-10,9 L-12,10 L-11,6 L-6,2 Z " fill="#ABABAB" transform="translate(555,331)"/>
<path d="M0,0 L4,1 L-9,10 L-11,10 L-10,17 L-3,26 L1,33 L1,35 L-3,33 L-7,27 L-15,17 L-16,11 L-9,5 L-1,1 Z " fill="#A5A2A2" transform="translate(918,267)"/>
<path d="M0,0 L1,2 L0,13 L-2,17 L-3,29 L-1,29 L-2,33 L-4,33 L-4,70 L-6,68 L-7,60 L-7,33 L-6,23 L-4,16 L-1,1 Z " fill="#5D5E5F" transform="translate(636,333)"/>
<path d="M0,0 L6,0 L19,9 L28,15 L40,21 L40,23 L30,20 L25,17 L14,13 L10,9 L10,7 L6,5 L0,1 Z " fill="#8C8B8C" transform="translate(829,313)"/>
<path d="M0,0 L4,3 L4,5 L8,7 L9,10 L13,12 L18,17 L19,20 L23,22 L29,27 L33,31 L37,34 L36,36 L31,34 L22,27 L16,20 L8,13 L2,5 L0,3 Z " fill="#CDD5D5" transform="translate(797,278)"/>
<path d="M0,0 L8,0 L18,3 L26,6 L38,11 L46,15 L46,17 L49,18 L45,19 L26,10 L12,5 L0,1 Z " fill="#969696" transform="translate(535,237)"/>
<path d="M0,0 L1,3 L-3,10 L-15,23 L-26,32 L-32,36 L-38,38 L-36,34 L-28,29 L-17,20 L-8,11 Z " fill="#A3A3B2" transform="translate(417,315)"/>
<path d="M0,0 L5,2 L20,8 L27,11 L38,15 L38,17 L31,16 L19,13 L11,10 L11,8 L5,7 L-2,3 L0,2 Z " fill="#7D7D7D" transform="translate(448,271)"/>
<path d="M0,0 L5,1 L3,2 L5,10 L6,24 L7,26 L11,27 L11,32 L2,29 L1,27 Z " fill="#A3A3A5" transform="translate(935,350)"/>
<path d="M0,0 L7,1 L10,4 L10,14 L3,27 L-2,33 L-4,33 L-5,36 L-9,35 L-2,29 L2,23 L6,14 L6,5 L-4,5 L-3,1 Z " fill="#ACB0AF" transform="translate(573,427)"/>
<path d="M0,0 L3,1 L-1,3 L-16,8 L-31,14 L-41,19 L-45,20 L-49,21 L-45,17 L-34,11 L-27,8 L-24,6 L-16,5 L-13,3 Z " fill="#A2A2A3" transform="translate(744,237)"/>
<path d="M0,0 L13,1 L16,2 L35,2 L39,1 L50,1 L48,3 L33,6 L18,6 L4,3 L0,1 Z " fill="#919191" transform="translate(748,479)"/>
<path d="M0,0 L6,3 L13,9 L18,14 L28,21 L33,23 L33,25 L37,26 L36,28 L24,23 L13,15 L3,6 L0,2 Z " fill="#999999" transform="translate(710,452)"/>
<path d="M0,0 L2,1 L3,27 L4,41 L1,41 L-1,34 L-1,1 Z " fill="#B4B5B7" transform="translate(632,365)"/>
<path d="M0,0 L2,1 L-8,10 L-15,16 L-21,16 L-31,14 L-39,9 L-43,7 L-39,6 L-37,7 L-36,5 L-31,8 L-19,11 L-19,14 L-14,12 L-1,1 Z " fill="#585858" transform="translate(680,254)"/>
<path d="M0,0 L4,2 L14,7 L15,10 L19,11 L20,12 L28,13 L28,15 L32,16 L32,22 L27,26 L29,22 L31,17 L27,18 L14,13 L1,5 Z " fill="#555555" transform="translate(621,262)"/>
<path d="M0,0 L12,3 L19,4 L31,4 L48,1 L47,4 L43,4 L43,6 L38,7 L14,7 L-2,3 L-3,1 Z " fill="#828282" transform="translate(934,334)"/>
<path d="M0,0 L9,3 L14,7 L18,8 L18,10 L23,11 L31,18 L35,23 L35,25 L39,27 L42,32 L38,30 L30,22 L28,21 L28,19 L23,17 L16,11 L0,1 Z " fill="#939393" transform="translate(844,250)"/>
<path d="M0,0 L2,1 L6,24 L8,31 L8,38 L6,34 L4,34 L1,24 L0,19 Z " fill="#BBC1C2" transform="translate(360,392)"/>
<path d="M0,0 L6,0 L2,3 L-11,7 L-22,7 L-34,4 L-34,2 L-28,3 L-27,1 L-24,2 L-7,2 Z " fill="#717173" transform="translate(631,201)"/>
<path d="M0,0 L7,1 L26,3 L29,4 L76,4 L76,5 L64,7 L35,7 L12,4 L0,1 Z " fill="#212121" transform="translate(499,303)"/>
<path d="M0,0 L2,1 L-2,2 L-3,5 L-8,8 L-13,12 L-17,17 L-18,20 L-20,20 L-21,25 L-23,25 L-25,38 L-26,38 L-26,30 L-27,28 L-24,20 L-19,12 L-14,10 L-12,7 L-7,4 Z " fill="#9D9D9E" transform="translate(340,381)"/>
<path d="M0,0 L4,5 L9,11 L12,13 L27,13 L32,8 L34,9 L31,12 L29,16 L25,17 L14,17 L7,14 L-1,7 L1,6 Z " fill="#989898" transform="translate(821,391)"/>
<path d="M0,0 L9,0 L8,6 L6,13 L4,13 L3,20 L0,32 L-2,35 L-1,28 L0,22 L-2,22 L1,11 L5,2 L-2,3 L-2,1 Z " fill="#A0A0A1" transform="translate(624,313)"/>
<path d="M0,0 L5,5 L13,14 L25,23 L29,25 L29,27 L22,25 L14,21 L5,11 L2,8 L0,4 Z " fill="#B3B3B3" transform="translate(614,234)"/>
<path d="M0,0 L3,0 L3,4 L1,4 L-1,8 L-9,14 L-18,17 L-19,18 L-26,18 L-26,16 L-16,12 L-4,5 L0,1 Z " fill="#686B6C" transform="translate(1009,318)"/>
<path d="M0,0 L4,1 L-7,8 L-17,13 L-26,17 L-43,22 L-47,21 L-43,18 L-34,16 L-23,12 L-13,9 L-8,5 L-3,4 L-2,1 Z " fill="#888888" transform="translate(751,285)"/>
<path d="M0,0 L2,1 L1,7 L-4,11 L-8,15 L-17,19 L-17,21 L-30,21 L-34,22 L-53,22 L-56,20 L-40,20 L-23,18 L-17,16 L-14,16 L-14,14 L-3,8 L-1,6 Z " fill="#3E3E3E" transform="translate(817,460)"/>
<path d="M0,0 L4,2 L11,18 L12,21 L13,27 L15,33 L11,29 L9,23 L5,19 L3,14 L1,6 Z " fill="#B8B8B8" transform="translate(365,426)"/>
<path d="M0,0 L2,1 L-3,6 L-6,6 L-7,9 L-19,15 L-32,19 L-37,19 L-38,17 L-21,12 L-10,7 L-7,3 Z " fill="#A9A9A8" transform="translate(563,464)"/>
<path d="M0,0 L3,0 L2,4 L-5,6 L-10,6 L-10,8 L-23,10 L-36,10 L-36,8 L-12,4 L-2,1 Z " fill="#989898" transform="translate(590,289)"/>
<path d="M0,0 L7,0 L11,3 L11,5 L1,4 L-1,8 L-2,15 L-5,20 L-7,26 L-9,23 L-4,5 Z " fill="#BEBFC2" transform="translate(437,268)"/>
<path d="M0,0 L2,1 L6,13 L13,16 L23,18 L52,18 L52,16 L56,15 L58,12 L58,14 L61,15 L60,17 L52,20 L19,20 L7,17 L4,14 L0,4 Z " fill="#494949" transform="translate(925,322)"/>
<path d="M0,0 L2,0 L1,4 L-3,9 L-14,15 L-26,15 L-25,6 L-21,2 L-19,3 L-23,13 L-10,9 L-2,3 Z " fill="#B4B5B9" transform="translate(950,434)"/>
<path d="M0,0 L5,0 L7,2 L10,9 L17,17 L20,22 L27,29 L26,32 L20,27 L11,16 L4,6 L2,3 L-2,1 Z " fill="#BFBFBF" transform="translate(364,462)"/>
<path d="M0,0 L8,1 L8,3 L1,2 L0,9 L1,11 L-1,11 L-6,21 L-9,26 L-14,36 L-18,40 L-17,36 L-11,25 L-8,18 L-5,9 Z " fill="#353536" transform="translate(445,285)"/>
<path d="M0,0 L2,0 L2,2 L-12,11 L-24,17 L-34,20 L-33,17 L-19,11 L-16,8 L-5,3 Z " fill="#949495" transform="translate(1019,331)"/>
<path d="M0,0 L2,0 L7,12 L16,27 L19,31 L19,33 L15,31 L11,28 L8,23 L5,15 L5,12 L3,12 L1,9 Z " fill="#AEAFB0" transform="translate(643,434)"/>
<path d="M0,0 L28,0 L30,1 L42,2 L45,4 L23,3 L-2,3 L-13,5 L-17,5 L-17,3 Z " fill="#303030" transform="translate(763,231)"/>
<path d="M0,0 L6,0 L8,6 L9,24 L7,24 L4,11 L4,3 L-1,6 L-4,10 L-6,10 L-5,5 Z " fill="#BEB9BE" transform="translate(340,394)"/>
<path d="M0,0 L6,0 L12,4 L15,8 L14,10 L11,8 L10,10 L9,7 L7,6 L8,4 L1,2 L0,12 L-2,22 L-4,28 L-6,37 L-8,39 L-7,33 L-4,21 L-3,18 L-1,1 Z " fill="#545657" transform="translate(937,390)"/>
<path d="M0,0 L4,2 L7,0 L6,4 L4,4 L4,15 L-1,24 L-7,30 L-12,31 L-23,31 L-27,28 L-9,28 L-2,22 L1,14 L1,4 Z " fill="#2F3030" transform="translate(577,344)"/>
<path d="M0,0 L2,0 L3,2 L3,10 L-1,15 L-6,19 L-17,24 L-20,23 L-15,20 L-8,17 L-3,12 L-1,9 L-2,4 L-9,2 L-9,1 Z " fill="#AFB0AE" transform="translate(819,456)"/>
<path d="M0,0 L6,2 L10,4 L19,5 L29,7 L33,8 L45,8 L44,10 L19,10 L3,5 L0,2 Z " fill="#494948" transform="translate(864,346)"/>
<path d="M0,0 L2,0 L5,6 L10,12 L20,17 L29,17 L30,20 L20,20 L11,17 L3,10 L0,5 Z " fill="#CECECF" transform="translate(330,430)"/>
<path d="M0,0 L1,2 L-2,9 L-6,26 L-8,35 L-10,46 L-11,57 L-12,57 L-12,44 L-9,23 L-8,22 L-7,14 L-3,5 Z " fill="#504F50" transform="translate(358,322)"/>
<path d="M0,0 L7,1 L13,4 L31,10 L40,13 L40,15 L33,14 L17,9 L4,3 L2,3 L0,8 L-2,7 Z " fill="#8A8A8A" transform="translate(446,287)"/>
<path d="M0,0 L1,4 L0,5 L0,29 L2,35 L5,44 L2,42 L2,38 L0,38 L-3,30 L-4,23 L-4,11 L-1,1 Z " fill="#363637" transform="translate(591,326)"/>
<path d="M0,0 L4,1 L-2,5 L-13,10 L-29,11 L-28,9 L-7,3 Z " fill="#7E7E7E" transform="translate(726,283)"/>
<path d="M0,0 L2,2 L2,16 L-2,24 L-9,30 L-13,29 L-7,24 L-2,18 L-1,1 Z " fill="#9C9C9D" transform="translate(466,376)"/>
<path d="M0,0 L2,1 L-3,3 L-3,5 L-14,10 L-21,12 L-25,13 L-33,13 L-33,11 L-12,5 Z " fill="#B2B3B3" transform="translate(566,510)"/>
<path d="M0,0 L10,0 L17,3 L25,10 L26,15 L20,11 L15,6 L10,4 L-3,3 L-3,1 Z " fill="#B8B8BA" transform="translate(835,361)"/>
<path d="M0,0 L1,4 L-3,17 L-6,35 L-8,35 L-8,23 L-6,19 L-5,8 L-2,1 Z " fill="#D8D8D9" transform="translate(641,327)"/>
<path d="M0,0 L8,0 L16,3 L18,8 L14,6 L14,4 L-2,5 L-6,7 L-10,7 L-8,3 Z " fill="#D2D2D2" transform="translate(719,331)"/>
<path d="M0,0 L7,0 L7,3 L1,4 L-28,4 L-28,1 L-13,1 Z " fill="#A2A2A4" transform="translate(525,522)"/>
<path d="M0,0 L6,2 L7,5 L13,5 L14,8 L37,8 L33,10 L30,12 L21,12 L11,10 L8,7 L5,6 L5,4 L0,2 Z " fill="#999999" transform="translate(331,453)"/>
<path d="M0,0 L2,0 L7,10 L16,19 L20,21 L20,23 L13,22 L6,15 L1,8 Z " fill="#AEAEB2" transform="translate(719,436)"/>
<path d="M0,0 L10,0 L10,1 L1,2 L-4,5 L-14,9 L-21,12 L-25,13 L-32,15 L-29,12 L-20,8 L-14,4 L-6,2 Z " fill="#787A7A" transform="translate(678,195)"/>
<path d="M0,0 L6,0 L22,10 L26,12 L25,15 L13,10 L1,2 Z " fill="#B6B5B5" transform="translate(413,496)"/>
<path d="M0,0 L1,0 L2,18 L7,28 L11,32 L10,34 L5,31 L2,28 L-1,22 L-1,1 Z " fill="#C8C8C8" transform="translate(601,334)"/>
<path d="M0,0 L10,0 L12,2 L-2,4 L-15,9 L-20,10 L-22,11 L-20,7 L-18,7 L-18,5 L-13,3 L-3,1 Z " fill="#787778" transform="translate(937,259)"/>
<path d="M0,0 L11,0 L24,2 L43,3 L46,5 L23,5 L3,2 Z " fill="#8B8B8B" transform="translate(470,535)"/>
<path d="M0,0 L1,0 L1,43 L-3,53 L-5,60 L-7,60 L-5,50 L-2,41 L-1,33 Z " fill="#39393A" transform="translate(926,367)"/>
<path d="M0,0 L4,1 L12,5 L17,7 L22,9 L22,11 L29,13 L29,15 L33,17 L31,18 L12,9 L1,2 Z " fill="#878787" transform="translate(835,333)"/>
<path d="M0,0 L1,0 L1,16 L0,26 L-1,27 L-6,27 L-18,16 L-19,12 L-21,12 L-20,8 L-15,16 L-9,22 L-2,24 L-1,8 Z " fill="#4F4F50" transform="translate(621,348)"/>
<path d="M0,0 L4,1 L-3,8 L-12,20 L-13,22 L-15,22 L-16,24 L-20,26 L-18,22 L-8,9 Z " fill="#9B9C9A" transform="translate(399,278)"/>
<path d="M0,0 L0,3 L-4,8 L-8,11 L-10,11 L-10,13 L-20,15 L-30,15 L-31,10 L-27,2 L-26,4 L-28,13 L-16,12 L-4,5 Z " fill="#4C4C4F" transform="translate(952,436)"/>
<path d="M0,0 L2,1 L23,1 L33,0 L30,3 L19,5 L3,6 L3,3 L0,2 Z " fill="#818181" transform="translate(674,304)"/>
<path d="M0,0 L2,1 L2,3 L5,4 L14,21 L15,28 L12,26 L9,18 L7,18 L0,3 Z " fill="#AAAAAA" transform="translate(904,306)"/>
<path d="M0,0 L4,1 L-1,6 L-6,9 L-19,20 L-23,20 L-23,18 L-18,15 L-16,15 L-14,11 Z " fill="#ACABAB" transform="translate(684,248)"/>
<path d="M0,0 L6,0 L16,8 L22,11 L22,13 L15,12 L6,5 L-3,4 Z " fill="#B0B0B0" transform="translate(471,453)"/>
<path d="M0,0 L2,0 L1,8 L-2,17 L-4,17 L-4,30 L-6,37 L-7,37 L-8,26 L-6,25 L-4,9 Z " fill="#B4B4B4" transform="translate(589,322)"/>
<path d="M0,0 L4,2 L11,4 L12,2 L21,5 L22,7 L38,9 L38,10 L22,10 L14,8 L3,5 Z " fill="#6A696A" transform="translate(482,462)"/>
<path d="M0,0 L4,4 L9,13 L18,25 L15,26 L13,22 L11,22 L9,17 L5,16 L1,6 Z " fill="#D7D7D7" transform="translate(376,447)"/>
<path d="M0,0 L2,1 L2,9 L4,10 L-5,18 L-7,18 L-7,20 L-11,22 L-16,23 L-11,18 L-6,14 L-3,9 L1,7 Z " fill="#959A9C" transform="translate(1032,310)"/>
<path d="M0,0 L6,0 L11,5 L11,12 L5,16 L-2,17 L-2,15 L6,12 L7,10 L7,4 L0,3 L-5,4 L-5,2 Z " fill="#ACACAC" transform="translate(599,286)"/>
<path d="M0,0 L5,1 L12,3 L28,9 L44,13 L46,15 L36,14 L26,11 L15,7 L1,2 Z " fill="#3D3B3C" transform="translate(453,288)"/>
<path d="M0,0 L5,1 L12,9 L11,11 L4,3 L1,3 L-6,11 L-12,16 L-17,16 L-12,11 L-4,4 Z " fill="#8D8E8E" transform="translate(769,269)"/>
<path d="M0,0 L4,2 L13,3 L27,10 L30,11 L30,13 L25,13 L23,11 L15,9 L8,6 L3,5 Z " fill="#9A979A" transform="translate(697,503)"/>
<path d="M0,0 L7,6 L18,18 L15,18 L9,16 L2,8 Z " fill="#7F7F80" transform="translate(653,477)"/>
<path d="M0,0 L4,1 L5,2 L5,11 L2,13 L-9,13 L-19,10 L-19,9 L2,9 L2,2 Z " fill="#757575" transform="translate(906,346)"/>
<path d="M0,0 L0,3 L-8,10 L-20,21 L-23,20 L-18,16 L-20,14 L-9,5 L-5,4 Z " fill="#919392" transform="translate(614,478)"/>
<path d="M0,0 L1,4 L-4,5 L-6,9 L-13,14 L-21,17 L-25,18 L-25,16 L-14,10 L-5,4 L-3,4 L-3,2 Z " fill="#B3B3B3" transform="translate(870,492)"/>
<path d="M0,0 L2,0 L1,10 L3,12 L13,11 L14,13 L10,15 L1,15 L-3,11 L-3,3 Z " fill="#B8B8B8" transform="translate(376,352)"/>
<path d="M0,0 L5,0 L21,9 L20,13 L11,8 L4,5 L4,3 L0,2 Z " fill="#929C9B" transform="translate(843,234)"/>
<path d="M0,0 L3,0 L9,9 L13,13 L16,21 L13,20 L3,7 L2,5 L-2,6 Z " fill="#B2B2B3" transform="translate(640,463)"/>
<path d="M0,0 L4,4 L4,10 L6,10 L7,15 L6,16 L-8,16 L-13,13 L-11,12 L4,14 L2,12 L1,9 Z " fill="#5E5D5F" transform="translate(356,436)"/>
<path d="M0,0 L2,1 L-8,7 L-13,12 L-19,22 L-21,18 L-15,9 L-7,2 L-3,1 Z " fill="#A7A7A8" transform="translate(611,304)"/>
<path d="M0,0 L2,1 L-4,5 L-5,7 L-20,12 L-25,11 L-21,9 L-11,5 Z " fill="#827E82" transform="translate(568,523)"/>
<path d="M0,0 L8,0 L10,1 L25,1 L28,0 L29,2 L48,3 L48,4 L23,4 L5,3 L0,1 Z " fill="#676767" transform="translate(468,523)"/>
<path d="M0,0 L10,0 L10,3 L-2,5 L-10,9 L-12,10 L-11,6 L-6,2 Z " fill="#B6B6B7" transform="translate(555,331)"/>
<path d="M0,0 L3,1 L-4,7 L-6,7 L-7,10 L-15,17 L-19,16 L-11,8 Z " fill="#8E9096" transform="translate(419,261)"/>
<path d="M0,0 L6,1 L20,8 L20,11 L9,8 L4,5 L3,3 L0,2 Z " fill="#BABABA" transform="translate(564,231)"/>
<path d="M0,0 L15,0 L25,3 L29,4 L29,6 L31,9 L25,7 L15,3 L-3,2 Z " fill="#504F51" transform="translate(675,184)"/>
<path d="M0,0 L4,1 L-3,4 L-9,5 L-27,6 L-31,10 L-29,5 L-27,3 L-1,1 Z " fill="#313234" transform="translate(943,455)"/>
<path d="M0,0 L3,1 L-3,6 L-8,11 L-17,17 L-19,17 L-17,13 L-8,6 Z " fill="#A1A1A1" transform="translate(410,346)"/>
<path d="M0,0 L6,1 L13,2 L16,1 L25,4 L24,7 L28,8 L24,9 L11,4 L2,2 Z " fill="#818182" transform="translate(540,226)"/>
<path d="M0,0 L17,0 L30,1 L30,3 L8,3 L1,2 Z " fill="#C5C5C5" transform="translate(759,523)"/>
<path d="M0,0 L3,3 L5,6 L3,6 L7,23 L6,27 L4,22 L2,21 L1,13 L0,12 Z " fill="#6E6E70" transform="translate(632,403)"/>
<path d="M0,0 L1,0 L1,10 L-10,16 L-13,19 L-16,19 L-18,23 L-22,24 L-19,19 L-11,13 L-1,8 Z " fill="#C4C4CA" transform="translate(344,369)"/>
<path d="M0,0 L1,3 L-3,10 L-13,21 L-18,22 L-12,15 L-4,6 Z " fill="#BFBFC2" transform="translate(417,315)"/>
<path d="M0,0 L2,0 L5,5 L15,15 L19,19 L24,22 L28,25 L28,27 L24,26 L22,23 L17,20 L13,17 L10,17 L9,12 L1,4 Z " fill="#515151" transform="translate(380,478)"/>
<path d="M0,0 L0,3 L-4,9 L-6,14 L-14,23 L-14,20 L-8,12 L-10,11 L-4,2 Z " fill="#888990" transform="translate(905,455)"/>
<path d="M0,0 L2,1 L2,9 L4,24 L5,31 L2,28 L0,21 L-1,7 Z " fill="#9B9B9C" transform="translate(313,410)"/>
<path d="M0,0 L11,0 L19,4 L21,8 L15,5 L15,3 L2,3 L-6,5 L-8,9 L-11,11 L-9,7 L-4,2 Z " fill="#4F4F50" transform="translate(834,364)"/>
<path d="M0,0 L2,0 L2,2 L-6,6 L-10,9 L-21,12 L-29,15 L-37,16 L-33,14 L-29,12 L-22,10 L-15,7 L-8,5 L-4,1 Z " fill="#39393A" transform="translate(746,287)"/>
<path d="M0,0 L9,6 L24,7 L24,10 L11,10 L5,7 L0,2 Z " fill="#424243" transform="translate(706,366)"/>
<path d="M0,0 L4,1 L13,11 L16,17 L17,21 L12,16 L4,6 Z " fill="#ABABAB" transform="translate(963,275)"/>
<path d="M0,0 L19,3 L25,6 L24,8 L10,5 L0,3 Z " fill="#BEBFC1" transform="translate(529,221)"/>
<path d="M0,0 L5,0 L6,1 L6,9 L4,8 L4,3 L-3,5 L-8,10 L-10,10 L-12,16 L-14,21 L-15,21 L-15,15 L-13,15 L-12,11 L-7,6 Z " fill="#404042" transform="translate(342,391)"/>
<path d="M0,0 L5,1 L4,3 L-13,8 L-18,7 L-15,4 L-6,2 Z " fill="#7C7C7C" transform="translate(594,302)"/>
<path d="M0,0 L6,3 L13,9 L18,15 L9,12 L0,2 Z " fill="#7B7A7C" transform="translate(710,452)"/>
<path d="M0,0 L2,0 L1,11 L-1,27 L-3,25 L-3,12 Z " fill="#BFBFB4" transform="translate(362,346)"/>
<path d="M0,0 L12,3 L31,5 L31,6 L10,6 L-2,3 L-3,1 Z " fill="#9F9F9F" transform="translate(934,334)"/>
<path d="M0,0 L5,3 L11,5 L12,8 L15,8 L16,12 L18,12 L19,16 L16,14 L12,13 L7,8 L2,4 L2,2 L0,2 Z " fill="#DCDCD4" transform="translate(602,251)"/>
<path d="M0,0 L0,3 L-5,6 L-6,8 L-16,13 L-19,16 L-22,16 L-20,12 L-9,5 Z " fill="#9A9A9A" transform="translate(430,238)"/>
<path d="M0,0 L2,1 L-8,9 L-10,9 L-11,12 L-16,14 L-20,18 L-28,20 L-24,16 L-14,10 Z " fill="#4C4D4F" transform="translate(880,500)"/>
<path d="M0,0 L2,0 L1,5 L-2,11 L-7,16 L-11,20 L-9,22 L-17,25 L-20,24 L-10,16 L-5,11 L-2,6 Z " fill="#57585B" transform="translate(576,442)"/>
<path d="M0,0 L4,2 L11,9 L19,14 L15,15 L8,11 L0,4 Z " fill="#AFAFAF" transform="translate(993,289)"/>
<path d="M0,0 L0,3 L-6,12 L-12,15 L-15,18 L-17,18 L-15,14 L-7,5 L-4,5 Z " fill="#939398" transform="translate(623,466)"/>
<path d="M0,0 L2,0 L1,5 L-2,8 L-3,11 L-4,23 L-6,23 L-7,21 L-7,13 L-2,3 Z " fill="#B3B3B6" transform="translate(706,338)"/>
<path d="M0,0 L13,2 L25,5 L26,7 L13,6 L1,2 Z " fill="#868686" transform="translate(486,301)"/>
<path d="M0,0 L1,3 L-5,13 L-7,13 L-9,18 L-12,24 L-15,23 L-8,11 Z " fill="#AEB1AF" transform="translate(376,284)"/>
<path d="M0,0 L12,0 L12,2 L1,4 L-11,4 L-11,2 Z " fill="#8B8B90" transform="translate(484,221)"/>
<path d="M0,0 L1,0 L2,11 L4,17 L6,27 L8,32 L7,36 L3,26 L2,19 L-1,18 L1,18 L0,13 Z " fill="#706F70" transform="translate(348,400)"/>
<path d="M0,0 L4,2 L9,5 L9,7 L26,8 L27,10 L11,10 L3,5 Z " fill="#A7A7A7" transform="translate(426,398)"/>
<path d="M0,0 L10,1 L36,2 L36,3 L21,4 L18,5 L6,3 L1,1 L1,6 L0,6 Z " fill="#737373" transform="translate(934,349)"/>
<path d="M0,0 L3,1 L-4,5 L-17,11 L-22,11 L-20,10 L-20,8 L-10,4 L-1,1 Z " fill="#B5B5B5" transform="translate(654,206)"/>
<path d="M0,0 L16,0 L27,4 L23,6 L15,3 L0,2 Z " fill="#B1B0B2" transform="translate(675,182)"/>
<path d="M0,0 L2,0 L1,4 L-10,6 L-13,7 L-14,9 L-22,11 L-30,13 L-34,12 L-24,9 L-15,6 L-8,3 Z " fill="#4D4C4E" transform="translate(850,520)"/>
<path d="M0,0 L4,1 L11,5 L17,9 L17,11 L12,12 L0,1 Z " fill="#818382" transform="translate(665,494)"/>
<path d="M0,0 L2,0 L4,19 L1,20 L0,18 L-2,19 Z " fill="#919591" transform="translate(585,339)"/>
<path d="M0,0 L1,4 L-2,13 L-3,16 L-5,16 L-7,22 L-9,22 L-8,15 L-5,8 L-3,9 Z " fill="#9E9E9E" transform="translate(433,284)"/>
<path d="M0,0 L5,5 L8,9 L10,14 L14,18 L13,20 L1,8 Z " fill="#A7A9A6" transform="translate(789,268)"/>
<path d="M0,0 L4,2 L2,4 L-2,5 L-6,9 L-17,15 L-21,18 L-23,17 L-17,12 L-13,10 L-10,10 L-9,7 L-4,4 Z " fill="#454545" transform="translate(434,236)"/>
<path d="M0,0 L2,1 L-2,2 L-3,5 L-8,8 L-13,12 L-17,17 L-18,20 L-20,20 L-19,12 L-14,10 L-12,7 L-7,4 Z " fill="#6A6A6A" transform="translate(340,381)"/>
<path d="M0,0 L3,2 L6,10 L8,16 L8,23 L6,23 L2,9 Z " fill="#A7A6A7" transform="translate(912,323)"/>
<path d="M0,0 L3,1 L3,3 L1,4 L-9,5 L-21,5 L-19,3 Z " fill="#777777" transform="translate(575,307)"/>
<path d="M0,0 L6,5 L6,9 L10,11 L15,16 L16,18 L9,16 L2,8 L1,3 Z " fill="#747374" transform="translate(977,289)"/>
<path d="M0,0 L5,2 L11,8 L17,10 L15,13 L10,12 L0,2 Z " fill="#CFCECE" transform="translate(880,256)"/>
<path d="M0,0 L9,3 L12,5 L10,5 L11,7 L14,9 L7,8 L1,5 L-2,2 Z " fill="#5F5F5F" transform="translate(833,229)"/>
<path d="M0,0 L2,1 L-1,4 L-15,11 L-19,10 L-16,10 L-16,8 L-12,6 L-10,3 L-6,1 Z " fill="#89898A" transform="translate(579,505)"/>
<path d="M0,0 L21,0 L20,3 L5,3 L0,1 Z " fill="#B0B1B2" transform="translate(503,468)"/>
<path d="M0,0 L7,1 L10,4 L10,12 L8,11 L8,5 L-4,5 L-3,1 Z " fill="#D6D7DB" transform="translate(573,427)"/>
<path d="M0,0 L4,2 L-5,10 L-13,13 L-13,11 L-2,2 Z " fill="#949394" transform="translate(406,253)"/>
<path d="M0,0 L6,2 L14,6 L14,8 L17,9 L13,10 L-2,3 L0,2 Z " fill="#7D7D7D" transform="translate(567,246)"/>
<path d="M0,0 L24,0 L23,2 L17,3 L7,3 L7,1 L0,3 L-2,4 Z " fill="#B9B9BA" transform="translate(916,460)"/>
<path d="M0,0 L2,0 L1,5 L-5,14 L-10,20 L-11,17 L-1,3 Z " fill="#BFC2C1" transform="translate(628,453)"/>
<path d="M0,0 L2,0 L3,10 L-3,19 L-3,16 L-3,10 L-2,5 L0,5 Z " fill="#9C9C9D" transform="translate(632,441)"/>
<path d="M0,0 L1,0 L2,13 L3,17 L6,18 L4,18 L6,27 L4,27 L1,21 L1,14 L-1,14 L-1,1 Z " fill="#69696A" transform="translate(326,412)"/>
<path d="M0,0 L3,1 L9,8 L16,12 L15,14 L9,12 L1,5 Z " fill="#9F9F9F" transform="translate(539,363)"/>
<path d="M0,0 L10,2 L20,5 L20,7 L8,6 L0,2 Z " fill="#A7A7A7" transform="translate(487,287)"/>
<path d="M0,0 L2,0 L11,11 L19,20 L18,22 L12,17 L9,12 L6,12 L4,8 L2,4 Z " fill="#6C6B6B" transform="translate(609,275)"/>
<path d="M0,0 L3,1 L-8,6 L-20,10 L-23,10 L-23,8 L-18,6 L-12,6 L-11,3 Z " fill="#A5A5A5" transform="translate(848,523)"/>
<path d="M0,0 L2,0 L2,12 L-1,24 L-4,27 L-3,20 L-1,20 Z " fill="#BDC3C4" transform="translate(970,413)"/>
<path d="M0,0 L1,0 L1,5 L-7,13 L-10,13 L-8,8 L-4,3 Z " fill="#6E6E70" transform="translate(421,333)"/>
<path d="M0,0 L2,1 L0,6 L-7,14 L-10,18 L-12,18 L-11,14 L-3,4 Z " fill="#A0A2A3" transform="translate(669,279)"/>
<path d="M0,0 L4,1 L13,11 L17,16 L16,19 L9,12 L2,3 Z " fill="#B3B4B2" transform="translate(770,271)"/>
<path d="M0,0 L8,0 L20,2 L25,4 L21,5 L14,5 L1,2 Z " fill="#616261" transform="translate(796,234)"/>
<path d="M0,0 L5,0 L5,2 L-17,10 L-19,9 L-17,7 L-8,4 L-7,2 Z " fill="#6A6A6B" transform="translate(467,224)"/>
<path d="M0,0 L4,1 L4,3 L-2,4 L-23,3 L-27,2 L-28,5 L-28,1 L-5,1 Z " fill="#555457" transform="translate(630,215)"/>
<path d="M0,0 L0,3 L-14,14 L-17,13 L-12,8 L-4,2 Z " fill="#AFB4B3" transform="translate(611,498)"/>
<path d="M0,0 L1,2 L0,13 L-2,17 L-3,29 L-1,29 L-2,33 L-4,32 L-4,16 L-1,1 Z " fill="#808081" transform="translate(636,333)"/>
<path d="M0,0 L4,2 L16,14 L22,21 L21,23 L14,15 L9,14 L10,12 L6,7 L1,2 Z " fill="#666767" transform="translate(875,269)"/>
<path d="M0,0 L4,2 L8,2 L14,9 L15,15 L8,9 L0,1 Z " fill="#A1A1A1" transform="translate(611,262)"/>
<path d="M0,0 L3,2 L5,8 L6,13 L8,13 L11,20 L11,23 L13,23 L12,27 L10,24 L10,21 L5,20 L6,16 L1,5 Z " fill="#444444" transform="translate(587,210)"/>
<path d="M0,0 L4,2 L15,8 L26,10 L27,13 L22,12 L13,9 L3,5 Z " fill="#393A3A" transform="translate(733,458)"/>
<path d="M0,0 L2,0 L1,10 L3,10 L5,19 L7,20 L3,19 L-1,11 L-2,4 Z " fill="#C3C3C5" transform="translate(704,431)"/>
<path d="M0,0 L12,0 L12,1 L1,2 L-8,7 L-12,11 L-11,4 L-9,4 L-9,2 Z " fill="#6F6F70" transform="translate(438,365)"/>
<path d="M0,0 L3,3 L8,16 L7,19 L4,18 L1,7 L1,5 Z " fill="#B6B6B6" transform="translate(926,317)"/>
<path d="M0,0 L3,0 L2,4 L-10,7 L-16,7 L-16,5 L-5,2 Z " fill="#A7A7A7" transform="translate(590,289)"/>
<path d="M0,0 L4,2 L12,9 L17,15 L17,17 L14,16 L14,14 L12,14 L9,10 L7,11 L5,9 L6,8 L5,6 L2,5 Z " fill="#9B9B9B" transform="translate(606,249)"/>
<path d="M0,0 L6,0 L5,2 L2,3 L1,5 L-24,5 L-20,3 L-6,2 Z " fill="#404041" transform="translate(542,531)"/>
<path d="M0,0 L1,0 L2,5 L3,20 L5,27 L5,35 L4,35 L2,26 L-1,25 L1,25 Z " fill="#575657" transform="translate(620,387)"/>
<path d="M0,0 L5,2 L11,8 L11,10 L15,11 L18,15 L17,17 L6,8 L1,3 Z " fill="#A9A9A9" transform="translate(799,303)"/>
<path d="M0,0 L2,1 L-3,4 L-15,8 L-20,9 L-31,9 L-31,8 L-13,5 L-10,3 Z " fill="#303031" transform="translate(645,208)"/>
<path d="M0,0 L28,0 L26,4 L2,2 Z " fill="#646464" transform="translate(499,480)"/>
<path d="M0,0 L4,3 L7,3 L7,5 L9,5 L12,9 L12,15 L7,11 L1,3 Z " fill="#A8A8A8" transform="translate(656,463)"/>
<path d="M0,0 L2,4 L5,17 L5,24 L2,20 L0,13 Z " fill="#EBEBE8" transform="translate(363,406)"/>
<path d="M0,0 L6,3 L11,10 L9,10 L8,14 L4,9 L4,5 L2,5 Z " fill="#A9A9A9" transform="translate(984,279)"/>
<path d="M0,0 L2,1 L-1,4 L-10,9 L-15,13 L-20,13 L-19,11 L-15,10 L-15,7 L-10,4 L-10,6 L-1,1 Z " fill="#787979" transform="translate(911,257)"/>
<path d="M0,0 L20,2 L19,4 L4,4 L-6,2 L-6,1 Z " fill="#AAAAAA" transform="translate(474,521)"/>
<path d="M0,0 L10,0 L10,1 L3,3 L3,8 L7,13 L3,11 L-1,10 L-1,1 Z " fill="#9C9B9C" transform="translate(467,457)"/>
<path d="M0,0 L7,0 L9,4 L0,5 L-6,7 L-5,4 Z " fill="#C4C1C1" transform="translate(810,453)"/>
<path d="M0,0 L8,0 L13,6 L13,11 L9,13 L9,5 L0,1 Z " fill="#B8B7B8" transform="translate(901,343)"/>
<path d="M0,0 L3,1 L11,14 L11,16 L7,14 L3,8 L1,6 Z " fill="#BEBCBD" transform="translate(908,286)"/>
<path d="M0,0 L4,0 L7,6 L7,8 L9,9 L10,16 L5,11 L2,7 Z " fill="#A3A3A3" transform="translate(606,225)"/>
<path d="M0,0 L9,0 L16,4 L16,6 L8,5 L7,2 L-2,4 L-2,1 Z " fill="#A9AAAB" transform="translate(587,198)"/>
<path d="M0,0 L13,3 L23,6 L23,7 L14,7 L3,4 Z " fill="#393839" transform="translate(727,518)"/>
<path d="M0,0 L11,0 L9,2 L-6,5 L-9,5 L-9,3 Z " fill="#6E6E6E" transform="translate(787,480)"/>
<path d="M0,0 L4,4 L4,7 L6,7 L8,12 L10,16 L6,15 L1,7 Z " fill="#A7A7A9" transform="translate(587,357)"/>
<path d="M0,0 L2,1 L-1,11 L-7,23 L-8,23 L-8,18 L-3,7 Z " fill="#ABACAC" transform="translate(443,295)"/>
<path d="M0,0 L1,3 L-5,14 L-9,18 L-7,9 L-3,3 Z " fill="#B8BABB" transform="translate(382,301)"/>
<path d="M0,0 L5,2 L8,5 L13,8 L13,10 L17,11 L18,15 L14,13 L1,2 Z " fill="#B8B8B8" transform="translate(391,494)"/>
<path d="M0,0 L5,1 L7,2 L7,4 L3,4 L1,15 L-1,15 L-1,6 Z " fill="#B5BCB6" transform="translate(938,392)"/>
<path d="M0,0 L11,0 L15,2 L-1,4 L-8,5 L-5,2 Z " fill="#B9B9BA" transform="translate(439,362)"/>
<path d="M0,0 L5,2 L18,9 L18,11 L8,8 L0,3 Z " fill="#C3C3C3" transform="translate(851,325)"/>
<path d="M0,0 L1,4 L-3,11 L-6,21 L-9,23 L-7,13 L-1,3 Z " fill="#4A4A4A" transform="translate(371,316)"/>
<path d="M0,0 L3,0 L1,7 L-3,15 L-5,11 L-3,5 Z " fill="#9D9D9E" transform="translate(361,308)"/>
<path d="M0,0 L5,2 L9,6 L13,9 L12,11 L7,9 L-2,2 Z " fill="#B1B1B1" transform="translate(821,303)"/>
<path d="M0,0 L2,1 L2,11 L4,12 L4,14 L-1,12 L-3,10 L-3,4 Z " fill="#B4B5B4" transform="translate(673,295)"/>
<path d="M0,0 L2,0 L1,5 L-8,16 L-10,16 L-10,13 L-7,10 Z " fill="#D0D4D2" transform="translate(650,279)"/>
<path d="M0,0 L4,1 L-7,8 L-17,13 L-18,11 L-12,8 L-6,4 L-3,4 L-2,1 Z " fill="#B0B0B1" transform="translate(751,285)"/>
<path d="M0,0 L2,1 L6,11 L7,14 L9,14 L12,23 L9,21 L8,16 L5,15 L1,7 Z " fill="#4F5051" transform="translate(639,432)"/>
<path d="M0,0 L7,1 L26,3 L33,5 L33,6 L25,6 L6,3 L0,1 Z " fill="#313131" transform="translate(499,303)"/>
<path d="M0,0 L5,0 L1,3 L-11,8 L-16,9 L-13,5 L-8,3 Z " fill="#9D9D9D" transform="translate(453,243)"/>
<path d="M0,0 L2,0 L7,12 L9,16 L6,16 L5,12 L3,12 L1,9 Z " fill="#BFBFC4" transform="translate(643,434)"/>
<path d="M0,0 L6,2 L10,5 L18,7 L30,8 L30,9 L17,9 L6,6 L0,1 Z " fill="#4B4B4C" transform="translate(1002,301)"/>
<path d="M0,0 L10,2 L14,4 L19,5 L19,6 L8,6 L-1,3 L-2,1 Z " fill="#929193" transform="translate(1012,303)"/>
<path d="M0,0 L8,1 L8,3 L1,2 L0,9 L1,11 L-1,11 L-4,17 L-5,13 L-2,4 Z " fill="#656565" transform="translate(445,285)"/>
<path d="M0,0 L6,0 L16,6 L16,8 L9,6 L1,2 Z " fill="#AEAEAF" transform="translate(627,253)"/>
<path d="M0,0 L8,0 L5,4 L-6,4 L-10,6 L-16,6 L-12,4 L-8,2 Z " fill="#4A4A4A" transform="translate(476,234)"/>
<path d="M0,0 L2,1 L-3,4 L-15,8 L-20,8 L-18,6 L-10,2 L-4,2 Z " fill="#888889" transform="translate(653,193)"/>
<path d="M0,0 L16,1 L24,3 L24,5 L8,3 L0,1 Z " fill="#929292" transform="translate(738,534)"/>
<path d="M0,0 L3,3 L4,8 L9,7 L9,13 L12,19 L11,21 L7,15 L6,11 L2,7 Z " fill="#767676" transform="translate(368,438)"/>
<path d="M0,0 L18,2 L18,4 L9,5 L0,2 Z " fill="#969696" transform="translate(712,374)"/>
<path d="M0,0 L2,1 L-2,5 L-2,8 L-15,9 L-17,6 L-10,6 L-1,1 Z " fill="#4E4D4E" transform="translate(394,356)"/>
<path d="M0,0 L1,4 L-1,10 L-3,19 L-5,22 L-4,15 L-3,9 L-5,9 L-3,3 L0,3 Z " fill="#686768" transform="translate(627,326)"/>
<path d="M0,0 L5,0 L5,2 L-11,5 L-18,4 L-18,3 Z " fill="#6D6D6E" transform="translate(820,532)"/>
<path d="M0,0 L6,2 L16,9 L14,11 L9,9 L5,6 L5,4 L1,2 Z " fill="#BFBEBF" transform="translate(691,496)"/>
<path d="M0,0 L1,4 L0,5 L-2,20 L-3,20 L-3,13 L-5,12 L-2,2 Z " fill="#ACABAC" transform="translate(350,340)"/>
<path d="M0,0 L2,1 L-2,7 L-7,12 L-12,17 L-11,10 L-9,10 L-7,5 L-5,6 L-3,5 Z " fill="#7B7A7B" transform="translate(387,273)"/>
<path d="M0,0 L15,0 L15,2 L-2,3 L-7,4 L-6,1 Z " fill="#B4B5C2" transform="translate(935,246)"/>
<path d="M0,0 L4,2 L7,7 L7,10 L10,11 L10,13 L6,13 L1,5 Z " fill="#BBBBBD" transform="translate(724,214)"/>
<path d="M0,0 L9,3 L22,7 L22,8 L14,8 L7,5 L0,1 Z " fill="#414041" transform="translate(446,515)"/>
<path d="M0,0 L3,2 L6,7 L13,14 L12,17 L6,12 L1,5 Z " fill="#A9A9AA" transform="translate(378,477)"/>
<path d="M0,0 L1,4 L-4,15 L-9,24 L-10,20 L-4,10 Z " fill="#515152" transform="translate(918,429)"/>
<path d="M0,0 L5,2 L11,6 L11,8 L14,9 L11,10 L6,7 L-1,3 Z " fill="#B6B5B5" transform="translate(946,378)"/>
<path d="M0,0 L7,3 L9,2 L12,4 L13,9 L4,6 L0,2 Z " fill="#747474" transform="translate(839,320)"/>
<path d="M0,0 L4,1 L-6,5 L-18,7 L-26,7 L-26,6 L-14,4 L-8,4 L-8,2 Z " fill="#3D3D3D" transform="translate(588,293)"/>
<path d="M0,0 L6,0 L5,3 L2,2 L-13,6 L-18,7 L-15,6 L-15,4 L-6,1 Z " fill="#5D5E5D" transform="translate(742,236)"/>
<path d="M0,0 L2,0 L4,5 L3,9 L-1,11 L-6,11 L-6,9 L0,6 L-1,1 Z " fill="#B3B4B5" transform="translate(714,225)"/>
<path d="M0,0 L1,0 L1,24 L-1,24 L-3,28 L-2,20 L-1,17 Z " fill="#6E6F72" transform="translate(968,409)"/>
<path d="M0,0 L1,4 L-2,19 L-4,19 L-4,9 Z " fill="#A2A2A2" transform="translate(426,370)"/>
<path d="M0,0 L1,3 L-4,12 L-7,17 L-10,18 L-8,12 L-5,7 L-3,6 Z " fill="#464647" transform="translate(374,290)"/>
<path d="M0,0 L7,1 L14,3 L15,1 L16,4 L21,6 L21,7 L12,6 L0,1 Z " fill="#3D3C3D" transform="translate(472,285)"/>
<path d="M0,0 L7,1 L15,5 L15,7 L6,4 L2,3 L0,8 L-2,7 Z " fill="#BABABA" transform="translate(446,287)"/>
<path d="M0,0 L2,0 L2,5 L-6,12 L-7,9 L-2,3 Z " fill="#A0A0A0" transform="translate(858,394)"/>
<path d="M0,0 L1,2 L4,3 L3,5 L-5,8 L-17,8 L-17,7 L-5,6 L-5,4 L-1,3 Z " fill="#2C2C2D" transform="translate(982,334)"/>
<path d="M0,0 L13,2 L13,3 L2,4 L-2,6 L-6,6 L-4,2 Z " fill="#AEAEAE" transform="translate(715,332)"/>
<path d="M0,0 L1,4 L-1,9 L-1,15 L-5,16 L-7,20 L-7,15 L-5,13 L-3,6 Z " fill="#5A595A" transform="translate(644,313)"/>
<path d="M0,0 L3,4 L12,8 L12,9 L6,9 L-2,4 L-6,2 L-2,1 L0,2 Z " fill="#3E3E3E" transform="translate(643,259)"/>
<path d="M0,0 L13,1 L21,2 L21,3 L2,4 Z " fill="#1A1919" transform="translate(467,532)"/>
<path d="M0,0 L21,1 L21,2 L16,3 L5,3 L-1,2 Z " fill="#91928C" transform="translate(503,482)"/>
<path d="M0,0 L2,0 L4,5 L6,5 L8,8 L12,10 L12,12 L13,16 L8,11 L2,6 Z " fill="#868586" transform="translate(383,464)"/>
<path d="M0,0 L3,1 L4,3 L4,13 L1,12 Z " fill="#CDCBCC" transform="translate(919,347)"/>
<path d="M0,0 L6,1 L10,3 L11,1 L14,3 L14,5 L19,6 L15,7 L4,3 Z " fill="#757575" transform="translate(859,333)"/>
<path d="M0,0 L4,1 L-4,7 L-7,13 L-9,14 L-11,17 L-10,12 L-4,4 Z " fill="#4B4C4C" transform="translate(610,317)"/>
<path d="M0,0 L8,2 L13,7 L12,10 L0,1 Z " fill="#999999" transform="translate(580,255)"/>
<path d="M0,0 L4,1 L9,11 L8,14 L4,9 L0,2 Z " fill="#AAABAB" transform="translate(593,230)"/>
<path d="M0,0 L18,0 L18,3 L1,3 Z " fill="#BFBFBF" transform="translate(496,523)"/>
<path d="M0,0 L4,1 L-12,10 L-14,10 L-14,7 L-5,3 Z " fill="#B5B5B5" transform="translate(866,513)"/>
<path d="M0,0 L2,1 L3,3 L-3,6 L-7,7 L-13,10 L-15,9 L-5,3 Z " fill="#818282" transform="translate(593,510)"/>
<path d="M0,0 L1,0 L1,5 L-2,11 L-5,14 L-7,14 L-5,9 Z " fill="#C0C0C2" transform="translate(909,443)"/>
<path d="M0,0 L17,1 L19,2 L19,4 L9,4 L0,1 Z " fill="#B3B3BD" transform="translate(341,446)"/>
<path d="M0,0 L1,0 L2,20 L0,20 L-1,17 L-1,3 Z " fill="#454545" transform="translate(598,336)"/>
<path d="M0,0 L17,5 L17,7 L8,6 L5,5 L5,3 L0,2 Z " fill="#A8A8A8" transform="translate(873,336)"/>
<path d="M0,0 L1,2 L6,0 L23,0 L23,1 L7,2 L-1,7 L-1,1 Z " fill="#414141" transform="translate(708,336)"/>
<path d="M0,0 L8,0 L8,2 L-4,4 L-6,6 L-10,5 L-7,2 Z " fill="#535353" transform="translate(557,334)"/>
<path d="M0,0 L3,4 L7,13 L6,17 L3,12 L1,7 L-1,7 Z " fill="#6C6C6C" transform="translate(912,317)"/>
<path d="M0,0 L4,1 L11,9 L10,13 L1,3 Z " fill="#BABAB9" transform="translate(886,283)"/>
<path d="M0,0 L2,1 L-4,9 L-5,12 L-3,13 L-8,15 L-11,17 L-9,12 Z " fill="#454546" transform="translate(662,285)"/>
<path d="M0,0 L2,1 L-1,2 L-1,4 L-8,7 L-11,7 L-11,9 L-18,10 L-15,8 L-10,4 L-8,2 L-8,4 Z " fill="#545454" transform="translate(739,279)"/>
<path d="M0,0 L4,1 L-3,8 L-7,12 L-6,7 Z " fill="#B9BCBD" transform="translate(399,278)"/>
<path d="M0,0 L5,1 L12,9 L11,11 L4,3 L1,3 L0,5 L-5,6 Z " fill="#7E7F7E" transform="translate(769,269)"/>
<path d="M0,0 L16,5 L16,7 L6,6 L0,2 Z " fill="#C1C1C1" transform="translate(644,260)"/>
<path d="M0,0 L9,3 L14,7 L18,8 L18,11 L13,9 L0,1 Z " fill="#B0B0B0" transform="translate(844,250)"/>
<path d="M0,0 L10,3 L14,7 L5,6 L0,3 Z " fill="#7D7C7D" transform="translate(427,518)"/>
<path d="M0,0 L6,0 L6,1 L-2,3 L-4,7 L-9,10 L-13,9 L-9,7 L-5,3 Z " fill="#343434" transform="translate(810,458)"/>
<path d="M0,0 L7,0 L11,3 L10,7 L7,4 L-1,3 L-2,1 Z " fill="#D4D5D6" transform="translate(708,428)"/>
<path d="M0,0 L1,0 L1,5 L3,6 L1,13 L-1,14 L-3,20 L-4,16 L-1,7 Z " fill="#969799" transform="translate(936,402)"/>
<path d="M0,0 L3,1 L4,3 L8,4 L8,9 L1,7 Z " fill="#929896" transform="translate(938,373)"/>
<path d="M0,0 L8,0 L18,2 L18,4 L10,4 L0,1 Z " fill="#9A9B9A" transform="translate(887,355)"/>
<path d="M0,0 L1,4 L2,10 L1,8 L-1,8 L-2,17 L-4,20 L-4,12 L-2,6 Z " fill="#757576" transform="translate(363,338)"/>
<path d="M0,0 L2,1 L-2,6 L-3,9 L-8,10 L-6,4 L-3,1 L-1,1 Z " fill="#949495" transform="translate(546,338)"/>
<path d="M0,0 L11,0 L11,6 L9,7 L10,1 L-1,2 L-1,4 L-7,5 L-9,4 Z " fill="#606061" transform="translate(623,312)"/>
<path d="M0,0 L2,0 L2,6 L-2,16 L-4,13 Z " fill="#CFCFCF" transform="translate(432,278)"/>
<path d="M0,0 L3,1 L-3,6 L-9,9 L-11,9 L-9,5 Z " fill="#BBBCBB" transform="translate(912,254)"/>
<path d="M0,0 L5,3 L7,9 L11,9 L12,13 L10,13 L9,15 L7,14 L4,9 L2,4 Z " fill="#6E6E6E" transform="translate(715,202)"/>
<path d="M0,0 L2,0 L1,4 L-8,12 L-9,9 L-3,4 Z " fill="#C0C0C1" transform="translate(560,445)"/>
<path d="M0,0 L2,0 L2,11 L4,11 L5,17 L3,17 L0,11 Z " fill="#AAAAAA" transform="translate(817,380)"/>
<path d="M0,0 L1,2 L0,15 L-2,22 L-3,22 L-4,11 L-2,10 L-1,1 Z " fill="#C6C6C6" transform="translate(585,337)"/>
<path d="M0,0 L3,0 L3,4 L1,4 L0,7 L-6,8 L-6,10 L-8,10 L-6,6 L0,2 Z " fill="#939393" transform="translate(1009,318)"/>
<path d="M0,0 L2,1 L-11,13 L-14,12 L-9,8 L-11,6 L-7,4 L-5,4 Z " fill="#676673" transform="translate(605,486)"/>
<path d="M0,0 L6,1 L14,4 L18,7 L9,7 L8,5 L5,4 L5,2 L0,1 Z " fill="#484849" transform="translate(738,473)"/>
<path d="M0,0 L5,1 L8,7 L7,9 L4,5 L4,3 L-1,6 L-4,8 L-2,4 Z " fill="#48494C" transform="translate(639,460)"/>
<path d="M0,0 L2,1 L-4,5 L-6,5 L-7,8 L-11,10 L-15,9 L-10,6 L-8,6 L-6,2 Z " fill="#8C8D8D" transform="translate(808,458)"/>
<path d="M0,0 L2,0 L4,3 L4,15 L2,12 L0,5 Z " fill="#C5C7C5" transform="translate(620,413)"/>
<path d="M0,0 L1,4 L-5,8 L-11,10 L-9,6 L-1,1 Z " fill="#B8B8B8" transform="translate(390,343)"/>
<path d="M0,0 L10,1 L17,2 L17,4 L9,4 L0,1 Z " fill="#999999" transform="translate(508,293)"/>
<path d="M0,0 L4,3 L4,5 L8,7 L9,10 L13,12 L10,13 L5,8 L0,3 Z " fill="#DFDFDF" transform="translate(797,278)"/>
<path d="M0,0 L2,1 L-8,10 L-16,10 L-19,9 L-19,7 L-9,8 Z " fill="#161616" transform="translate(674,261)"/>
<path d="M0,0 L2,1 L-7,11 L-11,14 L-13,13 L-8,7 L-3,4 Z " fill="#232324" transform="translate(399,263)"/>
<path d="M0,0 L5,5 L9,10 L8,12 L3,9 L0,4 Z " fill="#BCBCBC" transform="translate(614,234)"/>
<path d="M0,0 L4,3 L7,12 L4,13 L0,3 Z " fill="#AAAAAA" transform="translate(587,216)"/>
<path d="M0,0 L1,0 L3,9 L7,17 L7,20 L3,19 L1,10 L0,7 Z " fill="#626263" transform="translate(706,434)"/>
<path d="M0,0 L2,0 L3,15 L0,16 Z " fill="#E6E6E8" transform="translate(328,414)"/>
<path d="M0,0 L4,2 L7,0 L6,4 L4,4 L4,15 L3,15 Z " fill="#6A6A6B" transform="translate(577,344)"/>
<path d="M0,0 L8,0 L4,2 L1,3 L-17,3 L-17,2 L-4,1 Z " fill="#242424" transform="translate(694,295)"/>
<path d="M0,0 L4,0 L4,2 L8,3 L8,9 L3,13 L5,9 L7,4 L3,5 L0,2 Z " fill="#727172" transform="translate(645,275)"/>
<path d="M0,0 L3,1 L10,10 L9,12 L4,9 L0,2 Z " fill="#CBCBCB" transform="translate(978,269)"/>
<path d="M0,0 L4,2 L8,8 L13,9 L13,15 L6,9 L3,6 Z " fill="#6B6A6B" transform="translate(966,258)"/>
<path d="M0,0 L6,0 L6,2 L-1,5 L-5,6 L-9,7 L-5,3 Z " fill="#858585" transform="translate(704,251)"/>
<path d="M0,0 L4,1 L-3,2 L-3,4 L-11,7 L-16,8 L-14,5 L-5,2 Z " fill="#484848" transform="translate(456,240)"/>
<path d="M0,0 L3,3 L7,10 L7,17 L5,16 L4,8 L1,9 L0,2 Z " fill="#727273" transform="translate(712,217)"/>
<path d="M0,0 L2,1 L-4,7 L-9,8 L-11,12 L-14,12 L-10,7 L-5,6 L-5,1 L-4,3 Z " fill="#525254" transform="translate(876,490)"/>
<path d="M0,0 L6,0 L2,2 L-5,12 L-7,12 L-5,8 L-2,2 Z " fill="#C2C3C8" transform="translate(917,461)"/>
<path d="M0,0 L4,2 L9,4 L11,8 L9,11 L0,1 Z " fill="#9C9B9B" transform="translate(953,385)"/>
<path d="M0,0 L2,2 L5,14 L5,19 L3,15 L2,13 L-1,11 L1,11 Z " fill="#706E6E" transform="translate(919,335)"/>
<path d="M0,0 L1,4 L-1,9 L-5,12 L-4,6 L-2,1 Z " fill="#ACACAC" transform="translate(641,327)"/>
<path d="M0,0 L2,0 L2,2 L-6,6 L-10,9 L-15,10 L-13,7 L-8,5 L-4,1 Z " fill="#5D5D5E" transform="translate(746,287)"/>
<path d="M0,0 L5,5 L9,11 L9,13 L5,12 L4,6 L1,5 Z " fill="#DADADA" transform="translate(716,199)"/>
<path d="M0,0 L4,2 L11,10 L13,16 L8,11 L4,5 Z " fill="#505050" transform="translate(699,201)"/>
<path d="M0,0 L5,0 L7,2 L8,7 L5,8 L2,3 L-2,1 Z " fill="#A3ABAB" transform="translate(364,462)"/>
<path d="M0,0 L6,0 L9,2 L9,4 L-3,4 Z " fill="#E2DAE2" transform="translate(471,453)"/>
<path d="M0,0 L2,0 L5,9 L4,14 L2,11 L0,5 Z " fill="#CBCBCB" transform="translate(348,419)"/>
<path d="M0,0 L2,1 L-1,4 L-3,8 L-18,7 L-18,6 L-5,5 Z " fill="#686868" transform="translate(853,399)"/>
<path d="M0,0 L3,2 L3,19 L-1,22 L0,17 L1,16 L1,3 Z " fill="#424242" transform="translate(462,375)"/>
<path d="M0,0 L2,0 L0,6 L-7,12 L-12,13 L-7,9 L-3,5 L-1,5 Z " fill="#DEDFDF" transform="translate(579,364)"/>
<path d="M0,0 L1,3 L-3,6 L-10,6 L-10,4 Z " fill="#949796" transform="translate(993,330)"/>
<path d="M0,0 L1,3 L-1,10 L-4,17 L-6,17 L-5,12 L-1,2 Z " fill="#A2A3A4" transform="translate(374,312)"/>
<path d="M0,0 L5,1 L12,3 L17,6 L15,7 L1,2 Z " fill="#4A4A4A" transform="translate(453,288)"/>
<path d="M0,0 L2,1 L-3,5 L-5,5 L-4,13 L-6,13 L-6,11 L-8,11 L-8,6 Z " fill="#E4E4E4" transform="translate(912,272)"/>
<path d="M0,0 L4,1 L5,3 L8,4 L13,10 L13,12 L9,10 L7,6 L3,4 L2,1 Z " fill="#CBCBCB" transform="translate(601,271)"/>
<path d="M0,0 L5,2 L5,0 L9,2 L13,7 L10,7 L1,2 Z " fill="#858591" transform="translate(579,240)"/>
<path d="M0,0 L19,0 L15,2 L5,3 L0,1 Z " fill="#9A9A9B" transform="translate(609,218)"/>
<path d="M0,0 L2,1 L-2,5 L-10,8 L-13,7 Z " fill="#B7B8B8" transform="translate(548,457)"/>
<path d="M0,0 L2,1 L2,9 L4,10 L1,12 L-3,12 L-5,13 L-3,9 L1,7 Z " fill="#515152" transform="translate(1032,310)"/>
<path d="M0,0 L10,0 L6,2 L1,3 L-6,3 L-7,1 Z " fill="#9B9C9C" transform="translate(533,535)"/>
<path d="M0,0 L1,4 L-4,5 L-6,9 L-10,11 L-7,5 L-3,4 L-3,2 Z " fill="#9E9F9F" transform="translate(870,492)"/>
<path d="M0,0 L0,3 L-4,10 L-11,12 L-6,7 Z " fill="#949696" transform="translate(619,488)"/>
<path d="M0,0 L2,1 L1,10 L0,12 L-2,11 L-1,5 L-3,3 L-9,2 L-9,1 Z " fill="#7A7A7A" transform="translate(819,456)"/>
<path d="M0,0 L2,0 L6,6 L8,11 L4,9 L1,5 Z " fill="#D4D4D4" transform="translate(654,456)"/>
<path d="M0,0 L3,1 L3,3 L8,5 L8,7 L13,8 L14,10 L7,8 L-1,2 Z " fill="#B7B7B8" transform="translate(328,452)"/>
<path d="M0,0 L6,2 L7,5 L13,5 L14,7 L5,6 L5,4 L0,2 Z " fill="#515152" transform="translate(331,453)"/>
<path d="M0,0 L4,2 L7,8 L7,12 L5,12 L0,2 Z " fill="#BBBBBC" transform="translate(948,398)"/>
<path d="M0,0 L3,0 L8,10 L5,10 L3,6 L1,5 Z " fill="#D6D6D6" transform="translate(962,393)"/>
<path d="M0,0 L2,1 L-11,14 L-11,11 L-6,5 Z " fill="#101011" transform="translate(334,386)"/>
<path d="M0,0 L3,4 L1,18 L0,18 Z " fill="#A5A6A7" transform="translate(358,369)"/>
<path d="M0,0 L2,4 L2,18 L1,18 L0,11 L-2,7 L0,6 Z " fill="#9B9C9C" transform="translate(923,354)"/>
<path d="M0,0 L2,2 L1,6 L0,5 L-1,22 L-2,22 L-2,4 Z " fill="#898989" transform="translate(601,330)"/>
<path d="M0,0 L5,4 L7,9 L8,13 L3,8 L1,5 Z " fill="#979797" transform="translate(972,283)"/>
<path d="M0,0 L6,1 L11,3 L11,5 L4,4 L-1,2 Z " fill="#9F9F9F" transform="translate(475,283)"/>
<path d="M0,0 L2,0 L1,4 L-5,9 L-6,11 L-8,11 L-6,6 L-1,1 Z " fill="#B7B8B8" transform="translate(677,272)"/>
<path d="M0,0 L2,1 L-2,5 L-7,10 L-11,11 L-11,9 Z " fill="#B4B5B5" transform="translate(755,264)"/>
<path d="M0,0 L7,3 L6,5 L-8,2 L-8,1 Z " fill="#A9AAAB" transform="translate(547,224)"/>
<path d="M0,0 L2,0 L9,10 L8,14 L0,2 Z " fill="#C7C7C8" transform="translate(704,209)"/>
<path d="M0,0 L10,0 L7,2 L1,3 L-7,3 L-4,1 Z " fill="#949494" transform="translate(799,536)"/>
<path d="M0,0 L2,2 L9,3 L9,4 L0,4 L-12,2 L-12,1 L-4,1 L0,2 Z " fill="#828282" transform="translate(758,522)"/>
<path d="M0,0 L3,1 L-10,9 L-13,10 L-13,8 L-7,4 L-1,1 Z " fill="#C8C8C9" transform="translate(587,515)"/>
<path d="M0,0 L5,1 L10,5 L10,7 L6,6 L0,2 Z " fill="#B2B2B1" transform="translate(678,505)"/>
<path d="M0,0 L4,4 L5,14 L1,12 L1,5 Z " fill="#6A6A6B" transform="translate(356,436)"/>
<path d="M0,0 L2,0 L2,6 L-3,9 L-4,11 L-6,10 L-2,3 Z " fill="#898A8D" transform="translate(964,437)"/>
<path d="M0,0 L3,0 L2,6 L-2,10 L-3,7 Z " fill="#9FA0A1" transform="translate(954,426)"/>
<path d="M0,0 L2,0 L3,2 L3,10 L1,11 L-1,6 Z " fill="#979797" transform="translate(624,422)"/>
<path d="M0,0 L3,0 L3,13 L1,13 Z " fill="#C7C6C8" transform="translate(616,386)"/>
<path d="M0,0 L7,2 L7,4 L11,6 L9,7 L0,3 Z " fill="#858585" transform="translate(857,344)"/>
<path d="M0,0 L6,0 L8,1 L7,4 L0,3 L-5,4 L-5,2 Z " fill="#888889" transform="translate(599,286)"/>
<path d="M0,0 L3,1 L-6,7 L-9,7 L-9,5 Z " fill="#A9AAAA" transform="translate(740,276)"/>
<path d="M0,0 L2,1 L-9,9 L-11,8 L-10,4 L-8,3 L-8,5 L-1,1 Z " fill="#515253" transform="translate(752,270)"/>
<path d="M0,0 L5,3 L11,5 L10,10 L2,4 L2,2 L0,2 Z " fill="#EDE9ED" transform="translate(602,251)"/>
<path d="M0,0 L8,0 L16,2 L16,3 L8,4 L0,1 Z " fill="#797A79" transform="translate(535,237)"/>
<path d="M0,0 L4,1 L0,5 L-2,5 L-4,9 L-7,10 L-7,8 L-4,6 L-1,1 Z " fill="#989899" transform="translate(593,493)"/>
<path d="M0,0 L1,2 L3,2 L7,10 L9,14 L3,9 L0,4 Z " fill="#515151" transform="translate(371,464)"/>
<path d="M0,0 L2,0 L3,3 L3,12 L1,12 L0,7 Z " fill="#BCBCCC" transform="translate(618,400)"/>
<path d="M0,0 L2,0 L3,11 L0,11 Z " fill="#E3E3E4" transform="translate(633,395)"/>
<path d="M0,0 L1,0 L1,10 L-4,13 L-8,12 L-1,8 Z " fill="#C7C7C7" transform="translate(344,369)"/>
<path d="M0,0 L1,4 L1,19 L-1,19 L-3,15 L-1,15 L-1,3 Z " fill="#878787" transform="translate(703,346)"/>
<path d="M0,0 L23,0 L23,1 L8,2 L5,3 L5,1 L0,1 Z " fill="#4F4F4F" transform="translate(947,351)"/>
<path d="M0,0 L1,0 L1,7 L-2,13 L-4,14 L-2,5 Z " fill="#C5C5D0" transform="translate(352,328)"/>
<path d="M0,0 L7,0 L16,3 L16,5 L9,4 L0,1 Z " fill="#A3A29A" transform="translate(470,297)"/>
<path d="M0,0 L3,1 L-4,7 L-7,7 L-5,3 Z " fill="#A8A8A9" transform="translate(419,261)"/>
<path d="M0,0 L7,1 L7,3 L10,6 L7,6 L0,2 Z " fill="#959596" transform="translate(951,247)"/>
<path d="M0,0 L5,1 L21,2 L21,3 L1,3 Z " fill="#838383" transform="translate(759,468)"/>
<path d="M0,0 L5,0 L1,2 L-2,4 L-10,3 L-9,1 Z " fill="#6C6B6D" transform="translate(363,461)"/>
<path d="M0,0 L2,0 L1,4 L-3,9 L-5,9 L-4,5 Z " fill="#B5B5B7" transform="translate(950,434)"/>
<path d="M0,0 L3,4 L5,10 L1,10 L0,7 Z " fill="#DCDCDC" transform="translate(371,436)"/>
<path d="M0,0 L1,0 L1,12 L-2,18 L-3,18 L-3,13 L-1,8 Z " fill="#2B2A2B" transform="translate(742,349)"/>
<path d="M0,0 L2,0 L1,14 L-1,12 Z " fill="#D8D8D8" transform="translate(360,359)"/>
<path d="M0,0 L7,0 L5,2 L-5,5 L-4,2 Z " fill="#CABCC6" transform="translate(990,346)"/>
<path d="M0,0 L2,0 L1,9 L-1,9 L-1,12 L-3,11 Z " fill="#C0C0C0" transform="translate(622,335)"/>
<path d="M0,0 L3,2 L6,10 L6,13 L4,13 L0,3 Z " fill="#C9C9C8" transform="translate(912,323)"/>
<path d="M0,0 L12,1 L12,3 L3,3 L0,2 Z " fill="#6B6B6B" transform="translate(528,309)"/>
<path d="M0,0 L2,0 L0,5 L-3,11 L-6,10 Z " fill="#CFCFCF" transform="translate(367,297)"/>
<path d="M0,0 L5,0 L2,3 L-3,5 L-7,5 L-7,3 Z " fill="#979797" transform="translate(728,297)"/>
<path d="M0,0 L13,1 L13,3 L3,3 Z " fill="#9B9B9B" transform="translate(526,296)"/>
<path d="M0,0 L4,5 L7,10 L3,9 L-1,3 Z " fill="#C4C4C4" transform="translate(633,281)"/>
<path d="M0,0 L10,2 L10,4 L13,5 L10,6 L0,2 Z " fill="#BEBEBE" transform="translate(635,273)"/>
<path d="M0,0 L4,1 L4,3 L8,5 L11,10 L7,8 L0,1 Z " fill="#C1C1C1" transform="translate(875,272)"/>
<path d="M0,0 L10,0 L12,2 L4,3 L-3,2 Z " fill="#656466" transform="translate(937,259)"/>
<path d="M0,0 L5,2 L9,4 L9,6 L0,4 L-1,2 Z " fill="#858484" transform="translate(558,242)"/>
<path d="M0,0 L4,0 L3,3 L-1,5 L-6,5 L-4,4 L-4,2 Z " fill="#959595" transform="translate(638,212)"/>
<path d="M0,0 L4,2 L12,6 L10,7 L5,7 L1,4 L1,2 Z " fill="#706E6F" transform="translate(695,514)"/>
<path d="M0,0 L4,5 L7,8 L4,8 L-2,4 L-3,2 L0,2 Z " fill="#7B7A7B" transform="translate(690,494)"/>
<path d="M0,0 L9,1 L13,3 L13,4 L4,3 L0,1 Z " fill="#A8A8A8" transform="translate(748,479)"/>
<path d="M0,0 L1,2 L-3,10 L-6,8 Z " fill="#858789" transform="translate(638,465)"/>
<path d="M0,0 L15,0 L11,2 L7,3 L7,1 L0,3 L-2,4 Z " fill="#7A7C7D" transform="translate(916,460)"/>
<path d="M0,0 L4,2 L10,6 L10,8 L5,7 L0,1 Z " fill="#C7C7C8" transform="translate(729,451)"/>
<path d="M0,0 L2,0 L3,10 L1,12 L1,6 L-2,5 L0,5 Z " fill="#626163" transform="translate(632,441)"/>
<path d="M0,0 L2,1 L2,3 L4,3 L6,9 L0,7 L-1,4 Z " fill="#707070" transform="translate(318,437)"/>
<path d="M0,0 L1,0 L1,6 L-3,12 L-4,8 Z " fill="#BEBDBE" transform="translate(567,432)"/>
<path d="M0,0 L1,0 L1,9 L-1,12 L-3,11 L-1,1 Z " fill="#E6E6E8" transform="translate(921,406)"/>
<path d="M0,0 L2,0 L4,8 L3,13 L1,10 Z " fill="#D3D3D5" transform="translate(635,409)"/>
<path d="M0,0 L2,1 L4,5 L6,5 L7,8 L5,11 L3,11 Z " fill="#939394" transform="translate(964,398)"/>
<path d="M0,0 L6,1 L7,2 L7,7 L3,8 L3,6 L5,6 L5,2 L0,3 Z " fill="#636263" transform="translate(1007,316)"/>
<path d="M0,0 L0,3 L-8,6 L-14,7 L-12,5 Z " fill="#3C3B3C" transform="translate(605,296)"/>
<path d="M0,0 L4,2 L8,3 L10,8 L6,7 Z " fill="#AFAFAF" transform="translate(803,288)"/>
<path d="M0,0 L4,3 L4,6 L7,7 L7,12 L5,8 L3,8 L0,3 Z " fill="#CDCDCD" transform="translate(617,286)"/>
<path d="M0,0 L2,0 L4,4 L11,7 L7,8 L-2,3 L0,2 Z " fill="#727274" transform="translate(448,271)"/>
<path d="M0,0 L6,2 L5,4 L-4,3 L-5,1 Z " fill="#868686" transform="translate(827,227)"/>
<path d="M0,0 L6,2 L10,7 L7,8 L6,5 L2,3 Z " fill="#A5A5A5" transform="translate(696,202)"/>
<path d="M0,0 L2,1 L-4,8 L-6,8 L-6,10 L-8,10 L-6,6 L-2,1 Z " fill="#C3B9B9" transform="translate(625,484)"/>
<path d="M0,0 L11,0 L7,2 L-1,3 L-2,1 Z " fill="#B7B7B7" transform="translate(527,480)"/>
<path d="M0,0 L1,4 L0,6 L2,7 L1,9 L-1,9 L-3,13 L-3,10 Z " fill="#87898A" transform="translate(930,427)"/>
<path d="M0,0 L2,1 L3,11 L1,11 L-1,2 Z " fill="#C8C8C8" transform="translate(346,407)"/>
<path d="M0,0 L4,0 L7,4 L6,6 L3,4 L2,6 L1,3 L-1,2 Z " fill="#717171" transform="translate(945,394)"/>
<path d="M0,0 L2,1 L-2,2 L-3,5 L-8,8 L-11,10 L-9,6 L-3,1 Z " fill="#565557" transform="translate(340,381)"/>
<path d="M0,0 L2,1 L-4,9 L-6,9 L-4,3 Z " fill="#A2A0A1" transform="translate(824,370)"/>
<path d="M0,0 L5,2 L10,6 L9,8 L1,3 Z " fill="#D3D3D3" transform="translate(837,316)"/>
<path d="M0,0 L4,2 L7,5 L7,7 L3,6 L0,4 Z " fill="#B5B5B5" transform="translate(993,289)"/>
<path d="M0,0 L6,2 L8,9 L6,9 Z " fill="#B1B2B1" transform="translate(782,263)"/>
<path d="M0,0 L7,2 L8,6 L10,9 L6,7 Z " fill="#9A9A9A" transform="translate(874,253)"/>
<path d="M0,0 L8,0 L13,2 L13,3 L5,3 L0,1 Z " fill="#414041" transform="translate(468,523)"/>
<path d="M0,0 L4,2 L9,7 L8,10 L3,6 Z " fill="#D9D9D9" transform="translate(393,474)"/>
<path d="M0,0 L2,0 L5,6 L6,8 L2,9 L0,5 Z " fill="#C0C0C0" transform="translate(330,430)"/>
<path d="M0,0 L2,0 L1,3 L-6,8 L-9,8 L-9,6 L-3,3 Z " fill="#C7C3C4" transform="translate(739,369)"/>
<path d="M0,0 L2,1 L-2,5 L-9,8 L-12,7 Z " fill="#404144" transform="translate(1015,331)"/>
<path d="M0,0 L4,1 L10,4 L10,7 L5,5 Z " fill="#909090" transform="translate(987,305)"/>
<path d="M0,0 L2,0 L0,6 L-3,11 L-5,11 L-4,6 L-1,3 Z " fill="#C9C9C9" transform="translate(652,303)"/>
<path d="M0,0 L2,1 L-4,4 L-12,3 L-8,1 Z " fill="#696969" transform="translate(705,304)"/>
<path d="M0,0 L2,0 L0,6 L-3,5 L-4,9 L-6,10 L-4,4 Z " fill="#989899" transform="translate(655,298)"/>
<path d="M0,0 L4,3 L14,4 L15,2 L15,5 L3,5 L-2,3 L0,2 Z " fill="#606060" transform="translate(525,295)"/>
<path d="M0,0 L2,0 L6,7 L6,9 L2,7 L0,3 Z " fill="#D9D9D1" transform="translate(913,293)"/>
<path d="M0,0 L3,2 L-3,4 L-9,4 L-8,2 Z " fill="#A3A3A3" transform="translate(706,290)"/>
<path d="M0,0 L5,1 L5,3 L12,5 L8,6 L0,2 Z " fill="#858384" transform="translate(487,287)"/>
<path d="M0,0 L12,5 L12,6 L5,5 L0,2 Z " fill="#BBBBBC" transform="translate(450,272)"/>
<path d="M0,0 L5,2 L5,4 L8,5 L4,6 L-1,4 Z " fill="#646464" transform="translate(576,250)"/>
<path d="M0,0 L4,2 L-2,7 L-4,6 L-3,5 L-5,3 Z " fill="#7B7B7B" transform="translate(690,244)"/>
<path d="M0,0 L5,2 L9,4 L9,7 L4,5 L0,2 Z " fill="#CFCFCF" transform="translate(575,235)"/>
<path d="M0,0 L4,2 L3,4 L-6,3 L-6,1 L0,2 Z " fill="#5A5A5C" transform="translate(603,202)"/>
<path d="M0,0 L1,3 L-8,7 L-10,5 Z " fill="#B8B8B8" transform="translate(656,189)"/>
<path d="M0,0 L3,1 L0,3 L-8,4 L-9,2 Z " fill="#9D9D9D" transform="translate(552,531)"/>
<path d="M0,0 L9,3 L11,5 L3,4 Z " fill="#2F2E2F" transform="translate(727,518)"/>
<path d="M0,0 L5,2 L7,6 L-2,3 L-3,1 Z " fill="#8A898A" transform="translate(439,509)"/>
<path d="M0,0 L6,1 L6,4 L11,5 L7,6 L2,3 L2,1 Z " fill="#AEAEAE" transform="translate(707,507)"/>
<path d="M0,0 L4,2 L7,5 L9,10 L6,9 L0,1 Z " fill="#D5D5D5" transform="translate(647,474)"/>
<path d="M0,0 L9,0 L12,3 L12,5 L8,4 L5,2 L0,1 Z " fill="#B8B7BB" transform="translate(472,456)"/>
<path d="M0,0 L4,4 L6,9 L3,9 L0,4 Z " fill="#E8E5E8" transform="translate(376,447)"/>
<path d="M0,0 L5,1 L7,6 L9,9 L5,7 L0,2 Z " fill="#8D8C8D" transform="translate(725,449)"/>
<path d="M0,0 L2,0 L0,8 L-3,11 L-2,4 L0,4 Z " fill="#D5D6D7" transform="translate(969,429)"/>
<path d="M0,0 L2,0 L4,7 L1,9 L-1,1 Z " fill="#B0B0B2" transform="translate(638,421)"/>
<path d="M0,0 L1,0 L1,7 L-1,13 L-2,13 L-2,5 Z " fill="#262626" transform="translate(624,343)"/>
<path d="M0,0 L2,0 L2,2 L-6,7 L-8,7 L-8,5 Z " fill="#CCCCC0" transform="translate(1019,331)"/>
<path d="M0,0 L3,0 L3,6 L1,8 L-1,7 Z " fill="#ADADAD" transform="translate(585,331)"/>
<path d="M0,0 L1,4 L-1,9 L-4,9 L-2,2 Z " fill="#CFCFCF" transform="translate(628,320)"/>
<path d="M0,0 L0,3 L-2,8 L-7,12 L-5,8 L-1,1 Z " fill="#676769" transform="translate(421,313)"/>
<path d="M0,0 L2,0 L6,9 L5,11 L2,8 Z " fill="#DEDEDE" transform="translate(920,305)"/>
<path d="M0,0 L1,4 L-1,4 L-2,8 L-5,10 L-6,5 L-4,4 L-4,6 L-2,6 L-1,2 Z " fill="#797979" transform="translate(428,300)"/>
<path d="M0,0 L2,0 L1,3 L-9,8 L-10,6 L-4,3 Z " fill="#B8B8B8" transform="translate(743,290)"/>
<path d="M0,0 L5,5 L10,10 L9,12 L0,2 Z " fill="#525252" transform="translate(887,280)"/>
<path d="M0,0 L6,5 L8,8 L7,11 L7,9 L3,7 L0,2 Z " fill="#3E3E3F" transform="translate(631,285)"/>
<path d="M0,0 L2,0 L1,5 L-3,9 L-4,6 Z " fill="#B3B3B3" transform="translate(650,279)"/>
<path d="M0,0 L2,1 L0,6 L-5,9 L-5,6 Z " fill="#7C7C7C" transform="translate(669,279)"/>
<path d="M0,0 L2,0 L2,2 L-1,4 L-3,8 L-6,9 L-5,5 Z " fill="#B5B5B5" transform="translate(387,271)"/>
<path d="M0,0 L6,2 L9,6 L4,5 L0,2 Z " fill="#ADADAD" transform="translate(624,266)"/>
<path d="M0,0 L2,2 L2,11 L0,11 L-1,4 Z " fill="#8D8E8E" transform="translate(584,200)"/>
<path d="M0,0 L8,1 L4,3 L-4,3 L-4,1 Z " fill="#9A9A9C" transform="translate(537,520)"/>
<path d="M0,0 L6,4 L6,7 L2,6 L0,4 Z " fill="#C9C9C9" transform="translate(684,489)"/>
<path d="M0,0 L3,1 L6,8 L3,8 L2,4 L0,4 Z " fill="#D7D7D9" transform="translate(646,442)"/>
<path d="M0,0 L5,0 L5,8 L3,7 L3,2 L-1,1 Z " fill="#747274" transform="translate(343,392)"/>
<path d="M0,0 L5,5 L7,8 L1,6 L-1,5 Z " fill="#757576" transform="translate(596,370)"/>
<path d="M0,0 L6,2 L6,5 L0,3 L-2,1 Z " fill="#989898" transform="translate(548,372)"/>
<path d="M0,0 L5,5 L7,9 L2,7 Z " fill="#D7D2CF" transform="translate(605,359)"/>
<path d="M0,0 L15,0 L13,1 L13,3 L0,1 Z " fill="#8D8D8D" transform="translate(442,364)"/>
<path d="M0,0 L6,2 L10,5 L6,6 L3,4 L0,2 Z " fill="#575756" transform="translate(864,346)"/>
<path d="M0,0 L3,1 L6,8 L4,9 L1,6 Z " fill="#C5C5C5" transform="translate(576,338)"/>
<path d="M0,0 L3,1 L7,7 L6,10 L3,7 L0,2 Z " fill="#D6D6D6" transform="translate(738,338)"/>
<path d="M0,0 L1,4 L-2,9 L-5,9 L-3,3 L0,3 Z " fill="#939393" transform="translate(627,326)"/>
<path d="M0,0 L1,2 L-4,13 L-5,9 Z " fill="#595859" transform="translate(358,322)"/>
<path d="M0,0 L3,3 L5,8 L5,13 L3,11 L1,5 Z " fill="#E8E8E8" transform="translate(926,317)"/>
<path d="M0,0 L6,5 L6,9 L2,8 L1,3 Z " fill="#5D5C5D" transform="translate(977,289)"/>
<path d="M0,0 L6,0 L8,1 L8,3 L0,3 Z " fill="#979797" transform="translate(459,278)"/>
<path d="M0,0 L3,1 L-5,7 L-7,7 L-6,3 L-1,1 Z " fill="#B6B6B6" transform="translate(700,255)"/>
<path d="M0,0 L1,4 L-2,8 L-4,8 L-4,10 L-6,10 L-4,6 Z " fill="#BDBEBF" transform="translate(764,253)"/>
<path d="M0,0 L0,3 L-6,7 L-10,6 Z " fill="#BCBCBC" transform="translate(430,238)"/>
<path d="M0,0 L7,1 L13,4 L11,5 L6,5 L3,2 Z " fill="#575757" transform="translate(821,239)"/>
<path d="M0,0 L5,0 L6,3 L8,4 L8,6 L4,5 L4,3 L0,2 Z " fill="#959495" transform="translate(843,234)"/>
<path d="M0,0 L5,5 L1,6 L-6,2 L-4,1 L0,2 Z " fill="#787878" transform="translate(574,234)"/>
<path d="M0,0 L4,0 L5,7 L4,9 L2,7 Z " fill="#828383" transform="translate(606,225)"/>
<path d="M0,0 L4,1 L4,3 L-2,4 L-6,2 Z " fill="#6E6E70" transform="translate(630,215)"/>
<path d="M0,0 L8,0 L8,3 L10,6 L4,4 Z " fill="#6E6D6E" transform="translate(696,187)"/>
<path d="M0,0 L2,0 L3,3 L-13,3 L-13,2 L-1,1 Z " fill="#7E7E7E" transform="translate(494,523)"/>
<path d="M0,0 L7,1 L8,5 L2,3 Z " fill="#979797" transform="translate(419,515)"/>
<path d="M0,0 L3,1 L-6,6 L-8,6 L-8,4 L-6,3 L-6,1 L-1,1 Z " fill="#6A6B6C" transform="translate(849,508)"/>
<path d="M0,0 L3,2 L3,4 L7,5 L8,9 L4,7 L0,2 Z " fill="#9B9B9A" transform="translate(401,500)"/>
<path d="M0,0 L6,2 L10,6 L5,6 L5,4 L1,2 Z " fill="#D4D4D7" transform="translate(691,496)"/>
<path d="M0,0 L6,0 L6,4 L10,6 L7,6 L0,1 Z " fill="#7E7D7E" transform="translate(413,496)"/>
<path d="M0,0 L2,1 L-1,2 L-1,4 L-5,7 L-7,7 L-5,3 Z " fill="#A6A6A8" transform="translate(879,486)"/>
<path d="M0,0 L2,1 L-3,5 L-9,6 L-7,3 Z " fill="#969898" transform="translate(563,464)"/>
<path d="M0,0 L4,1 L5,4 L3,8 L0,1 Z " fill="#A9A9AA" transform="translate(379,456)"/>
<path d="M0,0 L2,0 L2,3 L-2,5 L-8,5 L-5,3 Z " fill="#D4D5D6" transform="translate(943,441)"/>
<path d="M0,0 L1,3 L-3,9 L-5,9 L-6,6 L-4,4 L-3,5 Z " fill="#757576" transform="translate(567,438)"/>
<path d="M0,0 L1,2 L4,3 L4,4 L-4,5 L-3,1 Z " fill="#B7BAB9" transform="translate(573,427)"/>
<path d="M0,0 L3,0 L1,4 L-5,5 Z " fill="#B8B8B8" transform="translate(458,401)"/>
<path d="M0,0 L3,1 L2,9 L0,9 Z " fill="#D5D6D0" transform="translate(937,398)"/>
<path d="M0,0 L2,0 L0,4 L-5,8 L-5,5 L-3,5 L-2,1 Z " fill="#C1C3C4" transform="translate(419,337)"/>
<path d="M0,0 L2,0 L1,3 L-8,4 L-8,2 Z " fill="#B2B2B2" transform="translate(980,335)"/>
<path d="M0,0 L4,1 L0,4 L-6,4 L-5,2 Z " fill="#B4B3B4" transform="translate(726,283)"/>
<path d="M0,0 L6,1 L6,2 L-7,4 L-6,1 Z " fill="#ABADAE" transform="translate(935,246)"/>
<path d="M0,0 L10,5 L7,6 L3,5 L3,3 L0,2 Z " fill="#CDCDCD" transform="translate(848,235)"/>
<path d="M0,0 L4,2 L2,4 L-5,6 L-2,1 Z " fill="#717171" transform="translate(434,236)"/>
<path d="M0,0 L8,0 L7,2 L1,3 L1,5 L-3,4 L-1,4 Z " fill="#6C6B6F" transform="translate(658,188)"/>
<path d="M0,0 L2,0 L2,2 L-3,3 L-3,5 L-8,6 L-7,4 L-5,4 L-4,1 Z " fill="#383739" transform="translate(857,505)"/>
<path d="M0,0 L3,0 L3,2 L0,2 L-1,5 L-5,6 L-3,2 Z " fill="#BEC0BE" transform="translate(557,468)"/>
<path d="M0,0 L8,1 L9,4 L4,3 L0,2 Z " fill="#565557" transform="translate(751,467)"/>
<path d="M0,0 L2,3 L3,9 L5,10 L1,9 L-1,4 Z " fill="#B3B2B5" transform="translate(706,441)"/>
<path d="M0,0 L1,0 L4,10 L3,14 L0,8 Z " fill="#454545" transform="translate(361,416)"/>
<path d="M0,0 L2,0 L2,10 L1,8 L-1,8 Z " fill="#CDCECE" transform="translate(922,397)"/>
<path d="M0,0 L2,1 L-1,8 L-3,9 L-2,3 Z " fill="#C1C2C2" transform="translate(320,394)"/>
<path d="M0,0 L4,1 L-3,6 L-4,3 Z " fill="#B9B8BA" transform="translate(333,382)"/>
<path d="M0,0 L3,3 L2,12 L1,12 L1,5 L-1,4 Z " fill="#929192" transform="translate(346,348)"/>
<path d="M0,0 L7,0 L8,4 L3,3 Z " fill="#9C9C9C" transform="translate(850,342)"/>
<path d="M0,0 L2,1 L-1,4 L-5,6 L-9,5 L-7,3 L-1,1 Z " fill="#434244" transform="translate(1001,339)"/>
<path d="M0,0 L0,3 L-3,10 L-5,6 Z " fill="#D5D5D5" transform="translate(607,324)"/>
<path d="M0,0 L6,1 L8,5 L2,3 Z " fill="#BBBBBB" transform="translate(826,309)"/>
<path d="M0,0 L9,0 L6,2 L0,3 L-2,1 Z " fill="#A3A3A3" transform="translate(578,307)"/>
<path d="M0,0 L1,3 L-2,10 L-5,11 L-3,5 Z " fill="#6D6D6D" transform="translate(369,297)"/>
<path d="M0,0 L4,3 L5,8 L-1,5 Z " fill="#656465" transform="translate(897,292)"/>
<path d="M0,0 L7,1 L7,6 L4,6 L3,2 Z " fill="#363536" transform="translate(649,276)"/>
<path d="M0,0 L3,0 L5,1 L3,3 L2,10 L1,10 L1,5 L-1,5 Z " fill="#898A98" transform="translate(433,273)"/>
<path d="M0,0 L7,2 L5,5 L1,4 Z " fill="#E3E3E3" transform="translate(890,264)"/>
<path d="M0,0 L3,4 L-1,5 L-6,2 L-2,1 L0,2 Z " fill="#707070" transform="translate(643,259)"/>
<path d="M0,0 L3,1 L-1,5 L-3,5 L-4,7 L-3,2 Z " fill="#9E9EAF" transform="translate(769,249)"/>
<path d="M0,0 L9,5 L8,7 L3,5 L3,3 L0,2 Z " fill="#D2D2D2" transform="translate(588,242)"/>
<path d="M0,0 L4,0 L4,2 L-2,4 L-7,3 L-7,2 Z " fill="#787878" transform="translate(460,240)"/>
<path d="M0,0 L4,0 L5,2 L10,4 L6,5 L1,3 Z " fill="#909090" transform="translate(727,529)"/>
<path d="M0,0 L6,1 L10,4 L7,5 L0,1 Z " fill="#B7B7B7" transform="translate(701,520)"/>
<path d="M0,0 L9,4 L9,5 L2,4 Z " fill="#B2B2AF" transform="translate(444,511)"/>
<path d="M0,0 L5,1 L7,2 L7,4 L1,4 L-1,2 Z " fill="#505050" transform="translate(417,512)"/>
<path d="M0,0 L7,0 L5,2 L-3,3 Z " fill="#A2A2A2" transform="translate(791,480)"/>
<path d="M0,0 L4,2 L7,6 L7,8 L3,6 L0,2 Z " fill="#B7B7B7" transform="translate(710,452)"/>
<path d="M0,0 L3,0 L4,2 L3,5 L1,5 L0,7 L-1,1 Z " fill="#7B7B7C" transform="translate(316,401)"/>
<path d="M0,0 L4,1 L0,6 L-2,6 L-1,1 Z " fill="#CACBCB" transform="translate(336,398)"/>
<path d="M0,0 L1,2 L-1,2 L-1,4 L-8,5 L-5,2 Z " fill="#C1C2CD" transform="translate(439,362)"/>
<path d="M0,0 L3,1 L-1,4 L-9,4 L-9,3 L-2,1 Z " fill="#C4C4C4" transform="translate(387,363)"/>
<path d="M0,0 L2,0 L1,3 L-4,6 L-6,6 L-4,2 Z " fill="#C7C6C7" transform="translate(397,357)"/>
<path d="M0,0 L2,0 L2,8 L0,8 L-1,3 Z " fill="#C0BEBF" transform="translate(700,353)"/>
<path d="M0,0 L8,0 L9,3 L2,2 Z " fill="#8B8B8B" transform="translate(871,351)"/>
<path d="M0,0 L6,0 L3,3 L-5,3 L-1,1 Z " fill="#A8A9A8" transform="translate(997,343)"/>
<path d="M0,0 L5,0 L5,2 L7,3 L6,5 L1,4 Z " fill="#9A9A9A" transform="translate(564,332)"/>
<path d="M0,0 L0,3 L-1,10 L-4,10 L-1,1 Z " fill="#868688" transform="translate(436,310)"/>
<path d="M0,0 L2,1 L-8,6 L-7,2 L-3,1 Z " fill="#949594" transform="translate(611,304)"/>
<path d="M0,0 L2,0 L2,6 L-6,6 L-6,5 L-1,4 Z " fill="#414141" transform="translate(628,297)"/>
<path d="M0,0 L2,0 L2,2 L10,2 L10,3 L1,4 L-1,5 L-2,1 Z " fill="#8B8B8C" transform="translate(675,293)"/>
<path d="M0,0 L7,2 L5,3 L4,7 L0,2 Z " fill="#676767" transform="translate(988,286)"/>
<path d="M0,0 L2,1 L-3,6 L-5,6 L-4,2 Z " fill="#ACAEB0" transform="translate(766,274)"/>
<path d="M0,0 L7,3 L7,5 L10,6 L5,5 L0,2 Z " fill="#A2A2A2" transform="translate(644,260)"/>
<path d="M0,0 L4,1 L-2,5 L-4,5 L-3,2 Z " fill="#C4C3C3" transform="translate(684,248)"/>
<path d="M0,0 L6,2 L8,6 L3,6 Z " fill="#4A4A4B" transform="translate(840,245)"/>
<path d="M0,0 L6,1 L6,4 L1,3 Z " fill="#94A3A3" transform="translate(834,230)"/>
<path d="M0,0 L2,1 L2,4 L5,5 L5,7 L1,7 Z " fill="#D6D6D6" transform="translate(729,220)"/>
<path d="M0,0 L3,1 L5,8 L2,7 Z " fill="#D5D3D9" transform="translate(604,218)"/>
<path d="M0,0 L5,1 L10,3 L8,5 L0,1 Z " fill="#9B9B94" transform="translate(434,523)"/>
<path d="M0,0 L6,2 L8,5 L-1,4 Z " fill="#515151" transform="translate(433,520)"/>
<path d="M0,0 L2,0 L1,4 L-7,5 L-4,2 Z " fill="#757476" transform="translate(850,520)"/>
<path d="M0,0 L7,1 L9,4 L4,3 L0,1 Z " fill="#535353" transform="translate(707,521)"/>
<path d="M0,0 L4,1 L7,4 L7,6 L3,4 Z " fill="#B8B8B8" transform="translate(665,494)"/>
<path d="M0,0 L5,1 L10,3 L10,4 L3,5 L3,1 Z " fill="#5A595A" transform="translate(485,476)"/>
<path d="M0,0 L2,3 L0,3 L-1,6 L-5,5 Z " fill="#98999B" transform="translate(569,457)"/>
<path d="M0,0 L4,2 L6,3 L6,5 L1,6 L0,1 Z " fill="#636263" transform="translate(325,448)"/>
<path d="M0,0 L1,3 L-4,9 L-6,8 L-5,6 L-3,6 L-1,2 Z " fill="#C3BCC6" transform="translate(963,442)"/>
<path d="M0,0 L2,0 L4,5 L3,8 L0,4 Z " fill="#D5D5D5" transform="translate(719,436)"/>
<path d="M0,0 L1,4 L-1,11 L-3,11 L-1,1 Z " fill="#5B5B5C" transform="translate(922,416)"/>
<path d="M0,0 L3,2 L9,2 L8,4 L1,5 L-1,3 Z " fill="#8F8F8F" transform="translate(376,362)"/>
<path d="M0,0 L1,0 L2,10 L-1,11 Z " fill="#A5A3A6" transform="translate(581,352)"/>
<path d="M0,0 L3,2 L4,9 L2,9 L0,4 Z " fill="#B9BCB9" transform="translate(587,357)"/>
<path d="M0,0 L6,0 L1,4 L-3,3 Z " fill="#323233" transform="translate(550,336)"/>
<path d="M0,0 L1,2 L4,3 L3,5 L-5,5 L-1,3 Z " fill="#5C5C5C" transform="translate(982,334)"/>
<path d="M0,0 L1,4 L-3,11 L-4,7 Z " fill="#595A5B" transform="translate(371,316)"/>
<path d="M0,0 L5,2 L5,8 L3,8 L1,3 Z " fill="#ADADAD" transform="translate(916,301)"/>
<path d="M0,0 L3,1 L3,3 L6,4 L5,8 L0,2 Z " fill="#919191" transform="translate(903,282)"/>
<path d="M0,0 L5,5 L5,8 L0,3 Z " fill="#444343" transform="translate(966,273)"/>
<path d="M0,0 L3,1 L4,7 L-2,2 Z " fill="#989898" transform="translate(622,270)"/>
<path d="M0,0 L4,2 L9,8 L5,7 Z " fill="#646464" transform="translate(600,267)"/>
<path d="M0,0 L2,0 L5,4 L5,6 L1,5 Z " fill="#C6C6C6" transform="translate(973,262)"/>
<path d="M0,0 L3,2 L6,7 L5,9 L0,4 Z " fill="#504F51" transform="translate(779,259)"/>
<path d="M0,0 L2,1 L-2,5 L-7,5 L-5,2 Z " fill="#6D6D6D" transform="translate(437,249)"/>
<path d="M0,0 L5,1 L8,3 L8,5 L4,4 Z " fill="#BBBBBB" transform="translate(701,188)"/>
<path d="M0,0 L8,3 L4,5 L0,2 Z " fill="#C8C8C9" transform="translate(694,183)"/>
<path d="M0,0 L11,2 L11,3 L2,4 Z " fill="#434243" transform="translate(467,532)"/>
<path d="M0,0 L3,0 L1,5 L-2,5 Z " fill="#A8A9AC" transform="translate(631,474)"/>
<path d="M0,0 L5,0 L5,6 L0,2 Z " fill="#909090" transform="translate(663,472)"/>
<path d="M0,0 L2,1 L0,4 L-9,3 L-9,2 Z " fill="#7A7B7B" transform="translate(943,457)"/>
<path d="M0,0 L2,3 L-3,6 L-5,5 Z " fill="#D1D1D2" transform="translate(809,454)"/>
<path d="M0,0 L1,2 L-1,8 L-4,9 L-2,4 Z " fill="#DDDDDD" transform="translate(906,448)"/>
<path d="M0,0 L5,2 L5,5 L-1,3 Z " fill="#808080" transform="translate(830,403)"/>
<path d="M0,0 L5,1 L6,5 L1,4 Z " fill="#949490" transform="translate(607,381)"/>
<path d="M0,0 L4,1 L5,8 L2,6 Z " fill="#A5ADA6" transform="translate(601,356)"/>
<path d="M0,0 L4,1 L0,5 L-2,5 L-1,1 Z " fill="#9B9B9C" transform="translate(393,341)"/>
<path d="M0,0 L2,1 L0,7 L-2,7 L-1,1 Z " fill="#D7D7B9" transform="translate(638,336)"/>
<path d="M0,0 L8,0 L8,6 L4,2 Z " fill="#2B2A2C" transform="translate(1007,315)"/>
<path d="M0,0 L3,1 L1,8 L-1,4 Z " fill="#818282" transform="translate(357,315)"/>
<path d="M0,0 L2,1 L-5,8 L-6,5 Z " fill="#101010" transform="translate(605,310)"/>
<path d="M0,0 L4,2 L6,5 L5,8 L0,1 Z " fill="#BBBBBB" transform="translate(897,297)"/>
<path d="M0,0 L2,1 L-1,10 L-2,10 L-2,4 Z " fill="#C0C0C0" transform="translate(443,295)"/>
<path d="M0,0 L2,0 L2,6 L0,8 L-1,3 Z " fill="#BFBFBF" transform="translate(432,278)"/>
<path d="M0,0 L7,2 L9,5 L0,3 Z " fill="#7B7B7B" transform="translate(632,270)"/>
<path d="M0,0 L5,4 L6,7 L1,5 Z " fill="#D6D6D6" transform="translate(781,258)"/>
<path d="M0,0 L5,1 L7,5 L3,4 L3,2 L0,1 Z " fill="#B9B9C5" transform="translate(957,249)"/>
<path d="M0,0 L12,1 L12,2 L2,3 L0,2 Z " fill="#4F4F4F" transform="translate(804,235)"/>
<path d="M0,0 L5,0 L5,2 L-2,3 L-2,1 Z " fill="#9C9B9C" transform="translate(467,224)"/>
</svg>
