<?xml version="1.0" encoding="UTF-8"?>
<svg version="1.1" xmlns="http://www.w3.org/2000/svg" width="343" height="306">
<path d="M0,0 L12,0 L27,4 L36,10 L44,17 L50,27 L54,35 L55,43 L50,48 L35,48 L25,52 L17,59 L13,68 L13,84 L16,94 L13,99 L-20,100 L-25,103 L-32,110 L-33,118 L-33,131 L-37,138 L-42,142 L-45,143 L-55,143 L-62,139 L-68,130 L-69,124 L-79,121 L-85,116 L-87,112 L-87,100 L-83,93 L-75,88 L-57,88 L-52,85 L-45,78 L-44,75 L-43,40 L-40,30 L-35,21 L-28,13 L-17,5 L-6,1 Z " fill="#1C2F4F" transform="translate(195,86)"/>
<path d="M0,0 L3,1 L-6,8 L-11,16 L-12,19 L-12,35 L-9,45 L-12,50 L-45,51 L-50,54 L-57,61 L-58,69 L-58,82 L-62,89 L-67,93 L-72,94 L-72,92 L-64,87 L-61,84 L-60,80 L-60,61 L-51,51 L-46,48 L-13,47 L-12,46 L-13,39 L-16,34 L-16,20 L-10,9 L-5,3 Z " fill="#4C698A" transform="translate(220,135)"/>
<path d="M0,0 L2,0 L2,2 L-6,9 L-9,12 L-10,20 L-10,33 L-14,40 L-19,44 L-24,45 L-24,43 L-16,38 L-13,35 L-12,31 L-12,12 L-3,2 Z " fill="#6584A3" transform="translate(172,184)"/>
<path d="M0,0 L1,2 L-2,7 L-36,8 L-36,5 L-3,4 Z " fill="#586076" transform="translate(210,178)"/>
<path d="M0,0 L2,4 L1,9 L-3,12 L-18,12 L-24,13 L-24,11 L-19,9 L-2,8 L-1,3 Z " fill="#61799B" transform="translate(248,122)"/>
<path d="M0,0 L3,0 L2,5 L-2,11 L-4,16 L-5,25 L-7,26 L-7,18 L-4,8 Z " fill="#1D233D" transform="translate(159,108)"/>
<path d="M0,0 L3,1 L-6,8 L-11,16 L-13,19 L-12,12 L-5,3 Z " fill="#6F87A4" transform="translate(220,135)"/>
<path d="M0,0 L2,4 L2,8 L4,8 L7,15 L4,15 L-1,7 L-1,1 Z " fill="#2A283B" transform="translate(128,209)"/>
<path d="M0,0 L1,3 L-3,10 L-8,14 L-13,15 L-13,13 L-5,8 L-2,5 Z " fill="#879BBB" transform="translate(161,214)"/>
<path d="M0,0 L15,1 L13,2 L13,4 L5,4 L0,1 Z " fill="#505765" transform="translate(135,225)"/>
<path d="M0,0 L0,3 L-8,10 L-13,15 L-15,14 L-9,7 Z " fill="#171D36" transform="translate(176,92)"/>
<path d="M0,0 L9,0 L10,2 L-5,4 L-5,2 Z " fill="#6E839A" transform="translate(229,131)"/>
<path d="M0,0 L6,0 L6,3 L14,5 L14,6 L6,5 L0,1 Z " fill="#4B5362" transform="translate(112,203)"/>
<path d="M0,0 L2,0 L0,6 L-2,9 L-4,9 L-2,3 Z " fill="#141C35" transform="translate(112,179)"/>
<path d="M0,0 L2,0 L2,2 L-4,4 L-8,6 L-8,3 Z " fill="#161D47" transform="translate(189,87)"/>
<path d="M0,0 L1,2 L-2,7 L-7,7 L-6,5 L-2,3 Z " fill="#8E98B4" transform="translate(210,178)"/>
<path d="M0,0 L2,4 L1,9 L-1,7 L-1,1 Z " fill="#1C1D35" transform="translate(128,209)"/>
</svg>
