<?xml version="1.0" encoding="UTF-8"?>
<svg version="1.1" xmlns="http://www.w3.org/2000/svg" width="325" height="277">
<path d="M0,0 L16,2 L26,7 L36,17 L42,28 L44,39 L43,52 L39,62 L31,73 L21,80 L1,89 L-5,92 L-10,91 L-21,80 L-25,76 L-32,76 L-32,82 L-31,85 L-29,85 L-22,93 L-20,95 L-21,99 L-41,108 L-61,117 L-67,116 L-71,113 L-72,110 L-72,103 L-67,90 L-59,74 L-50,54 L-45,42 L-38,28 L-34,28 L-22,40 L-16,40 L-15,39 L-15,33 L-30,18 L-29,13 L-21,6 L-12,2 Z " fill="#1D3050" transform="translate(172,99)"/>
<path d="M0,0 L6,2 L12,9 L15,16 L15,27 L14,31 L18,30 L28,30 L36,33 L43,40 L44,46 L42,49 L40,49 L38,53 L31,57 L28,58 L18,58 L8,53 L-8,37 L-12,28 L-12,15 L-8,7 L-3,2 Z M13,31 Z " fill="#1D2F4F" transform="translate(209,61)"/>
<path d="M0,0 L2,1 L1,6 L0,8 L-2,8 L-4,12 L-11,16 L-14,17 L-24,17 L-29,15 L-26,14 L-17,14 L-7,11 L-1,5 Z " fill="#505B74" transform="translate(251,102)"/>
<path d="M0,0 L2,0 L0,4 L-4,9 L-13,15 L-22,18 L-22,16 L-10,10 L-1,2 Z " fill="#8393AB" transform="translate(206,164)"/>
<path d="M0,0 L0,3 L-20,12 L-25,13 L-25,10 L-17,8 L-7,3 Z " fill="#5C6F8D" transform="translate(151,195)"/>
<path d="M0,0 L3,1 L-2,6 L-6,9 L-9,14 L-11,15 L-9,9 L-5,3 Z " fill="#1A233C" transform="translate(209,61)"/>
<path d="M0,0 L3,3 L6,11 L7,23 L5,19 L1,5 Z " fill="#536C8A" transform="translate(209,120)"/>
<path d="M0,0 L3,0 L0,9 L-2,9 L1,18 L-2,18 L-3,15 L-3,8 Z " fill="#1E2439" transform="translate(103,194)"/>
<path d="M0,0 L2,0 L2,10 L-1,17 L-3,17 L-1,12 Z " fill="#5B7499" transform="translate(222,78)"/>
<path d="M0,0 L2,1 L1,6 L0,8 L-2,8 L-4,12 L-9,14 L-3,7 L-1,5 Z " fill="#698CAF" transform="translate(251,102)"/>
<path d="M0,0 L3,1 L-4,4 L-10,3 L-11,1 Z " fill="#6E7691" transform="translate(115,212)"/>
<path d="M0,0 L2,3 L3,8 L0,16 L-1,16 Z " fill="#284170" transform="translate(213,136)"/>
<path d="M0,0 L2,1 L0,7 L-5,11 L-2,2 Z " fill="#1E253B" transform="translate(135,126)"/>
<path d="M0,0 L1,0 L1,5 L-4,14 L-6,14 L-4,8 Z " fill="#162333" transform="translate(120,158)"/>
<path d="M0,0 L2,1 L4,6 L4,10 L6,10 L5,14 L0,4 Z " fill="#22263D" transform="translate(197,85)"/>
<path d="M0,0 L3,1 L-7,6 L-10,6 L-10,3 L-2,1 Z " fill="#728299" transform="translate(136,202)"/>
<path d="M0,0 L1,2 L-9,10 L-11,9 L-2,1 Z " fill="#111732" transform="translate(153,104)"/>
<path d="M0,0 L1,0 L4,10 L1,10 L0,7 Z " fill="#1A1E30" transform="translate(100,202)"/>
<path d="M0,0 L2,3 L1,6 L-3,8 L-6,6 L-1,4 Z " fill="#0F1720" transform="translate(158,134)"/>
</svg>
