<?xml version="1.0" encoding="UTF-8"?>
<svg version="1.1" xmlns="http://www.w3.org/2000/svg" width="507" height="483">
<path d="M0,0 L8,0 L13,3 L15,8 L14,14 L9,19 L-12,23 L-27,26 L-44,32 L-52,36 L-49,39 L-39,44 L-22,49 L-8,52 L-4,56 L-3,63 L-7,70 L-16,71 L-32,67 L-43,64 L-50,61 L-49,71 L-45,86 L-40,98 L-35,108 L-27,120 L-21,128 L-16,133 L-5,143 L13,154 L23,159 L38,164 L58,168 L91,168 L114,163 L126,159 L145,149 L157,140 L167,131 L175,122 L184,109 L192,92 L197,76 L199,69 L200,61 L179,68 L165,71 L141,75 L115,77 L97,78 L50,78 L34,77 L29,74 L27,71 L27,63 L32,58 L40,57 L60,58 L87,58 L110,57 L144,54 L175,48 L194,42 L201,38 L200,35 L189,30 L168,24 L143,20 L137,17 L135,14 L135,6 L139,1 L141,0 L149,0 L172,4 L191,9 L207,16 L215,22 L221,29 L222,40 L221,61 L216,86 L208,107 L199,124 L187,140 L173,154 L165,160 L155,167 L152,169 L158,172 L160,175 L160,183 L156,188 L153,189 L137,190 L30,190 L-4,189 L-9,186 L-11,183 L-11,175 L-6,170 L-3,169 L-13,162 L-26,152 L-37,141 L-49,125 L-57,111 L-64,94 L-69,77 L-72,58 L-73,49 L-73,33 L-68,24 L-61,18 L-47,11 L-23,4 Z " fill="#0B0B0B" transform="translate(180,197)"/>
<path d="M0,0 L6,1 L12,6 L12,8 L15,9 L24,23 L28,33 L28,43 L24,53 L16,65 L7,78 L5,84 L5,92 L9,101 L16,109 L16,116 L12,121 L5,123 L-1,120 L-8,113 L-14,101 L-16,87 L-13,72 L-7,62 L1,51 L6,41 L5,32 L-2,21 L-8,14 L-8,7 L-4,2 Z " fill="#030303" transform="translate(252,113)"/>
<path d="M0,0 L6,1 L11,6 L16,18 L17,23 L17,33 L13,44 L4,58 L3,61 L3,68 L7,76 L8,79 L12,81 L15,85 L15,91 L11,97 L4,99 L-2,96 L-7,92 L-14,81 L-17,73 L-18,68 L-17,55 L-10,42 L-5,33 L-4,24 L-8,14 L-8,6 L-3,1 Z " fill="#0A0A0A" transform="translate(214,137)"/>
<path d="M0,0 L6,1 L10,6 L14,15 L16,24 L16,32 L13,42 L7,52 L4,57 L2,62 L3,70 L6,76 L13,84 L14,91 L11,96 L5,99 L-2,97 L-11,88 L-17,77 L-19,67 L-18,57 L-15,48 L-7,36 L-5,29 L-6,21 L-9,13 L-9,7 L-4,1 Z " fill="#070707" transform="translate(297,137)"/>
<path d="M0,0 L1,3 L-9,22 L-21,38 L-35,52 L-43,58 L-53,65 L-56,67 L-50,70 L-48,73 L-48,81 L-52,86 L-55,87 L-71,88 L-178,88 L-212,87 L-217,84 L-219,81 L-219,73 L-214,68 L-210,69 L-216,72 L-217,74 L-217,80 L-215,83 L-212,84 L-55,84 L-51,82 L-50,75 L-52,71 L-63,69 L-60,66 L-54,62 L-51,62 L-51,60 L-40,53 L-25,39 L-17,29 L-16,26 L-14,26 L-14,24 L-12,24 L-10,18 L-4,8 L-2,3 Z " fill="#C1C1C4" transform="translate(388,299)"/>
<path d="M0,0 L11,0 L8,2 L-22,5 L-98,5 L-104,8 L-102,4 L-97,2 L-72,3 L-45,3 L-22,2 Z " fill="#777878" transform="translate(312,252)"/>
<path d="M0,0 L1,3 L-9,22 L-21,38 L-35,52 L-43,58 L-53,65 L-56,67 L-50,70 L-49,75 L-52,71 L-63,69 L-60,66 L-54,62 L-51,62 L-51,60 L-40,53 L-25,39 L-17,29 L-16,26 L-14,26 L-14,24 L-12,24 L-10,18 L-4,8 L-2,3 Z " fill="#828284" transform="translate(388,299)"/>
<path d="M0,0 L2,1 L3,12 L2,33 L-3,58 L-9,74 L-10,74 L-10,68 L-8,65 L-4,50 L-2,39 L0,17 Z " fill="#4F4F52" transform="translate(399,225)"/>
<path d="M0,0 L8,0 L13,3 L15,8 L14,14 L9,19 L-12,23 L-19,23 L-16,21 L-1,18 L8,17 L10,16 L10,4 L7,2 L-3,3 L-15,5 L-22,5 L-18,3 Z " fill="#919195" transform="translate(180,197)"/>
<path d="M0,0 L0,3 L-1,6 L-1,13 L3,21 L4,24 L8,26 L11,30 L11,36 L7,42 L0,44 L-6,41 L-8,38 L-2,40 L5,40 L8,37 L7,28 L-1,21 L-4,14 L-4,5 Z " fill="#9292A4" transform="translate(218,192)"/>
<path d="M0,0 L2,0 L0,5 L-11,21 L-15,30 L-15,38 L-11,47 L-4,55 L-4,62 L-6,64 L-6,56 L-13,48 L-14,45 L-16,45 L-17,42 L-17,29 L-15,22 L-7,11 L-1,3 Z " fill="#A2A2A5" transform="translate(272,167)"/>
<path d="M0,0 L0,3 L-6,15 L-7,21 L-7,38 L-3,48 L-1,51 L-2,54 L-8,44 L-11,27 L-8,12 L-2,2 Z " fill="#606161" transform="translate(247,173)"/>
<path d="M0,0 L2,2 L5,14 L5,22 L2,32 L-4,42 L-7,47 L-9,49 L-8,43 L0,31 L2,20 L1,11 Z " fill="#9797A5" transform="translate(308,147)"/>
<path d="M0,0 L6,0 L6,1 L-1,3 L-3,5 L-3,14 L-2,16 L21,20 L27,22 L27,23 L19,23 L-1,19 L-6,14 L-6,6 L-2,1 Z " fill="#999A9E" transform="translate(321,197)"/>
<path d="M0,0 L6,1 L12,6 L11,8 L5,3 L-1,3 L-5,6 L-6,12 L-4,16 L-1,17 L0,21 L2,21 L6,29 L5,32 L-2,21 L-8,14 L-8,7 L-4,2 Z " fill="#8F8F8F" transform="translate(252,113)"/>
<path d="M0,0 L1,2 L0,5 L-5,8 L-12,15 L-25,24 L-32,29 L-37,29 L-32,25 L-23,20 L-9,9 Z " fill="#696969" transform="translate(351,324)"/>
<path d="M0,0 L11,1 L16,3 L19,9 L18,16 L15,20 L6,21 L-3,19 L-3,18 L4,18 L11,19 L16,14 L16,7 L13,4 L3,2 Z " fill="#7F7F88" transform="translate(158,247)"/>
<path d="M0,0 L3,1 L-16,7 L-38,11 L-44,11 L-40,9 L-24,6 L-14,4 L-7,1 Z " fill="#73737B" transform="translate(371,259)"/>
<path d="M0,0 L4,1 L-2,4 L-3,6 L-3,12 L-1,15 L2,16 L36,17 L36,18 L-1,18 L-5,13 L-5,5 Z " fill="#7D7D7E" transform="translate(174,367)"/>
<path d="M0,0 L1,3 L-2,10 L-2,24 L2,34 L5,39 L5,41 L3,41 L-3,30 L-5,21 L-4,8 Z " fill="#8B8C90" transform="translate(201,184)"/>
<path d="M0,0 L3,3 L7,11 L15,23 L20,29 L19,31 L14,26 L14,24 L11,23 L8,19 L7,13 L3,11 L0,4 Z " fill="#969596" transform="translate(138,294)"/>
<path d="M0,0 L1,4 L0,8 L0,21 L6,35 L9,39 L8,41 L4,36 L-1,27 L-3,17 L-2,7 Z " fill="#9C9C9D" transform="translate(281,187)"/>
<path d="M0,0 L3,4 L4,8 L4,18 L0,28 L-2,29 L-1,25 L0,21 Z " fill="#5D5D5F" transform="translate(276,138)"/>
<path d="M0,0 L1,3 L-3,20 L-8,33 L-9,33 L-9,27 L-7,24 L-3,9 Z " fill="#818182" transform="translate(398,266)"/>
<path d="M0,0 L2,0 L0,5 L-11,21 L-14,27 L-16,27 L-15,22 L-7,11 L-1,3 Z " fill="#64646D" transform="translate(272,167)"/>
<path d="M0,0 L11,0 L8,2 L1,3 L-22,3 L-22,2 Z " fill="#767677" transform="translate(312,252)"/>
<path d="M0,0 L1,3 L2,11 L5,17 L12,25 L11,27 L6,22 L6,20 L4,20 L2,15 L0,15 L-1,12 L-1,2 Z " fill="#9A9A9D" transform="translate(298,196)"/>
<path d="M0,0 L24,4 L26,6 L11,5 L0,2 Z " fill="#78787B" transform="translate(328,197)"/>
<path d="M0,0 L2,0 L1,3 L-5,7 L1,10 L2,15 L-1,11 L-12,9 L-9,6 L-3,2 L0,2 Z " fill="#656565" transform="translate(337,359)"/>
<path d="M0,0 L1,4 L-5,16 L-9,22 L-10,18 L-6,13 Z " fill="#8C8C8F" transform="translate(229,170)"/>
<path d="M0,0 L3,3 L4,5 L4,13 L1,19 L-2,21 L1,11 Z " fill="#6B6B6B" transform="translate(291,155)"/>
<path d="M0,0 L2,0 L11,11 L20,20 L17,20 L5,8 L0,2 Z " fill="#888889" transform="translate(138,330)"/>
<path d="M0,0 L12,1 L22,5 L23,7 L11,4 L0,1 Z " fill="#7A7A7D" transform="translate(348,220)"/>
<path d="M0,0 L2,2 L4,9 L4,21 L2,25 L2,15 L0,6 Z " fill="#606061" transform="translate(308,147)"/>
<path d="M0,0 L3,1 L-1,4 L-2,12 L-1,19 L-4,16 L-5,13 L-5,5 Z " fill="#848484" transform="translate(211,138)"/>
<path d="M0,0 L1,2 L-4,7 L-9,8 L-15,5 L-17,2 L-11,4 L-4,4 Z " fill="#78797A" transform="translate(227,228)"/>
<path d="M0,0 L4,2 L8,5 L16,5 L20,4 L16,8 L11,9 L5,6 Z " fill="#828282" transform="translate(246,227)"/>
<path d="M0,0 L5,0 L3,2 L-9,6 L-13,8 L-16,8 L-16,6 L-10,5 L-10,3 Z " fill="#9C9C9C" transform="translate(145,223)"/>
<path d="M0,0 L2,1 L-8,8 L-13,12 L-16,17 L-17,15 L-13,9 L-5,3 Z " fill="#7C7C7D" transform="translate(126,211)"/>
<path d="M0,0 L3,1 L-1,3 L-10,5 L-20,5 L-20,4 Z " fill="#919192" transform="translate(291,361)"/>
<path d="M0,0 L11,6 L17,9 L17,10 L12,10 L7,6 L1,4 Z " fill="#777778" transform="translate(180,344)"/>
<path d="M0,0 L2,0 L1,8 L-1,11 L-1,4 L-7,5 L-5,2 Z " fill="#585858" transform="translate(381,254)"/>
<path d="M0,0 L0,3 L-11,11 L-16,11 L-11,7 L-2,2 Z " fill="#8C8C8E" transform="translate(330,342)"/>
<path d="M0,0 L3,0 L4,7 L1,10 L0,10 Z " fill="#6C6D6E" transform="translate(191,202)"/>
<path d="M0,0 L0,3 L-7,16 L-9,17 L-6,8 Z " fill="#757575" transform="translate(247,173)"/>
<path d="M0,0 L5,1 L10,6 L12,10 L11,13 L7,5 L0,2 Z " fill="#999999" transform="translate(215,137)"/>
<path d="M0,0 L5,3 L12,12 L11,14 L6,9 L6,7 L3,6 L0,2 Z " fill="#828283" transform="translate(146,311)"/>
<path d="M0,0 L6,2 L17,6 L17,7 L8,6 L0,2 Z " fill="#939393" transform="translate(131,237)"/>
<path d="M0,0 L0,3 L-2,16 L-4,14 L-4,5 Z " fill="#5F6060" transform="translate(218,192)"/>
<path d="M0,0 L1,4 L-6,13 L-9,12 L-3,5 L-2,2 L0,2 Z " fill="#616162" transform="translate(374,323)"/>
<path d="M0,0 L3,1 L-1,6 L-2,11 L-4,11 L-4,3 Z " fill="#424242" transform="translate(211,257)"/>
<path d="M0,0 L1,0 L0,7 L-5,12 L-10,13 L-13,11 L-6,10 L-1,4 Z " fill="#9F9F9F" transform="translate(310,223)"/>
<path d="M0,0 L4,4 L8,15 L7,17 L0,3 Z " fill="#7F7F86" transform="translate(118,294)"/>
<path d="M0,0 L6,1 L10,6 L11,10 L8,7 L6,4 L-3,2 Z " fill="#909090" transform="translate(297,137)"/>
<path d="M0,0 L2,0 L3,4 L5,4 L9,12 L8,15 L1,4 Z " fill="#6B6C6C" transform="translate(249,130)"/>
<path d="M0,0 L1,4 L-1,4 L-3,10 L-7,12 L-5,7 Z " fill="#757575" transform="translate(255,161)"/>
<path d="M0,0 L2,2 L2,12 L-2,16 L0,9 Z " fill="#79797A" transform="translate(258,145)"/>
<path d="M0,0 L5,3 L12,8 L10,9 L1,3 Z " fill="#888888" transform="translate(168,335)"/>
<path d="M0,0 L4,2 L8,7 L10,8 L10,10 L6,8 L1,3 Z " fill="#8F8F90" transform="translate(158,325)"/>
<path d="M0,0 L1,4 L-2,8 L-6,9 L-4,5 Z " fill="#777777" transform="translate(358,315)"/>
<path d="M0,0 L9,1 L15,3 L15,4 L7,4 L7,2 L0,1 Z " fill="#5B5C67" transform="translate(333,216)"/>
<path d="M0,0 L2,1 L-2,7 L-5,13 L-6,10 L-1,1 Z " fill="#7A7A7A" transform="translate(305,183)"/>
<path d="M0,0 L1,2 L0,5 L-5,8 L-9,10 L-3,3 Z " fill="#7C7C7C" transform="translate(351,324)"/>
<path d="M0,0 L2,1 L-6,9 L-7,7 L-2,1 Z " fill="#151515" transform="translate(118,218)"/>
<path d="M0,0 L2,1 L-2,7 L-3,10 L-5,10 L-4,5 Z " fill="#838383" transform="translate(261,184)"/>
<path d="M0,0 L1,4 L-5,11 L-5,8 Z " fill="#9A9A9C" transform="translate(288,176)"/>
<path d="M0,0 L5,0 L5,2 L1,3 L-6,3 L-3,1 Z " fill="#747575" transform="translate(167,217)"/>
<path d="M0,0 L1,4 L-5,12 L-6,10 Z " fill="#919192" transform="translate(208,172)"/>
<path d="M0,0 L3,1 L8,8 L7,10 L4,7 L4,5 L2,5 Z " fill="#6F6F6F" transform="translate(264,121)"/>
<path d="M0,0 L4,1 L-2,4 L-5,8 L-4,3 Z " fill="#6C6C6C" transform="translate(174,367)"/>
<path d="M0,0 L1,4 L-2,5 L-3,9 L-5,9 L-3,4 Z " fill="#8E8D8E" transform="translate(364,306)"/>
<path d="M0,0 L3,0 L3,2 L-3,5 L-6,5 L-6,3 L0,2 Z " fill="#676767" transform="translate(135,226)"/>
<path d="M0,0 L2,1 L-3,9 L-4,5 Z " fill="#98989B" transform="translate(223,183)"/>
<path d="M0,0 L3,1 L3,7 L1,7 Z " fill="#AAAAAB" transform="translate(226,221)"/>
</svg>
