<?xml version="1.0" encoding="UTF-8"?>
<svg version="1.1" xmlns="http://www.w3.org/2000/svg" width="317" height="271">
<path d="M0,0 L9,0 L25,6 L41,12 L51,9 L75,0 L84,0 L89,6 L107,41 L112,51 L113,55 L113,70 L110,79 L104,87 L101,90 L104,103 L107,111 L113,110 L119,108 L126,109 L130,113 L131,120 L128,126 L96,138 L86,142 L78,142 L73,138 L72,136 L72,129 L74,125 L82,121 L87,119 L85,110 L81,99 L81,97 L72,97 L62,94 L54,88 L48,80 L44,69 L42,60 L38,76 L32,86 L24,93 L13,97 L3,98 L0,108 L-4,119 L8,124 L12,129 L12,135 L8,141 L6,142 L-2,142 L-28,132 L-42,127 L-46,123 L-47,116 L-44,111 L-39,108 L-32,109 L-23,112 L-20,101 L-17,93 L-18,89 L-23,84 L-28,74 L-29,69 L-29,56 L-25,45 L-17,29 L-9,15 L-5,6 L-2,1 Z M73,22 L57,28 L56,32 L58,41 L61,42 L80,35 L79,30 L75,22 Z " fill="#1D3050" transform="translate(119,64)"/>
<path d="M0,0 L7,1 L21,6 L20,13 L18,21 L12,21 L0,17 L-5,14 L-4,7 Z " fill="#F3F5F6" transform="translate(127,85)"/>
<path d="M0,0 L1,0 L0,9 L-6,19 L-14,26 L-25,30 L-35,31 L-36,36 L-37,32 L-36,29 L-24,27 L-10,20 L-6,15 Z " fill="#757F98" transform="translate(157,131)"/>
<path d="M0,0 L3,1 L-12,7 L-15,8 L-13,21 L-15,21 L-18,11 L-18,6 L-14,4 L-6,2 Z " fill="#6C89A5" transform="translate(191,85)"/>
<path d="M0,0 L6,0 L4,2 L-9,7 L-17,7 L-17,6 L-10,4 L-3,3 L-3,1 Z " fill="#556D88" transform="translate(214,199)"/>
<path d="M0,0 L1,0 L0,7 L-5,12 L-13,12 L-15,10 L-6,9 L-2,6 Z " fill="#63738E" transform="translate(130,194)"/>
<path d="M0,0 L3,3 L9,15 L8,18 L1,6 L0,5 Z " fill="#315170" transform="translate(212,80)"/>
<path d="M0,0 L3,1 L-5,7 L-5,13 L-7,15 L-8,8 L-5,3 Z " fill="#191D34" transform="translate(80,172)"/>
<path d="M0,0 L1,0 L0,9 L-3,15 L-5,15 L-4,11 Z " fill="#517697" transform="translate(157,131)"/>
<path d="M0,0 L1,4 L-5,14 L-7,15 L-6,11 L-5,9 L-3,9 L-1,2 Z " fill="#7B92AA" transform="translate(230,135)"/>
<path d="M0,0 L3,4 L4,11 L0,7 L-2,1 Z " fill="#242839" transform="translate(95,139)"/>
<path d="M0,0 L3,1 L5,6 L5,13 L3,11 Z " fill="#1D2031" transform="translate(203,169)"/>
<path d="M0,0 L2,1 L-5,9 L-9,11 L-9,8 L-3,4 Z " fill="#8395B1" transform="translate(151,146)"/>
<path d="M0,0 L1,0 L0,7 L-3,10 L-4,13 L-6,13 L-4,8 Z " fill="#171F33" transform="translate(111,76)"/>
<path d="M0,0 L3,1 L4,12 L2,10 Z " fill="#1D2331" transform="translate(163,130)"/>
<path d="M0,0 L1,2 L-1,2 L-2,6 L-5,10 L-7,9 L-2,1 Z " fill="#1A2130" transform="translate(119,64)"/>
<path d="M0,0 L3,0 L2,7 L1,13 L0,13 Z " fill="#D8D3D1" transform="translate(145,91)"/>
<path d="M0,0 L2,1 L1,5 L-3,8 L-2,3 Z " fill="#1B2538" transform="translate(104,90)"/>
<path d="M0,0 L7,1 L7,2 L1,4 L-2,5 Z " fill="#CDD9DF" transform="translate(127,85)"/>
<path d="M0,0 L7,1 L7,3 L4,4 L-2,2 Z " fill="#222941" transform="translate(90,193)"/>
<path d="M0,0 L3,3 L4,10 L0,5 Z " fill="#2E4A68" transform="translate(212,80)"/>
<path d="M0,0 L12,1 L12,2 L2,3 L0,2 Z " fill="#333B50" transform="translate(112,202)"/>
<path d="M0,0 L1,0 L1,8 L-3,9 Z " fill="#192235" transform="translate(98,168)"/>
</svg>
